<svg width="63" height="40" viewBox="0 0 63 40" fill="none" xmlns="http://www.w3.org/2000/svg">
<g filter="url(#filter0_i_1552_2)">
<path d="M45.9999 3.33325C36.7999 3.33325 29.3333 10.7999 29.3333 19.9999C29.3333 29.1999 36.7999 36.6666 45.9999 36.6666C55.1999 36.6666 62.6666 29.1999 62.6666 19.9999C62.6666 10.7999 55.1999 3.33325 45.9999 3.33325ZM45.9999 8.33325C48.7666 8.33325 50.9999 10.5666 50.9999 13.3333C50.9999 16.0999 48.7666 18.3333 45.9999 18.3333C43.2333 18.3333 40.9999 16.0999 40.9999 13.3333C40.9999 10.5666 43.2333 8.33325 45.9999 8.33325ZM45.9999 31.9999C41.8333 31.9999 38.1499 29.8666 35.9999 26.6333C36.0499 23.3166 42.6666 21.4999 45.9999 21.4999C49.3166 21.4999 55.9499 23.3166 55.9999 26.6333C53.8499 29.8666 50.1666 31.9999 45.9999 31.9999Z" fill="#99CCFF"/>
</g>
<g clip-path="url(#clip0_1552_2)" filter="url(#filter1_i_1552_2)">
<path d="M19.9999 3.33325C10.7999 3.33325 3.33325 10.7999 3.33325 19.9999C3.33325 29.1999 10.7999 36.6666 19.9999 36.6666C29.1999 36.6666 36.6666 29.1999 36.6666 19.9999C36.6666 10.7999 29.1999 3.33325 19.9999 3.33325ZM19.9999 8.33325C22.7666 8.33325 24.9999 10.5666 24.9999 13.3333C24.9999 16.0999 22.7666 18.3333 19.9999 18.3333C17.2333 18.3333 14.9999 16.0999 14.9999 13.3333C14.9999 10.5666 17.2333 8.33325 19.9999 8.33325ZM19.9999 31.9999C15.8333 31.9999 12.1499 29.8666 9.99992 26.6333C10.0499 23.3166 16.6666 21.4999 19.9999 21.4999C23.3166 21.4999 29.9499 23.3166 29.9999 26.6333C27.8499 29.8666 24.1666 31.9999 19.9999 31.9999Z" fill="#4295F5"/>
</g>
<defs>
<filter id="filter0_i_1552_2" x="29.3333" y="3.33325" width="33.3333" height="37.3333" filterUnits="userSpaceOnUse" color-interpolation-filters="sRGB">
<feFlood flood-opacity="0" result="BackgroundImageFix"/>
<feBlend mode="normal" in="SourceGraphic" in2="BackgroundImageFix" result="shape"/>
<feColorMatrix in="SourceAlpha" type="matrix" values="0 0 0 0 0 0 0 0 0 0 0 0 0 0 0 0 0 0 127 0" result="hardAlpha"/>
<feOffset dy="4"/>
<feGaussianBlur stdDeviation="2"/>
<feComposite in2="hardAlpha" operator="arithmetic" k2="-1" k3="1"/>
<feColorMatrix type="matrix" values="0 0 0 0 0 0 0 0 0 0 0 0 0 0 0 0 0 0 0.25 0"/>
<feBlend mode="normal" in2="shape" result="effect1_innerShadow_1552_2"/>
</filter>
<filter id="filter1_i_1552_2" x="0" y="0" width="40" height="44" filterUnits="userSpaceOnUse" color-interpolation-filters="sRGB">
<feFlood flood-opacity="0" result="BackgroundImageFix"/>
<feBlend mode="normal" in="SourceGraphic" in2="BackgroundImageFix" result="shape"/>
<feColorMatrix in="SourceAlpha" type="matrix" values="0 0 0 0 0 0 0 0 0 0 0 0 0 0 0 0 0 0 127 0" result="hardAlpha"/>
<feOffset dy="4"/>
<feGaussianBlur stdDeviation="2"/>
<feComposite in2="hardAlpha" operator="arithmetic" k2="-1" k3="1"/>
<feColorMatrix type="matrix" values="0 0 0 0 0 0 0 0 0 0 0 0 0 0 0 0 0 0 0.25 0"/>
<feBlend mode="normal" in2="shape" result="effect1_innerShadow_1552_2"/>
</filter>
<clipPath id="clip0_1552_2">
<rect width="40" height="40" fill="white"/>
</clipPath>
</defs>
</svg>
