<svg width="50" height="50" viewBox="0 0 50 50" fill="none" xmlns="http://www.w3.org/2000/svg">
<path d="M27.0834 14.5834H22.9167V22.9167H14.5834V27.0834H22.9167V35.4167H27.0834V27.0834H35.4167V22.9167H27.0834V14.5834ZM25.0001 4.16669C13.5001 4.16669 4.16675 13.5 4.16675 25C4.16675 36.5 13.5001 45.8334 25.0001 45.8334C36.5001 45.8334 45.8334 36.5 45.8334 25C45.8334 13.5 36.5001 4.16669 25.0001 4.16669ZM25.0001 41.6667C15.8126 41.6667 8.33341 34.1875 8.33341 25C8.33341 15.8125 15.8126 8.33335 25.0001 8.33335C34.1876 8.33335 41.6667 15.8125 41.6667 25C41.6667 34.1875 34.1876 41.6667 25.0001 41.6667Z" fill="#4295F5"/>
</svg>
