<svg width="40" height="40" viewBox="0 0 40 40" fill="none" xmlns="http://www.w3.org/2000/svg">
<g clip-path="url(#clip0_563_2613)">
<path d="M27.4998 9.99984V29.1665C27.4998 32.8498 24.5165 35.8332 20.8332 35.8332C17.1498 35.8332 14.1665 32.8498 14.1665 29.1665V8.33317C14.1665 6.03317 16.0332 4.1665 18.3332 4.1665C20.6332 4.1665 22.4998 6.03317 22.4998 8.33317V25.8332C22.4998 26.7498 21.7498 27.4998 20.8332 27.4998C19.9165 27.4998 19.1665 26.7498 19.1665 25.8332V9.99984H16.6665V25.8332C16.6665 28.1332 18.5332 29.9998 20.8332 29.9998C23.1332 29.9998 24.9998 28.1332 24.9998 25.8332V8.33317C24.9998 4.64984 22.0165 1.6665 18.3332 1.6665C14.6498 1.6665 11.6665 4.64984 11.6665 8.33317V29.1665C11.6665 34.2332 15.7665 38.3332 20.8332 38.3332C25.8998 38.3332 29.9998 34.2332 29.9998 29.1665V9.99984H27.4998Z" fill="#004DA7"/>
</g>
<defs>
<clipPath id="clip0_563_2613">
<rect width="40" height="40" fill="white"/>
</clipPath>
</defs>
</svg>
