<svg width="8" height="30" viewBox="0 0 8 30" fill="none" xmlns="http://www.w3.org/2000/svg">
<path d="M4.00016 7.66658C6.01683 7.66658 7.66683 6.01658 7.66683 3.99992C7.66683 1.98325 6.01683 0.333252 4.00016 0.333252C1.9835 0.333252 0.333496 1.98325 0.333496 3.99992C0.333496 6.01658 1.9835 7.66658 4.00016 7.66658ZM4.00016 11.3333C1.9835 11.3333 0.333496 12.9832 0.333496 14.9999C0.333496 17.0166 1.9835 18.6666 4.00016 18.6666C6.01683 18.6666 7.66683 17.0166 7.66683 14.9999C7.66683 12.9832 6.01683 11.3333 4.00016 11.3333ZM4.00016 22.3332C1.9835 22.3332 0.333496 23.9832 0.333496 25.9999C0.333496 28.0166 1.9835 29.6666 4.00016 29.6666C6.01683 29.6666 7.66683 28.0166 7.66683 25.9999C7.66683 23.9832 6.01683 22.3332 4.00016 22.3332Z" fill="#004DA7"/>
</svg>
