<svg width="458" height="372" viewBox="0 0 458 372" fill="none" xmlns="http://www.w3.org/2000/svg">
<rect width="458" height="372" rx="20" fill="white"/>
<rect x="20" y="23" width="24" height="24" rx="12" fill="#EFF2F9"/>
<path d="M35.5 30.5L28.5 35L35.5 39.5" stroke="black"/>
<path d="M142.08 44V25.8182H154.119V28.9876H145.924V33.32H153.32V36.4893H145.924V44H142.08ZM161.847 44.2663C160.444 44.2663 159.237 43.9822 158.225 43.4141C157.218 42.84 156.443 42.0291 155.899 40.9815C155.354 39.928 155.082 38.6822 155.082 37.244C155.082 35.8413 155.354 34.6102 155.899 33.5508C156.443 32.4914 157.21 31.6657 158.198 31.0739C159.192 30.482 160.358 30.1861 161.696 30.1861C162.595 30.1861 163.433 30.3311 164.208 30.6211C164.99 30.9052 165.67 31.3343 166.25 31.9084C166.836 32.4825 167.292 33.2045 167.617 34.0746C167.943 34.9387 168.106 35.9508 168.106 37.1108V38.1495H156.591V35.8058H164.546C164.546 35.2612 164.427 34.7789 164.191 34.3587C163.954 33.9384 163.625 33.61 163.205 33.3732C162.791 33.1306 162.308 33.0092 161.758 33.0092C161.184 33.0092 160.675 33.1424 160.231 33.4087C159.793 33.6692 159.45 34.0213 159.201 34.4652C158.953 34.9032 158.825 35.3915 158.819 35.93V38.1584C158.819 38.8331 158.944 39.4161 159.192 39.9073C159.447 40.3986 159.805 40.7773 160.267 41.0437C160.728 41.31 161.276 41.4432 161.909 41.4432C162.329 41.4432 162.714 41.384 163.063 41.2656C163.412 41.1473 163.711 40.9697 163.96 40.733C164.208 40.4962 164.398 40.2062 164.528 39.8629L168.026 40.0938C167.848 40.9342 167.484 41.6681 166.934 42.2955C166.389 42.9169 165.685 43.4022 164.821 43.7514C163.963 44.0947 162.971 44.2663 161.847 44.2663ZM170.645 44V25.8182H174.427V32.6541H174.542C174.708 32.2872 174.948 31.9143 175.261 31.5355C175.581 31.1508 175.995 30.8312 176.504 30.5767C177.019 30.3163 177.658 30.1861 178.422 30.1861C179.416 30.1861 180.333 30.4465 181.174 30.9673C182.014 31.4822 182.686 32.2605 183.189 33.3022C183.692 34.3379 183.944 35.6371 183.944 37.1996C183.944 38.7206 183.698 40.005 183.207 41.0526C182.722 42.0942 182.059 42.8844 181.218 43.4229C180.384 43.9556 179.449 44.2219 178.413 44.2219C177.679 44.2219 177.055 44.1006 176.54 43.858C176.031 43.6153 175.613 43.3105 175.288 42.9435C174.962 42.5707 174.714 42.1948 174.542 41.8161H174.373V44H170.645ZM174.347 37.1818C174.347 37.9927 174.459 38.6999 174.684 39.3036C174.909 39.9073 175.235 40.3778 175.661 40.7152C176.087 41.0466 176.605 41.2124 177.214 41.2124C177.83 41.2124 178.351 41.0437 178.777 40.7063C179.203 40.363 179.526 39.8896 179.744 39.2859C179.969 38.6763 180.082 37.9749 180.082 37.1818C180.082 36.3946 179.972 35.7022 179.753 35.1044C179.534 34.5066 179.212 34.0391 178.786 33.7017C178.36 33.3643 177.836 33.1957 177.214 33.1957C176.599 33.1957 176.078 33.3584 175.652 33.6839C175.232 34.0095 174.909 34.4711 174.684 35.0689C174.459 35.6667 174.347 36.371 174.347 37.1818ZM186.467 44V30.3636H190.134V32.7429H190.276C190.524 31.8965 190.942 31.2573 191.528 30.8253C192.114 30.3873 192.788 30.1683 193.552 30.1683C193.741 30.1683 193.945 30.1802 194.164 30.2038C194.383 30.2275 194.576 30.2601 194.741 30.3015V33.6573C194.564 33.604 194.318 33.5567 194.005 33.5153C193.691 33.4738 193.404 33.4531 193.143 33.4531C192.587 33.4531 192.09 33.5745 191.652 33.8171C191.22 34.0539 190.877 34.3853 190.622 34.8114C190.373 35.2376 190.249 35.7288 190.249 36.2852V44H186.467ZM205.441 38.1939V30.3636H209.223V44H205.592V41.5231H205.45C205.143 42.3221 204.631 42.9643 203.914 43.4496C203.204 43.9349 202.337 44.1776 201.313 44.1776C200.402 44.1776 199.6 43.9704 198.907 43.5561C198.215 43.1418 197.673 42.5529 197.283 41.7894C196.898 41.0259 196.703 40.1115 196.697 39.0462V30.3636H200.479V38.3714C200.485 39.1764 200.701 39.8126 201.127 40.2802C201.553 40.7478 202.124 40.9815 202.84 40.9815C203.296 40.9815 203.722 40.878 204.119 40.6708C204.515 40.4577 204.835 40.1441 205.077 39.7298C205.326 39.3155 205.447 38.8035 205.441 38.1939ZM216.137 44.2575C215.267 44.2575 214.492 44.1065 213.811 43.8047C213.13 43.4969 212.592 43.0442 212.195 42.4464C211.805 41.8427 211.609 41.091 211.609 40.1914C211.609 39.4338 211.748 38.7976 212.027 38.2827C212.305 37.7678 212.684 37.3535 213.163 37.0398C213.642 36.7261 214.187 36.4893 214.796 36.3295C215.412 36.1697 216.057 36.0573 216.732 35.9922C217.525 35.9093 218.164 35.8324 218.649 35.7614C219.135 35.6844 219.487 35.572 219.706 35.424C219.925 35.276 220.034 35.0571 220.034 34.767V34.7138C220.034 34.1515 219.857 33.7165 219.502 33.4087C219.152 33.101 218.655 32.9471 218.01 32.9471C217.33 32.9471 216.788 33.098 216.386 33.3999C215.983 33.6958 215.717 34.0687 215.587 34.5185L212.089 34.2344C212.266 33.4058 212.615 32.6896 213.136 32.0859C213.657 31.4763 214.329 31.0088 215.152 30.6832C215.98 30.3518 216.939 30.1861 218.028 30.1861C218.786 30.1861 219.511 30.2749 220.203 30.4524C220.901 30.63 221.52 30.9052 222.059 31.2781C222.603 31.6509 223.032 32.1303 223.346 32.7163C223.659 33.2963 223.816 33.9917 223.816 34.8026V44H220.23V42.109H220.123C219.904 42.5352 219.611 42.911 219.244 43.2365C218.877 43.5561 218.436 43.8076 217.921 43.9911C217.407 44.1687 216.812 44.2575 216.137 44.2575ZM217.22 41.6474C217.776 41.6474 218.268 41.5379 218.694 41.3189C219.12 41.094 219.454 40.7921 219.697 40.4134C219.94 40.0346 220.061 39.6055 220.061 39.1261V37.679C219.943 37.7559 219.78 37.8269 219.573 37.892C219.371 37.9512 219.144 38.0075 218.889 38.0607C218.635 38.1081 218.38 38.1525 218.126 38.1939C217.871 38.2294 217.64 38.262 217.433 38.2915C216.989 38.3567 216.602 38.4602 216.27 38.6023C215.939 38.7443 215.681 38.9367 215.498 39.1793C215.314 39.4161 215.223 39.712 215.223 40.0671C215.223 40.582 215.409 40.9756 215.782 41.2479C216.161 41.5142 216.64 41.6474 217.22 41.6474ZM226.75 44V30.3636H230.417V32.7429H230.559C230.808 31.8965 231.225 31.2573 231.811 30.8253C232.397 30.3873 233.071 30.1683 233.835 30.1683C234.024 30.1683 234.229 30.1802 234.448 30.2038C234.667 30.2275 234.859 30.2601 235.025 30.3015V33.6573C234.847 33.604 234.601 33.5567 234.288 33.5153C233.974 33.4738 233.687 33.4531 233.427 33.4531C232.87 33.4531 232.373 33.5745 231.935 33.8171C231.503 34.0539 231.16 34.3853 230.905 34.8114C230.657 35.2376 230.532 35.7288 230.532 36.2852V44H226.75ZM239.73 49.1136C239.25 49.1136 238.801 49.0752 238.38 48.9982C237.966 48.9272 237.623 48.8355 237.351 48.723L238.203 45.8999C238.647 46.036 239.046 46.11 239.401 46.1218C239.762 46.1336 240.073 46.0508 240.334 45.8732C240.6 45.6957 240.816 45.3938 240.982 44.9677L241.204 44.3906L236.312 30.3636H240.289L243.112 40.3778H243.254L246.104 30.3636H250.108L244.808 45.4737C244.553 46.2076 244.207 46.8468 243.769 47.3913C243.337 47.9418 242.79 48.3649 242.127 48.6609C241.464 48.9627 240.665 49.1136 239.73 49.1136ZM257.794 44V41.2301L264.266 35.2376C264.816 34.7049 265.278 34.2255 265.651 33.7994C266.03 33.3732 266.317 32.956 266.512 32.5476C266.707 32.1333 266.805 31.6864 266.805 31.207C266.805 30.6744 266.684 30.2157 266.441 29.831C266.198 29.4403 265.867 29.1415 265.447 28.9343C265.027 28.7212 264.55 28.6147 264.017 28.6147C263.461 28.6147 262.976 28.7272 262.561 28.9521C262.147 29.177 261.828 29.4995 261.603 29.9197C261.378 30.34 261.265 30.8401 261.265 31.4201H257.616C257.616 30.2305 257.886 29.1977 258.424 28.3217C258.963 27.4458 259.718 26.7681 260.688 26.2887C261.659 25.8093 262.777 25.5696 264.044 25.5696C265.346 25.5696 266.48 25.8004 267.444 26.2621C268.415 26.7178 269.17 27.3511 269.708 28.1619C270.247 28.9728 270.516 29.902 270.516 30.9496C270.516 31.6361 270.38 32.3138 270.108 32.9826C269.841 33.6514 269.365 34.3942 268.678 35.2109C267.992 36.0218 267.024 36.9954 265.775 38.1317L263.121 40.733V40.8572H270.756V44H257.794ZM280.67 44.3995C279.143 44.3936 277.829 44.0178 276.728 43.272C275.633 42.5263 274.79 41.4461 274.198 40.0316C273.612 38.6171 273.322 36.9155 273.328 34.9268C273.328 32.9441 273.621 31.2544 274.207 29.8576C274.799 28.4608 275.642 27.3984 276.737 26.6705C277.838 25.9366 279.149 25.5696 280.67 25.5696C282.191 25.5696 283.499 25.9366 284.594 26.6705C285.695 27.4044 286.541 28.4697 287.133 29.8665C287.725 31.2573 288.018 32.9441 288.012 34.9268C288.012 36.9214 287.716 38.6259 287.124 40.0405C286.538 41.455 285.698 42.5352 284.603 43.2809C283.508 44.0266 282.197 44.3995 280.67 44.3995ZM280.67 41.2124C281.712 41.2124 282.543 40.6886 283.165 39.641C283.786 38.5934 284.094 37.022 284.088 34.9268C284.088 33.5478 283.946 32.3996 283.662 31.4822C283.384 30.5649 282.987 29.8754 282.472 29.4137C281.963 28.9521 281.362 28.7212 280.67 28.7212C279.634 28.7212 278.806 29.2391 278.184 30.2749C277.563 31.3106 277.249 32.8613 277.243 34.9268C277.243 36.3236 277.382 37.4896 277.66 38.4247C277.945 39.3539 278.344 40.0523 278.859 40.5199C279.374 40.9815 279.978 41.2124 280.67 41.2124ZM290.753 44V41.2301L297.225 35.2376C297.775 34.7049 298.237 34.2255 298.61 33.7994C298.989 33.3732 299.276 32.956 299.471 32.5476C299.666 32.1333 299.764 31.6864 299.764 31.207C299.764 30.6744 299.643 30.2157 299.4 29.831C299.157 29.4403 298.826 29.1415 298.406 28.9343C297.985 28.7212 297.509 28.6147 296.976 28.6147C296.42 28.6147 295.935 28.7272 295.52 28.9521C295.106 29.177 294.787 29.4995 294.562 29.9197C294.337 30.34 294.224 30.8401 294.224 31.4201H290.575C290.575 30.2305 290.845 29.1977 291.383 28.3217C291.922 27.4458 292.677 26.7681 293.647 26.2887C294.618 25.8093 295.736 25.5696 297.003 25.5696C298.305 25.5696 299.439 25.8004 300.403 26.2621C301.374 26.7178 302.128 27.3511 302.667 28.1619C303.206 28.9728 303.475 29.902 303.475 30.9496C303.475 31.6361 303.339 32.3138 303.067 32.9826C302.8 33.6514 302.324 34.3942 301.637 35.2109C300.951 36.0218 299.983 36.9954 298.734 38.1317L296.08 40.733V40.8572H303.715V44H290.753ZM314.41 25.8182V44H310.566V29.467H310.46L306.296 32.0771V28.668L310.797 25.8182H314.41Z" fill="#FA897B"/>
<rect x="438" y="47" width="24" height="24" rx="12" transform="rotate(-180 438 47)" fill="#EFF2F9"/>
<path d="M422.5 39.5L429.5 35L422.5 30.5" stroke="black"/>
<path opacity="0.5" d="M21.0568 73.2727H22.3182L25.2841 80.517H25.3864L28.3523 73.2727H29.6136V82H28.625V75.3693H28.5398L25.8125 82H24.858L22.1307 75.3693H22.0455V82H21.0568V73.2727ZM39.0962 77.6364C39.0962 78.5568 38.93 79.3523 38.5977 80.0227C38.2653 80.6932 37.8093 81.2102 37.2298 81.5739C36.6502 81.9375 35.9883 82.1193 35.244 82.1193C34.4996 82.1193 33.8377 81.9375 33.2582 81.5739C32.6786 81.2102 32.2227 80.6932 31.8903 80.0227C31.5579 79.3523 31.3917 78.5568 31.3917 77.6364C31.3917 76.7159 31.5579 75.9205 31.8903 75.25C32.2227 74.5795 32.6786 74.0625 33.2582 73.6989C33.8377 73.3352 34.4996 73.1534 35.244 73.1534C35.9883 73.1534 36.6502 73.3352 37.2298 73.6989C37.8093 74.0625 38.2653 74.5795 38.5977 75.25C38.93 75.9205 39.0962 76.7159 39.0962 77.6364ZM38.0735 77.6364C38.0735 76.8807 37.9471 76.2429 37.6942 75.723C37.4442 75.2031 37.1048 74.8097 36.6758 74.5426C36.2496 74.2756 35.7724 74.142 35.244 74.142C34.7156 74.142 34.2369 74.2756 33.8079 74.5426C33.3817 74.8097 33.0423 75.2031 32.7894 75.723C32.5394 76.2429 32.4144 76.8807 32.4144 77.6364C32.4144 78.392 32.5394 79.0298 32.7894 79.5497C33.0423 80.0696 33.3817 80.4631 33.8079 80.7301C34.2369 80.9972 34.7156 81.1307 35.244 81.1307C35.7724 81.1307 36.2496 80.9972 36.6758 80.7301C37.1048 80.4631 37.4442 80.0696 37.6942 79.5497C37.9471 79.0298 38.0735 78.392 38.0735 77.6364ZM47.7937 73.2727V82H46.771L42.0153 75.1477H41.93V82H40.8732V73.2727H41.896L46.6687 80.142H46.7539V73.2727H47.7937Z" fill="black"/>
<path d="M35.6335 125.218V135.4H34.4006V126.511H34.3409L31.8551 128.161V126.909L34.4006 125.218H35.6335Z" fill="black"/>
<path d="M34.3153 188.939C33.6326 188.939 33.0294 188.818 32.5057 188.576C31.9853 188.331 31.5793 187.995 31.2876 187.567C30.996 187.136 30.8518 186.646 30.8551 186.095C30.8518 185.665 30.9363 185.267 31.1087 184.902C31.281 184.534 31.5163 184.228 31.8146 183.983C32.1162 183.734 32.4527 183.577 32.8239 183.51V183.451C32.3366 183.325 31.9489 183.051 31.6605 182.63C31.3722 182.206 31.2296 181.724 31.233 181.184C31.2296 180.666 31.3606 180.204 31.6257 179.796C31.8909 179.389 32.2554 179.067 32.7195 178.832C33.1868 178.597 33.7188 178.479 34.3153 178.479C34.9053 178.479 35.4323 178.597 35.8963 178.832C36.3603 179.067 36.7249 179.389 36.9901 179.796C37.2585 180.204 37.3944 180.666 37.3977 181.184C37.3944 181.724 37.2469 182.206 36.9553 182.63C36.6669 183.051 36.2841 183.325 35.8068 183.451V183.51C36.1747 183.577 36.5062 183.734 36.8011 183.983C37.0961 184.228 37.3314 184.534 37.5071 184.902C37.6828 185.267 37.7723 185.665 37.7756 186.095C37.7723 186.646 37.6231 187.136 37.3281 187.567C37.0365 187.995 36.6304 188.331 36.1101 188.576C35.593 188.818 34.9948 188.939 34.3153 188.939ZM34.3153 187.845C34.776 187.845 35.1738 187.771 35.5085 187.622C35.8433 187.473 36.1018 187.262 36.2841 186.99C36.4664 186.719 36.5592 186.4 36.5625 186.036C36.5592 185.651 36.4598 185.312 36.2642 185.017C36.0687 184.722 35.8018 184.49 35.4638 184.321C35.129 184.152 34.7462 184.067 34.3153 184.067C33.8812 184.067 33.4934 184.152 33.152 184.321C32.8139 184.49 32.5471 184.722 32.3516 185.017C32.1593 185.312 32.0649 185.651 32.0682 186.036C32.0649 186.4 32.1527 186.719 32.3317 186.99C32.514 187.262 32.7741 187.473 33.1122 187.622C33.4503 187.771 33.8513 187.845 34.3153 187.845ZM34.3153 183.013C34.6799 183.013 35.0031 182.94 35.2848 182.794C35.5698 182.648 35.7936 182.445 35.956 182.183C36.1184 181.921 36.2012 181.614 36.2045 181.263C36.2012 180.918 36.12 180.618 35.9609 180.363C35.8018 180.105 35.5814 179.906 35.2997 179.767C35.018 179.624 34.6899 179.553 34.3153 179.553C33.9342 179.553 33.6011 179.624 33.3161 179.767C33.031 179.906 32.8106 180.105 32.6548 180.363C32.4991 180.618 32.4228 180.918 32.4261 181.263C32.4228 181.614 32.5007 181.921 32.6598 182.183C32.8222 182.445 33.0459 182.648 33.331 182.794C33.616 182.94 33.9441 183.013 34.3153 183.013Z" fill="black"/>
<path d="M31.1335 232.018V242.2H29.9006V233.311H29.8409L27.3551 234.961V233.709L29.9006 232.018H31.1335ZM37.2436 242.339C36.6603 242.339 36.1349 242.223 35.6676 241.991C35.2003 241.759 34.8258 241.441 34.544 241.037C34.2623 240.632 34.1082 240.172 34.0817 239.655H35.2749C35.3213 240.115 35.5301 240.496 35.9013 240.798C36.2758 241.096 36.7232 241.245 37.2436 241.245C37.6612 241.245 38.0324 241.148 38.3572 240.952C38.6854 240.757 38.9422 240.488 39.1278 240.147C39.3168 239.802 39.4112 239.413 39.4112 238.978C39.4112 238.534 39.3134 238.138 39.1179 237.79C38.9257 237.439 38.6605 237.162 38.3224 236.96C37.9844 236.758 37.5982 236.655 37.1641 236.652C36.8525 236.648 36.5327 236.696 36.2045 236.796C35.8764 236.892 35.6063 237.016 35.3942 237.169L34.2408 237.03L34.8572 232.018H40.147V233.112H35.8913L35.5334 236.115H35.593C35.8018 235.949 36.0637 235.812 36.3786 235.702C36.6934 235.593 37.0215 235.538 37.3629 235.538C37.986 235.538 38.5412 235.687 39.0284 235.986C39.5189 236.281 39.9034 236.685 40.1818 237.199C40.4635 237.712 40.6044 238.299 40.6044 238.959C40.6044 239.608 40.4586 240.188 40.1669 240.699C39.8786 241.206 39.4808 241.607 38.9737 241.902C38.4666 242.193 37.8899 242.339 37.2436 242.339Z" fill="black"/>
<path d="M27.054 295.6V294.705L30.4148 291.026C30.8092 290.595 31.134 290.221 31.3892 289.903C31.6444 289.581 31.8333 289.279 31.956 288.998C32.0819 288.713 32.1449 288.414 32.1449 288.103C32.1449 287.745 32.0587 287.435 31.8864 287.173C31.7173 286.911 31.4853 286.709 31.1903 286.567C30.8954 286.424 30.5639 286.353 30.196 286.353C29.8049 286.353 29.4635 286.434 29.1719 286.596C28.8835 286.756 28.6598 286.979 28.5007 287.268C28.3449 287.556 28.267 287.894 28.267 288.282H27.0938C27.0938 287.685 27.2313 287.162 27.5064 286.711C27.7815 286.26 28.156 285.909 28.63 285.657C29.1072 285.405 29.6425 285.279 30.2358 285.279C30.8324 285.279 31.361 285.405 31.8217 285.657C32.2824 285.909 32.6437 286.248 32.9055 286.676C33.1674 287.104 33.2983 287.579 33.2983 288.103C33.2983 288.477 33.2304 288.844 33.0945 289.202C32.9619 289.556 32.7299 289.952 32.3984 290.39C32.0703 290.824 31.6146 291.354 31.0312 291.981L28.7443 294.427V294.506H33.4773V295.6H27.054ZM35.5305 295.6V294.705L38.8913 291.026C39.2857 290.595 39.6106 290.221 39.8658 289.903C40.121 289.581 40.3099 289.279 40.4325 288.998C40.5585 288.713 40.6214 288.414 40.6214 288.103C40.6214 287.745 40.5353 287.435 40.3629 287.173C40.1939 286.911 39.9619 286.709 39.6669 286.567C39.3719 286.424 39.0405 286.353 38.6726 286.353C38.2815 286.353 37.9401 286.434 37.6484 286.596C37.3601 286.756 37.1364 286.979 36.9773 287.268C36.8215 287.556 36.7436 287.894 36.7436 288.282H35.5703C35.5703 287.685 35.7079 287.162 35.983 286.711C36.258 286.26 36.6326 285.909 37.1065 285.657C37.5838 285.405 38.1191 285.279 38.7124 285.279C39.3089 285.279 39.8376 285.405 40.2983 285.657C40.759 285.909 41.1203 286.248 41.3821 286.676C41.6439 287.104 41.7749 287.579 41.7749 288.103C41.7749 288.477 41.7069 288.844 41.571 289.202C41.4384 289.556 41.2064 289.952 40.875 290.39C40.5469 290.824 40.0911 291.354 39.5078 291.981L37.2209 294.427V294.506H41.9538V295.6H35.5305Z" fill="black"/>
<path d="M26.554 349V348.105L29.9148 344.426C30.3092 343.995 30.634 343.621 30.8892 343.303C31.1444 342.981 31.3333 342.679 31.456 342.398C31.5819 342.113 31.6449 341.814 31.6449 341.503C31.6449 341.145 31.5587 340.835 31.3864 340.573C31.2173 340.311 30.9853 340.109 30.6903 339.967C30.3954 339.824 30.0639 339.753 29.696 339.753C29.3049 339.753 28.9635 339.834 28.6719 339.996C28.3835 340.156 28.1598 340.379 28.0007 340.668C27.8449 340.956 27.767 341.294 27.767 341.682H26.5938C26.5938 341.085 26.7313 340.562 27.0064 340.111C27.2815 339.66 27.656 339.309 28.13 339.057C28.6072 338.805 29.1425 338.679 29.7358 338.679C30.3324 338.679 30.861 338.805 31.3217 339.057C31.7824 339.309 32.1437 339.648 32.4055 340.076C32.6674 340.504 32.7983 340.979 32.7983 341.503C32.7983 341.877 32.7304 342.244 32.5945 342.602C32.4619 342.956 32.2299 343.352 31.8984 343.79C31.5703 344.224 31.1146 344.754 30.5312 345.381L28.2443 347.827V347.906H32.9773V349H26.554ZM38.272 338.679C38.6896 338.682 39.1072 338.762 39.5249 338.918C39.9425 339.073 40.3236 339.332 40.6683 339.693C41.013 340.051 41.2898 340.54 41.4986 341.16C41.7074 341.78 41.8118 342.557 41.8118 343.491C41.8118 344.396 41.7256 345.2 41.5533 345.903C41.3842 346.602 41.139 347.192 40.8175 347.673C40.4993 348.153 40.1115 348.518 39.6541 348.766C39.2 349.015 38.6863 349.139 38.1129 349.139C37.5429 349.139 37.0341 349.027 36.5866 348.801C36.1425 348.572 35.7779 348.256 35.4929 347.852C35.2112 347.444 35.0305 346.972 34.951 346.435H36.1641C36.2734 346.902 36.4905 347.288 36.8153 347.593C37.1435 347.895 37.576 348.045 38.1129 348.045C38.8984 348.045 39.5182 347.702 39.9723 347.016C40.4297 346.33 40.6584 345.361 40.6584 344.108H40.5788C40.3932 344.386 40.1728 344.627 39.9176 344.829C39.6624 345.031 39.379 345.187 39.0675 345.296C38.7559 345.406 38.4245 345.46 38.0732 345.46C37.4898 345.46 36.9545 345.316 36.4673 345.028C35.9834 344.736 35.5956 344.337 35.304 343.83C35.0156 343.319 34.8714 342.736 34.8714 342.08C34.8714 341.456 35.0107 340.886 35.2891 340.369C35.5708 339.849 35.9652 339.435 36.4723 339.126C36.9827 338.818 37.5826 338.669 38.272 338.679ZM38.272 339.773C37.8544 339.773 37.4782 339.877 37.1435 340.086C36.812 340.291 36.5485 340.57 36.353 340.921C36.1607 341.269 36.0646 341.655 36.0646 342.08C36.0646 342.504 36.1574 342.89 36.343 343.238C36.532 343.583 36.7888 343.858 37.1136 344.063C37.4418 344.265 37.8146 344.366 38.2322 344.366C38.5471 344.366 38.8404 344.305 39.1122 344.183C39.384 344.057 39.621 343.886 39.8232 343.67C40.0286 343.452 40.1894 343.205 40.3054 342.93C40.4214 342.651 40.4794 342.361 40.4794 342.06C40.4794 341.662 40.3833 341.289 40.1911 340.941C40.0021 340.593 39.7403 340.311 39.4055 340.096C39.0741 339.88 38.6963 339.773 38.272 339.773Z" fill="black"/>
<path opacity="0.5" d="M92.0795 74.2102V73.2727H98.625V74.2102H95.8807V82H94.8239V74.2102H92.0795ZM105.983 73.2727H107.04V79.0511C107.04 79.6477 106.9 80.1804 106.618 80.6491C106.34 81.1151 105.946 81.483 105.438 81.7528C104.929 82.0199 104.333 82.1534 103.648 82.1534C102.963 82.1534 102.367 82.0199 101.858 81.7528C101.35 81.483 100.955 81.1151 100.674 80.6491C100.395 80.1804 100.256 79.6477 100.256 79.0511V73.2727H101.313V78.9659C101.313 79.392 101.407 79.7713 101.594 80.1037C101.782 80.4332 102.049 80.6932 102.395 80.8835C102.745 81.071 103.162 81.1648 103.648 81.1648C104.134 81.1648 104.551 81.071 104.901 80.8835C105.25 80.6932 105.517 80.4332 105.702 80.1037C105.89 79.7713 105.983 79.392 105.983 78.9659V73.2727ZM109.151 82V73.2727H114.418V74.2102H110.207V77.1591H114.145V78.0966H110.207V81.0625H114.486V82H109.151Z" fill="black"/>
<path d="M100.054 135.4V134.505L103.415 130.826C103.809 130.395 104.134 130.021 104.389 129.703C104.644 129.381 104.833 129.079 104.956 128.798C105.082 128.513 105.145 128.214 105.145 127.903C105.145 127.545 105.059 127.235 104.886 126.973C104.717 126.711 104.485 126.509 104.19 126.367C103.895 126.224 103.564 126.153 103.196 126.153C102.805 126.153 102.464 126.234 102.172 126.396C101.884 126.556 101.66 126.779 101.501 127.068C101.345 127.356 101.267 127.694 101.267 128.082H100.094C100.094 127.485 100.231 126.962 100.506 126.511C100.781 126.06 101.156 125.709 101.63 125.457C102.107 125.205 102.643 125.079 103.236 125.079C103.832 125.079 104.361 125.205 104.822 125.457C105.282 125.709 105.644 126.048 105.906 126.476C106.167 126.904 106.298 127.379 106.298 127.903C106.298 128.277 106.23 128.644 106.094 129.002C105.962 129.356 105.73 129.752 105.398 130.19C105.07 130.624 104.615 131.154 104.031 131.781L101.744 134.227V134.306H106.477V135.4H100.054Z" fill="black"/>
<path d="M103.295 178.479C103.713 178.482 104.131 178.562 104.548 178.718C104.966 178.873 105.347 179.132 105.692 179.493C106.036 179.851 106.313 180.34 106.522 180.96C106.731 181.58 106.835 182.357 106.835 183.291C106.835 184.196 106.749 185 106.577 185.703C106.408 186.402 106.162 186.992 105.841 187.473C105.523 187.953 105.135 188.318 104.678 188.566C104.223 188.815 103.71 188.939 103.136 188.939C102.566 188.939 102.058 188.827 101.61 188.601C101.166 188.372 100.801 188.056 100.516 187.652C100.235 187.244 100.054 186.772 99.9744 186.235H101.188C101.297 186.702 101.514 187.088 101.839 187.393C102.167 187.695 102.599 187.845 103.136 187.845C103.922 187.845 104.542 187.502 104.996 186.816C105.453 186.13 105.682 185.161 105.682 183.908H105.602C105.417 184.186 105.196 184.427 104.941 184.629C104.686 184.831 104.402 184.987 104.091 185.096C103.779 185.206 103.448 185.26 103.097 185.26C102.513 185.26 101.978 185.116 101.491 184.828C101.007 184.536 100.619 184.137 100.327 183.63C100.039 183.119 99.8949 182.536 99.8949 181.88C99.8949 181.256 100.034 180.686 100.312 180.169C100.594 179.649 100.989 179.235 101.496 178.926C102.006 178.618 102.606 178.469 103.295 178.479ZM103.295 179.573C102.878 179.573 102.502 179.677 102.167 179.886C101.835 180.091 101.572 180.37 101.376 180.721C101.184 181.069 101.088 181.455 101.088 181.88C101.088 182.304 101.181 182.69 101.366 183.038C101.555 183.383 101.812 183.658 102.137 183.863C102.465 184.065 102.838 184.166 103.256 184.166C103.571 184.166 103.864 184.105 104.136 183.983C104.407 183.857 104.644 183.686 104.847 183.47C105.052 183.252 105.213 183.005 105.329 182.73C105.445 182.451 105.503 182.161 105.503 181.86C105.503 181.462 105.407 181.089 105.214 180.741C105.026 180.393 104.764 180.111 104.429 179.896C104.098 179.68 103.72 179.573 103.295 179.573Z" fill="black"/>
<path d="M100.134 232.018V242.2H98.9006V233.311H98.8409L96.3551 234.961V233.709L98.9006 232.018H100.134ZM106.442 242.339C106.025 242.333 105.607 242.253 105.19 242.101C104.772 241.948 104.391 241.691 104.046 241.33C103.701 240.965 103.425 240.473 103.216 239.853C103.007 239.23 102.903 238.448 102.903 237.507C102.903 236.605 102.987 235.807 103.156 235.111C103.325 234.411 103.571 233.823 103.892 233.346C104.214 232.865 104.601 232.5 105.055 232.252C105.513 232.003 106.028 231.879 106.602 231.879C107.172 231.879 107.679 231.993 108.123 232.222C108.57 232.447 108.935 232.762 109.217 233.167C109.498 233.571 109.681 234.037 109.763 234.564H108.55C108.438 234.106 108.219 233.727 107.894 233.425C107.569 233.124 107.138 232.973 106.602 232.973C105.813 232.973 105.191 233.316 104.737 234.002C104.286 234.688 104.059 235.651 104.056 236.89H104.136C104.321 236.609 104.542 236.368 104.797 236.169C105.055 235.967 105.34 235.812 105.652 235.702C105.964 235.593 106.293 235.538 106.641 235.538C107.225 235.538 107.758 235.684 108.242 235.976C108.726 236.264 109.114 236.663 109.406 237.174C109.697 237.681 109.843 238.263 109.843 238.919C109.843 239.548 109.702 240.125 109.42 240.649C109.139 241.169 108.743 241.584 108.232 241.892C107.725 242.197 107.129 242.346 106.442 242.339ZM106.442 241.245C106.86 241.245 107.235 241.141 107.566 240.932C107.901 240.723 108.164 240.443 108.357 240.092C108.552 239.741 108.65 239.35 108.65 238.919C108.65 238.498 108.555 238.115 108.366 237.77C108.181 237.422 107.924 237.146 107.596 236.94C107.271 236.735 106.9 236.632 106.482 236.632C106.167 236.632 105.874 236.695 105.602 236.821C105.33 236.943 105.092 237.112 104.886 237.328C104.684 237.543 104.525 237.79 104.409 238.069C104.293 238.344 104.235 238.634 104.235 238.939C104.235 239.343 104.33 239.721 104.518 240.072C104.711 240.423 104.973 240.707 105.304 240.922C105.639 241.138 106.018 241.245 106.442 241.245Z" fill="black"/>
<path d="M95.554 295.6V294.705L98.9148 291.026C99.3092 290.595 99.634 290.221 99.8892 289.903C100.144 289.581 100.333 289.279 100.456 288.998C100.582 288.713 100.645 288.414 100.645 288.103C100.645 287.745 100.559 287.435 100.386 287.173C100.217 286.911 99.9853 286.709 99.6903 286.567C99.3954 286.424 99.0639 286.353 98.696 286.353C98.3049 286.353 97.9635 286.434 97.6719 286.596C97.3835 286.756 97.1598 286.979 97.0007 287.268C96.8449 287.556 96.767 287.894 96.767 288.282H95.5938C95.5938 287.685 95.7313 287.162 96.0064 286.711C96.2815 286.26 96.656 285.909 97.13 285.657C97.6072 285.405 98.1425 285.279 98.7358 285.279C99.3324 285.279 99.861 285.405 100.322 285.657C100.782 285.909 101.144 286.248 101.406 286.676C101.667 287.104 101.798 287.579 101.798 288.103C101.798 288.477 101.73 288.844 101.594 289.202C101.462 289.556 101.23 289.952 100.898 290.39C100.57 290.824 100.115 291.354 99.5312 291.981L97.2443 294.427V294.506H101.977V295.6H95.554ZM107.471 295.739C106.815 295.739 106.23 295.626 105.716 295.401C105.205 295.176 104.799 294.863 104.498 294.461C104.2 294.057 104.037 293.588 104.011 293.055H105.263C105.29 293.383 105.403 293.666 105.602 293.905C105.8 294.14 106.061 294.322 106.382 294.452C106.704 294.581 107.06 294.645 107.451 294.645C107.888 294.645 108.276 294.569 108.614 294.417C108.952 294.264 109.218 294.052 109.41 293.78C109.602 293.509 109.698 293.194 109.698 292.836C109.698 292.461 109.605 292.131 109.42 291.846C109.234 291.558 108.962 291.333 108.604 291.17C108.246 291.008 107.809 290.927 107.292 290.927H106.477V289.833H107.292C107.696 289.833 108.051 289.76 108.356 289.614C108.664 289.468 108.904 289.263 109.077 288.998C109.252 288.733 109.34 288.421 109.34 288.063C109.34 287.718 109.264 287.418 109.112 287.163C108.959 286.908 108.744 286.709 108.465 286.567C108.19 286.424 107.865 286.353 107.491 286.353C107.139 286.353 106.808 286.417 106.496 286.547C106.188 286.673 105.936 286.857 105.741 287.099C105.545 287.337 105.439 287.626 105.423 287.964H104.229C104.249 287.43 104.41 286.963 104.712 286.562C105.013 286.157 105.408 285.842 105.895 285.617C106.385 285.392 106.924 285.279 107.511 285.279C108.14 285.279 108.681 285.407 109.131 285.662C109.582 285.914 109.929 286.247 110.17 286.661C110.412 287.075 110.533 287.523 110.533 288.003C110.533 288.577 110.383 289.066 110.081 289.47C109.783 289.874 109.377 290.154 108.863 290.31V290.39C109.506 290.496 110.008 290.769 110.369 291.21C110.731 291.648 110.911 292.189 110.911 292.836C110.911 293.389 110.76 293.886 110.459 294.327C110.161 294.765 109.753 295.109 109.236 295.361C108.719 295.613 108.13 295.739 107.471 295.739Z" fill="black"/>
<path d="M98.9943 349.139C98.3381 349.139 97.7531 349.027 97.2393 348.801C96.7289 348.576 96.3229 348.263 96.0213 347.862C95.723 347.457 95.5606 346.988 95.5341 346.455H96.7869C96.8134 346.783 96.9261 347.066 97.125 347.305C97.3239 347.54 97.584 347.722 97.9055 347.852C98.227 347.981 98.5833 348.045 98.9744 348.045C99.4119 348.045 99.7997 347.969 100.138 347.817C100.476 347.664 100.741 347.452 100.933 347.18C101.125 346.909 101.222 346.594 101.222 346.236C101.222 345.861 101.129 345.531 100.943 345.246C100.758 344.958 100.486 344.733 100.128 344.57C99.7699 344.408 99.3324 344.327 98.8153 344.327H98V343.233H98.8153C99.2197 343.233 99.5743 343.16 99.8793 343.014C100.188 342.868 100.428 342.663 100.6 342.398C100.776 342.133 100.864 341.821 100.864 341.463C100.864 341.118 100.787 340.818 100.635 340.563C100.482 340.308 100.267 340.109 99.9886 339.967C99.7135 339.824 99.3887 339.753 99.0142 339.753C98.6629 339.753 98.3314 339.817 98.0199 339.947C97.7116 340.073 97.4598 340.257 97.2642 340.499C97.0687 340.737 96.9626 341.026 96.946 341.364H95.7528C95.7727 340.83 95.9335 340.363 96.2351 339.962C96.5367 339.557 96.9311 339.242 97.4183 339.017C97.9089 338.792 98.4474 338.679 99.0341 338.679C99.6638 338.679 100.204 338.807 100.655 339.062C101.106 339.314 101.452 339.647 101.694 340.061C101.936 340.475 102.057 340.923 102.057 341.403C102.057 341.977 101.906 342.466 101.604 342.87C101.306 343.274 100.9 343.554 100.386 343.71V343.79C101.029 343.896 101.531 344.169 101.893 344.61C102.254 345.048 102.435 345.589 102.435 346.236C102.435 346.789 102.284 347.286 101.982 347.727C101.684 348.165 101.276 348.509 100.759 348.761C100.242 349.013 99.6539 349.139 98.9943 349.139ZM107.789 349.139C107.04 349.139 106.402 348.935 105.875 348.528C105.348 348.117 104.945 347.522 104.667 346.743C104.388 345.961 104.249 345.016 104.249 343.909C104.249 342.809 104.388 341.869 104.667 341.09C104.949 340.308 105.353 339.711 105.88 339.3C106.41 338.886 107.047 338.679 107.789 338.679C108.531 338.679 109.166 338.886 109.693 339.3C110.223 339.711 110.628 340.308 110.906 341.09C111.188 341.869 111.329 342.809 111.329 343.909C111.329 345.016 111.19 345.961 110.911 346.743C110.633 347.522 110.23 348.117 109.703 348.528C109.176 348.935 108.538 349.139 107.789 349.139ZM107.789 348.045C108.531 348.045 109.108 347.687 109.519 346.972C109.93 346.256 110.136 345.235 110.136 343.909C110.136 343.027 110.041 342.277 109.852 341.657C109.667 341.037 109.398 340.565 109.047 340.24C108.699 339.915 108.28 339.753 107.789 339.753C107.053 339.753 106.478 340.116 106.064 340.842C105.65 341.564 105.442 342.587 105.442 343.909C105.442 344.791 105.535 345.54 105.721 346.156C105.906 346.773 106.173 347.242 106.521 347.563C106.873 347.885 107.295 348.045 107.789 348.045Z" fill="black"/>
<path opacity="0.5" d="M160.642 82L158.256 73.2727H159.33L161.153 80.3807H161.239L163.097 73.2727H164.29L166.148 80.3807H166.233L168.057 73.2727H169.131L166.744 82H165.653L163.727 75.0455H163.659L161.733 82H160.642ZM170.447 82V73.2727H175.714V74.2102H171.504V77.1591H175.442V78.0966H171.504V81.0625H175.783V82H170.447ZM180.312 82H177.619V73.2727H180.432C181.278 73.2727 182.003 73.4474 182.605 73.7969C183.207 74.1435 183.669 74.642 183.99 75.2926C184.311 75.9403 184.472 76.7159 184.472 77.6193C184.472 78.5284 184.31 79.3111 183.986 79.9673C183.662 80.6207 183.19 81.1236 182.571 81.4759C181.952 81.8253 181.199 82 180.312 82ZM178.676 81.0625H180.244C180.966 81.0625 181.564 80.9233 182.038 80.6449C182.513 80.3665 182.866 79.9702 183.099 79.456C183.332 78.9418 183.449 78.3295 183.449 77.6193C183.449 76.9148 183.334 76.3082 183.104 75.7997C182.874 75.2884 182.53 74.8963 182.072 74.6236C181.615 74.348 181.045 74.2102 180.364 74.2102H178.676V81.0625Z" fill="black"/>
<path d="M171.994 135.539C171.338 135.539 170.753 135.427 170.239 135.201C169.729 134.976 169.323 134.663 169.021 134.262C168.723 133.857 168.561 133.388 168.534 132.855H169.787C169.813 133.183 169.926 133.466 170.125 133.705C170.324 133.94 170.584 134.122 170.906 134.252C171.227 134.381 171.583 134.445 171.974 134.445C172.412 134.445 172.8 134.369 173.138 134.217C173.476 134.064 173.741 133.852 173.933 133.58C174.125 133.309 174.222 132.994 174.222 132.636C174.222 132.261 174.129 131.932 173.943 131.646C173.758 131.358 173.486 131.133 173.128 130.97C172.77 130.808 172.332 130.727 171.815 130.727H171V129.633H171.815C172.22 129.633 172.574 129.56 172.879 129.414C173.188 129.268 173.428 129.063 173.6 128.798C173.776 128.533 173.864 128.221 173.864 127.863C173.864 127.518 173.787 127.218 173.635 126.963C173.482 126.708 173.267 126.509 172.989 126.367C172.714 126.224 172.389 126.153 172.014 126.153C171.663 126.153 171.331 126.217 171.02 126.347C170.712 126.473 170.46 126.657 170.264 126.899C170.069 127.137 169.963 127.426 169.946 127.764H168.753C168.773 127.23 168.933 126.763 169.235 126.362C169.537 125.957 169.931 125.642 170.418 125.417C170.909 125.192 171.447 125.079 172.034 125.079C172.664 125.079 173.204 125.207 173.655 125.462C174.106 125.714 174.452 126.047 174.694 126.461C174.936 126.875 175.057 127.323 175.057 127.803C175.057 128.377 174.906 128.866 174.604 129.27C174.306 129.674 173.9 129.954 173.386 130.11V130.19C174.029 130.296 174.531 130.569 174.893 131.01C175.254 131.448 175.435 131.99 175.435 132.636C175.435 133.189 175.284 133.686 174.982 134.127C174.684 134.565 174.276 134.909 173.759 135.161C173.242 135.413 172.654 135.539 171.994 135.539Z" fill="black"/>
<path d="M168.634 178.618V188.8H167.401V179.911H167.341L164.855 181.561V180.309L167.401 178.618H168.634ZM174.883 188.939C174.134 188.939 173.496 188.735 172.969 188.328C172.442 187.917 172.039 187.322 171.761 186.543C171.482 185.761 171.343 184.816 171.343 183.709C171.343 182.609 171.482 181.669 171.761 180.89C172.042 180.108 172.447 179.511 172.974 179.1C173.504 178.686 174.14 178.479 174.883 178.479C175.625 178.479 176.26 178.686 176.787 179.1C177.317 179.511 177.722 180.108 178 180.89C178.282 181.669 178.423 182.609 178.423 183.709C178.423 184.816 178.283 185.761 178.005 186.543C177.727 187.322 177.324 187.917 176.797 188.328C176.27 188.735 175.632 188.939 174.883 188.939ZM174.883 187.845C175.625 187.845 176.202 187.487 176.613 186.772C177.024 186.056 177.229 185.035 177.229 183.709C177.229 182.827 177.135 182.077 176.946 181.457C176.76 180.837 176.492 180.365 176.141 180.04C175.793 179.715 175.373 179.553 174.883 179.553C174.147 179.553 173.572 179.916 173.158 180.642C172.743 181.364 172.536 182.387 172.536 183.709C172.536 184.591 172.629 185.34 172.815 185.956C173 186.573 173.267 187.042 173.615 187.363C173.966 187.685 174.389 187.845 174.883 187.845Z" fill="black"/>
<path d="M169.134 232.018V242.2H167.901V233.311H167.841L165.355 234.961V233.709L167.901 232.018H169.134ZM172.38 242.2L176.934 233.191V233.112H171.684V232.018H178.207V233.172L173.673 242.2H172.38Z" fill="black"/>
<path d="M164.054 295.6V294.705L167.415 291.026C167.809 290.595 168.134 290.221 168.389 289.903C168.644 289.581 168.833 289.279 168.956 288.998C169.082 288.713 169.145 288.414 169.145 288.103C169.145 287.745 169.059 287.435 168.886 287.173C168.717 286.911 168.485 286.709 168.19 286.567C167.895 286.424 167.564 286.353 167.196 286.353C166.805 286.353 166.464 286.434 166.172 286.596C165.884 286.756 165.66 286.979 165.501 287.268C165.345 287.556 165.267 287.894 165.267 288.282H164.094C164.094 287.685 164.231 287.162 164.506 286.711C164.781 286.26 165.156 285.909 165.63 285.657C166.107 285.405 166.643 285.279 167.236 285.279C167.832 285.279 168.361 285.405 168.822 285.657C169.282 285.909 169.644 286.248 169.906 286.676C170.167 287.104 170.298 287.579 170.298 288.103C170.298 288.477 170.23 288.844 170.094 289.202C169.962 289.556 169.73 289.952 169.398 290.39C169.07 290.824 168.615 291.354 168.031 291.981L165.744 294.427V294.506H170.477V295.6H164.054ZM172.073 293.512V292.498L176.548 285.418H177.283V286.989H176.786L173.406 292.339V292.418H179.431V293.512H172.073ZM176.866 295.6V293.204V292.731V285.418H178.039V295.6H176.866Z" fill="black"/>
<path d="M168.494 349.139C167.838 349.139 167.253 349.027 166.739 348.801C166.229 348.576 165.823 348.263 165.521 347.862C165.223 347.457 165.061 346.988 165.034 346.455H166.287C166.313 346.783 166.426 347.066 166.625 347.305C166.824 347.54 167.084 347.722 167.406 347.852C167.727 347.981 168.083 348.045 168.474 348.045C168.912 348.045 169.3 347.969 169.638 347.817C169.976 347.664 170.241 347.452 170.433 347.18C170.625 346.909 170.722 346.594 170.722 346.236C170.722 345.861 170.629 345.531 170.443 345.246C170.258 344.958 169.986 344.733 169.628 344.57C169.27 344.408 168.832 344.327 168.315 344.327H167.5V343.233H168.315C168.72 343.233 169.074 343.16 169.379 343.014C169.688 342.868 169.928 342.663 170.1 342.398C170.276 342.133 170.364 341.821 170.364 341.463C170.364 341.118 170.287 340.818 170.135 340.563C169.982 340.308 169.767 340.109 169.489 339.967C169.214 339.824 168.889 339.753 168.514 339.753C168.163 339.753 167.831 339.817 167.52 339.947C167.212 340.073 166.96 340.257 166.764 340.499C166.569 340.737 166.463 341.026 166.446 341.364H165.253C165.273 340.83 165.433 340.363 165.735 339.962C166.037 339.557 166.431 339.242 166.918 339.017C167.409 338.792 167.947 338.679 168.534 338.679C169.164 338.679 169.704 338.807 170.155 339.062C170.606 339.314 170.952 339.647 171.194 340.061C171.436 340.475 171.557 340.923 171.557 341.403C171.557 341.977 171.406 342.466 171.104 342.87C170.806 343.274 170.4 343.554 169.886 343.71V343.79C170.529 343.896 171.031 344.169 171.393 344.61C171.754 345.048 171.935 345.589 171.935 346.236C171.935 346.789 171.784 347.286 171.482 347.727C171.184 348.165 170.776 348.509 170.259 348.761C169.742 349.013 169.154 349.139 168.494 349.139ZM177.548 338.818V349H176.315V340.111H176.255L173.769 341.761V340.509L176.315 338.818H177.548Z" fill="black"/>
<path opacity="0.5" d="M229.08 74.2102V73.2727H235.625V74.2102H232.881V82H231.824V74.2102H229.08ZM237.256 82V73.2727H238.313V77.1591H242.966V73.2727H244.023V82H242.966V78.0966H238.313V82H237.256ZM251.866 73.2727H252.923V79.0511C252.923 79.6477 252.782 80.1804 252.501 80.6491C252.223 81.1151 251.829 81.483 251.321 81.7528C250.812 82.0199 250.216 82.1534 249.531 82.1534C248.846 82.1534 248.25 82.0199 247.741 81.7528C247.233 81.483 246.838 81.1151 246.556 80.6491C246.278 80.1804 246.139 79.6477 246.139 79.0511V73.2727H247.196V78.9659C247.196 79.392 247.289 79.7713 247.477 80.1037C247.664 80.4332 247.931 80.6932 248.278 80.8835C248.627 81.071 249.045 81.1648 249.531 81.1648C250.017 81.1648 250.434 81.071 250.784 80.8835C251.133 80.6932 251.4 80.4332 251.585 80.1037C251.772 79.7713 251.866 79.392 251.866 78.9659V73.2727Z" fill="black"/>
<path d="M237.815 133.312V132.298L242.29 125.218H243.026V126.789H242.528L239.148 132.139V132.218H245.173V133.312H237.815ZM242.608 135.4V133.004V132.531V125.218H243.781V135.4H242.608Z" fill="black"/>
<path d="M239.134 178.618V188.8H237.901V179.911H237.841L235.355 181.561V180.309L237.901 178.618H239.134ZM245.641 178.618V188.8H244.408V179.911H244.349L241.863 181.561V180.309L244.408 178.618H245.641Z" fill="black"/>
<path d="M238.134 232.018V242.2H236.901V233.311H236.841L234.355 234.961V233.709L236.901 232.018H238.134ZM244.323 242.339C243.64 242.339 243.037 242.218 242.513 241.976C241.993 241.731 241.587 241.395 241.295 240.967C241.004 240.536 240.86 240.046 240.863 239.495C240.86 239.065 240.944 238.667 241.116 238.302C241.289 237.934 241.524 237.628 241.822 237.383C242.124 237.134 242.46 236.977 242.832 236.91V236.851C242.344 236.725 241.957 236.451 241.668 236.03C241.38 235.606 241.237 235.124 241.241 234.584C241.237 234.066 241.368 233.604 241.634 233.196C241.899 232.789 242.263 232.467 242.727 232.232C243.195 231.997 243.727 231.879 244.323 231.879C244.913 231.879 245.44 231.997 245.904 232.232C246.368 232.467 246.733 232.789 246.998 233.196C247.266 233.604 247.402 234.066 247.406 234.584C247.402 235.124 247.255 235.606 246.963 236.03C246.675 236.451 246.292 236.725 245.815 236.851V236.91C246.183 236.977 246.514 237.134 246.809 237.383C247.104 237.628 247.339 237.934 247.515 238.302C247.691 238.667 247.78 239.065 247.783 239.495C247.78 240.046 247.631 240.536 247.336 240.967C247.044 241.395 246.638 241.731 246.118 241.976C245.601 242.218 245.003 242.339 244.323 242.339ZM244.323 241.245C244.784 241.245 245.182 241.171 245.516 241.022C245.851 240.873 246.11 240.662 246.292 240.39C246.474 240.119 246.567 239.8 246.57 239.436C246.567 239.051 246.468 238.712 246.272 238.417C246.076 238.122 245.81 237.89 245.472 237.721C245.137 237.552 244.754 237.467 244.323 237.467C243.889 237.467 243.501 237.552 243.16 237.721C242.822 237.89 242.555 238.122 242.359 238.417C242.167 238.712 242.073 239.051 242.076 239.436C242.073 239.8 242.161 240.119 242.339 240.39C242.522 240.662 242.782 240.873 243.12 241.022C243.458 241.171 243.859 241.245 244.323 241.245ZM244.323 236.413C244.688 236.413 245.011 236.34 245.293 236.194C245.578 236.048 245.801 235.845 245.964 235.583C246.126 235.321 246.209 235.014 246.212 234.663C246.209 234.318 246.128 234.018 245.969 233.763C245.81 233.505 245.589 233.306 245.308 233.167C245.026 233.024 244.698 232.953 244.323 232.953C243.942 232.953 243.609 233.024 243.324 233.167C243.039 233.306 242.818 233.505 242.663 233.763C242.507 234.018 242.431 234.318 242.434 234.663C242.431 235.014 242.509 235.321 242.668 235.583C242.83 235.845 243.054 236.048 243.339 236.194C243.624 236.34 243.952 236.413 244.323 236.413Z" fill="black"/>
<path d="M234.054 295.6V294.705L237.415 291.026C237.809 290.595 238.134 290.221 238.389 289.903C238.644 289.581 238.833 289.279 238.956 288.998C239.082 288.713 239.145 288.414 239.145 288.103C239.145 287.745 239.059 287.435 238.886 287.173C238.717 286.911 238.485 286.709 238.19 286.567C237.895 286.424 237.564 286.353 237.196 286.353C236.805 286.353 236.464 286.434 236.172 286.596C235.884 286.756 235.66 286.979 235.501 287.268C235.345 287.556 235.267 287.894 235.267 288.282H234.094C234.094 287.685 234.231 287.162 234.506 286.711C234.781 286.26 235.156 285.909 235.63 285.657C236.107 285.405 236.643 285.279 237.236 285.279C237.832 285.279 238.361 285.405 238.822 285.657C239.282 285.909 239.644 286.248 239.906 286.676C240.167 287.104 240.298 287.579 240.298 288.103C240.298 288.477 240.23 288.844 240.094 289.202C239.962 289.556 239.73 289.952 239.398 290.39C239.07 290.824 238.615 291.354 238.031 291.981L235.744 294.427V294.506H240.477V295.6H234.054ZM245.712 295.739C245.129 295.739 244.604 295.623 244.136 295.391C243.669 295.159 243.295 294.841 243.013 294.437C242.731 294.032 242.577 293.572 242.55 293.055H243.744C243.79 293.515 243.999 293.896 244.37 294.198C244.745 294.496 245.192 294.645 245.712 294.645C246.13 294.645 246.501 294.548 246.826 294.352C247.154 294.157 247.411 293.888 247.597 293.547C247.786 293.202 247.88 292.813 247.88 292.378C247.88 291.934 247.782 291.538 247.587 291.19C247.394 290.839 247.129 290.562 246.791 290.36C246.453 290.158 246.067 290.055 245.633 290.052C245.321 290.048 245.001 290.096 244.673 290.196C244.345 290.292 244.075 290.416 243.863 290.569L242.71 290.43L243.326 285.418H248.616V286.512H244.36L244.002 289.515H244.062C244.271 289.349 244.532 289.211 244.847 289.102C245.162 288.993 245.49 288.938 245.832 288.938C246.455 288.938 247.01 289.087 247.497 289.385C247.988 289.68 248.372 290.085 248.651 290.599C248.932 291.112 249.073 291.699 249.073 292.358C249.073 293.008 248.927 293.588 248.636 294.099C248.347 294.606 247.95 295.007 247.442 295.302C246.935 295.593 246.359 295.739 245.712 295.739Z" fill="black"/>
<path opacity="0.5" d="M242.634 338.818V349H241.401V340.111H241.341L238.855 341.761V340.509L241.401 338.818H242.634Z" fill="black"/>
<path opacity="0.5" d="M298.057 82V73.2727H303.29V74.2102H299.114V77.1591H302.898V78.0966H299.114V82H298.057ZM305.1 82V73.2727H308.049C308.73 73.2727 309.29 73.3892 309.728 73.6222C310.165 73.8523 310.489 74.169 310.699 74.5724C310.909 74.9759 311.015 75.4347 311.015 75.9489C311.015 76.4631 310.909 76.919 310.699 77.3168C310.489 77.7145 310.167 78.027 309.732 78.2543C309.297 78.4787 308.742 78.5909 308.066 78.5909H305.679V77.6364H308.032C308.498 77.6364 308.873 77.5682 309.157 77.4318C309.444 77.2955 309.651 77.1023 309.779 76.8523C309.909 76.5994 309.975 76.2983 309.975 75.9489C309.975 75.5994 309.909 75.294 309.779 75.0327C309.648 74.7713 309.439 74.5696 309.152 74.4276C308.865 74.2827 308.486 74.2102 308.015 74.2102H306.157V82H305.1ZM309.208 78.0795L311.355 82H310.128L308.015 78.0795H309.208ZM313.832 73.2727V82H312.776V73.2727H313.832Z" fill="black"/>
<path d="M305.736 135.539C305.152 135.539 304.627 135.423 304.16 135.191C303.692 134.959 303.318 134.641 303.036 134.237C302.754 133.832 302.6 133.372 302.574 132.855H303.767C303.813 133.315 304.022 133.696 304.393 133.998C304.768 134.296 305.215 134.445 305.736 134.445C306.153 134.445 306.525 134.348 306.849 134.152C307.178 133.957 307.434 133.688 307.62 133.347C307.809 133.002 307.903 132.613 307.903 132.178C307.903 131.734 307.806 131.338 307.61 130.99C307.418 130.639 307.153 130.362 306.815 130.16C306.477 129.958 306.09 129.855 305.656 129.852C305.345 129.848 305.025 129.896 304.697 129.996C304.369 130.092 304.098 130.216 303.886 130.369L302.733 130.23L303.349 125.218H308.639V126.312H304.384L304.026 129.315H304.085C304.294 129.149 304.556 129.012 304.871 128.902C305.186 128.793 305.514 128.738 305.855 128.738C306.478 128.738 307.033 128.887 307.521 129.186C308.011 129.481 308.396 129.885 308.674 130.399C308.956 130.912 309.097 131.499 309.097 132.159C309.097 132.808 308.951 133.388 308.659 133.899C308.371 134.406 307.973 134.807 307.466 135.102C306.959 135.393 306.382 135.539 305.736 135.539Z" fill="black"/>
<path d="M303.134 178.618V188.8H301.901V179.911H301.841L299.355 181.561V180.309L301.901 178.618H303.134ZM306.062 188.8V187.905L309.423 184.226C309.817 183.795 310.142 183.421 310.397 183.103C310.652 182.781 310.841 182.479 310.964 182.198C311.09 181.913 311.153 181.614 311.153 181.303C311.153 180.945 311.067 180.635 310.894 180.373C310.725 180.111 310.493 179.909 310.198 179.767C309.903 179.624 309.572 179.553 309.204 179.553C308.813 179.553 308.471 179.634 308.18 179.796C307.891 179.956 307.668 180.179 307.509 180.468C307.353 180.756 307.275 181.094 307.275 181.482H306.102C306.102 180.885 306.239 180.362 306.514 179.911C306.789 179.46 307.164 179.109 307.638 178.857C308.115 178.605 308.65 178.479 309.244 178.479C309.84 178.479 310.369 178.605 310.83 178.857C311.29 179.109 311.652 179.448 311.913 179.876C312.175 180.304 312.306 180.779 312.306 181.303C312.306 181.677 312.238 182.044 312.102 182.402C311.97 182.756 311.738 183.152 311.406 183.59C311.078 184.024 310.622 184.554 310.039 185.181L307.752 187.627V187.706H312.485V188.8H306.062Z" fill="black"/>
<path d="M302.634 232.018V242.2H301.401V233.311H301.341L298.855 234.961V233.709L301.401 232.018H302.634ZM308.803 231.879C309.221 231.882 309.638 231.962 310.056 232.118C310.474 232.273 310.855 232.532 311.2 232.893C311.544 233.251 311.821 233.74 312.03 234.36C312.239 234.98 312.343 235.757 312.343 236.691C312.343 237.596 312.257 238.4 312.085 239.103C311.915 239.802 311.67 240.392 311.349 240.873C311.031 241.353 310.643 241.718 310.185 241.966C309.731 242.215 309.218 242.339 308.644 242.339C308.074 242.339 307.565 242.227 307.118 242.001C306.674 241.772 306.309 241.456 306.024 241.052C305.742 240.644 305.562 240.172 305.482 239.635H306.695C306.805 240.102 307.022 240.488 307.347 240.793C307.675 241.095 308.107 241.245 308.644 241.245C309.43 241.245 310.049 240.902 310.504 240.216C310.961 239.53 311.19 238.561 311.19 237.308H311.11C310.924 237.586 310.704 237.827 310.449 238.029C310.194 238.231 309.91 238.387 309.599 238.496C309.287 238.606 308.956 238.66 308.604 238.66C308.021 238.66 307.486 238.516 306.999 238.228C306.515 237.936 306.127 237.537 305.835 237.03C305.547 236.519 305.403 235.936 305.403 235.28C305.403 234.656 305.542 234.086 305.82 233.569C306.102 233.049 306.496 232.635 307.004 232.326C307.514 232.018 308.114 231.869 308.803 231.879ZM308.803 232.973C308.386 232.973 308.009 233.077 307.675 233.286C307.343 233.491 307.08 233.77 306.884 234.121C306.692 234.469 306.596 234.855 306.596 235.28C306.596 235.704 306.689 236.09 306.874 236.438C307.063 236.783 307.32 237.058 307.645 237.263C307.973 237.465 308.346 237.566 308.763 237.566C309.078 237.566 309.372 237.505 309.643 237.383C309.915 237.257 310.152 237.086 310.354 236.87C310.56 236.652 310.721 236.405 310.837 236.13C310.953 235.851 311.011 235.561 311.011 235.26C311.011 234.862 310.915 234.489 310.722 234.141C310.533 233.793 310.272 233.511 309.937 233.296C309.605 233.08 309.228 232.973 308.803 232.973Z" fill="black"/>
<path d="M298.054 295.6V294.705L301.415 291.026C301.809 290.595 302.134 290.221 302.389 289.903C302.644 289.581 302.833 289.279 302.956 288.998C303.082 288.713 303.145 288.414 303.145 288.103C303.145 287.745 303.059 287.435 302.886 287.173C302.717 286.911 302.485 286.709 302.19 286.567C301.895 286.424 301.564 286.353 301.196 286.353C300.805 286.353 300.464 286.434 300.172 286.596C299.884 286.756 299.66 286.979 299.501 287.268C299.345 287.556 299.267 287.894 299.267 288.282H298.094C298.094 287.685 298.231 287.162 298.506 286.711C298.781 286.26 299.156 285.909 299.63 285.657C300.107 285.405 300.643 285.279 301.236 285.279C301.832 285.279 302.361 285.405 302.822 285.657C303.282 285.909 303.644 286.248 303.906 286.676C304.167 287.104 304.298 287.579 304.298 288.103C304.298 288.477 304.23 288.844 304.094 289.202C303.962 289.556 303.73 289.952 303.398 290.39C303.07 290.824 302.615 291.354 302.031 291.981L299.744 294.427V294.506H304.477V295.6H298.054ZM309.911 295.739C309.494 295.733 309.076 295.653 308.658 295.501C308.241 295.348 307.86 295.091 307.515 294.73C307.17 294.365 306.893 293.873 306.685 293.253C306.476 292.63 306.371 291.848 306.371 290.907C306.371 290.005 306.456 289.207 306.625 288.51C306.794 287.811 307.039 287.223 307.361 286.746C307.682 286.265 308.07 285.9 308.524 285.652C308.982 285.403 309.497 285.279 310.07 285.279C310.64 285.279 311.147 285.393 311.592 285.622C312.039 285.847 312.404 286.162 312.685 286.567C312.967 286.971 313.149 287.437 313.232 287.964H312.019C311.906 287.506 311.688 287.127 311.363 286.825C311.038 286.524 310.607 286.373 310.07 286.373C309.281 286.373 308.66 286.716 308.206 287.402C307.755 288.088 307.528 289.051 307.525 290.29H307.604C307.79 290.009 308.01 289.768 308.266 289.569C308.524 289.367 308.809 289.211 309.121 289.102C309.432 288.993 309.762 288.938 310.11 288.938C310.693 288.938 311.227 289.084 311.711 289.376C312.195 289.664 312.583 290.063 312.874 290.574C313.166 291.081 313.312 291.662 313.312 292.319C313.312 292.948 313.171 293.525 312.889 294.049C312.607 294.569 312.211 294.983 311.701 295.292C311.194 295.597 310.597 295.746 309.911 295.739ZM309.911 294.645C310.329 294.645 310.703 294.541 311.035 294.332C311.37 294.123 311.633 293.843 311.825 293.492C312.021 293.141 312.119 292.75 312.119 292.319C312.119 291.898 312.024 291.515 311.835 291.17C311.65 290.822 311.393 290.546 311.065 290.34C310.74 290.135 310.369 290.032 309.951 290.032C309.636 290.032 309.343 290.095 309.071 290.221C308.799 290.343 308.561 290.512 308.355 290.728C308.153 290.943 307.994 291.19 307.878 291.469C307.762 291.744 307.704 292.034 307.704 292.339C307.704 292.743 307.798 293.121 307.987 293.472C308.179 293.823 308.441 294.107 308.773 294.322C309.107 294.538 309.487 294.645 309.911 294.645Z" fill="black"/>
<path opacity="0.5" d="M302.554 349V348.105L305.915 344.426C306.309 343.995 306.634 343.621 306.889 343.303C307.144 342.981 307.333 342.679 307.456 342.398C307.582 342.113 307.645 341.814 307.645 341.503C307.645 341.145 307.559 340.835 307.386 340.573C307.217 340.311 306.985 340.109 306.69 339.967C306.395 339.824 306.064 339.753 305.696 339.753C305.305 339.753 304.964 339.834 304.672 339.996C304.384 340.156 304.16 340.379 304.001 340.668C303.845 340.956 303.767 341.294 303.767 341.682H302.594C302.594 341.085 302.731 340.562 303.006 340.111C303.281 339.66 303.656 339.309 304.13 339.057C304.607 338.805 305.143 338.679 305.736 338.679C306.332 338.679 306.861 338.805 307.322 339.057C307.782 339.309 308.144 339.648 308.406 340.076C308.667 340.504 308.798 340.979 308.798 341.503C308.798 341.877 308.73 342.244 308.594 342.602C308.462 342.956 308.23 343.352 307.898 343.79C307.57 344.224 307.115 344.754 306.531 345.381L304.244 347.827V347.906H308.977V349H302.554Z" fill="black"/>
<path opacity="0.5" d="M363.33 75.4545C363.278 75.0227 363.071 74.6875 362.707 74.4489C362.344 74.2102 361.898 74.0909 361.369 74.0909C360.983 74.0909 360.645 74.1534 360.355 74.2784C360.068 74.4034 359.844 74.5753 359.682 74.794C359.523 75.0128 359.443 75.2614 359.443 75.5398C359.443 75.7727 359.499 75.973 359.609 76.1406C359.723 76.3054 359.868 76.4432 360.044 76.554C360.22 76.6619 360.405 76.7514 360.598 76.8224C360.791 76.8906 360.969 76.946 361.131 76.9886L362.017 77.2273C362.244 77.2869 362.497 77.3693 362.776 77.4744C363.057 77.5795 363.325 77.723 363.581 77.9048C363.839 78.0838 364.053 78.3139 364.22 78.5952C364.388 78.8764 364.472 79.2216 364.472 79.6307C364.472 80.1023 364.348 80.5284 364.101 80.9091C363.857 81.2898 363.499 81.5923 363.027 81.8168C362.558 82.0412 361.989 82.1534 361.318 82.1534C360.693 82.1534 360.152 82.0526 359.695 81.8509C359.24 81.6491 358.882 81.3679 358.621 81.0071C358.362 80.6463 358.216 80.2273 358.182 79.75H359.273C359.301 80.0795 359.412 80.3523 359.605 80.5682C359.801 80.7812 360.048 80.9403 360.347 81.0455C360.648 81.1477 360.972 81.1989 361.318 81.1989C361.722 81.1989 362.084 81.1335 362.405 81.0028C362.726 80.8693 362.98 80.6847 363.168 80.4489C363.355 80.2102 363.449 79.9318 363.449 79.6136C363.449 79.3239 363.368 79.0881 363.206 78.9062C363.044 78.7244 362.831 78.5767 362.567 78.4631C362.303 78.3494 362.017 78.25 361.71 78.1648L360.636 77.858C359.955 77.6619 359.415 77.3821 359.017 77.0185C358.619 76.6548 358.42 76.179 358.42 75.5909C358.42 75.1023 358.553 74.6761 358.817 74.3125C359.084 73.946 359.442 73.6619 359.891 73.4602C360.342 73.2557 360.847 73.1534 361.403 73.1534C361.966 73.1534 362.466 73.2543 362.903 73.456C363.341 73.6548 363.688 73.9276 363.943 74.2741C364.202 74.6207 364.338 75.0142 364.352 75.4545H363.33ZM366.567 82H365.459L368.664 73.2727H369.755L372.959 82H371.851L369.243 74.6534H369.175L366.567 82ZM366.976 78.5909H371.442V79.5284H366.976V78.5909ZM372.822 74.2102V73.2727H379.367V74.2102H376.623V82H375.566V74.2102H372.822Z" fill="black"/>
<path d="M368.935 135.539C368.517 135.533 368.099 135.453 367.682 135.301C367.264 135.148 366.883 134.891 366.538 134.53C366.194 134.165 365.917 133.673 365.708 133.053C365.499 132.43 365.395 131.648 365.395 130.707C365.395 129.805 365.479 129.007 365.648 128.311C365.817 127.611 366.063 127.023 366.384 126.546C366.706 126.065 367.094 125.7 367.548 125.452C368.005 125.203 368.52 125.079 369.094 125.079C369.664 125.079 370.171 125.193 370.615 125.422C371.063 125.647 371.427 125.962 371.709 126.367C371.991 126.771 372.173 127.237 372.256 127.764H371.043C370.93 127.306 370.711 126.927 370.386 126.625C370.062 126.324 369.631 126.173 369.094 126.173C368.305 126.173 367.683 126.516 367.229 127.202C366.779 127.888 366.552 128.851 366.548 130.09H366.628C366.813 129.809 367.034 129.568 367.289 129.369C367.548 129.167 367.833 129.012 368.144 128.902C368.456 128.793 368.786 128.738 369.134 128.738C369.717 128.738 370.25 128.884 370.734 129.176C371.218 129.464 371.606 129.863 371.898 130.374C372.189 130.881 372.335 131.463 372.335 132.119C372.335 132.749 372.194 133.325 371.913 133.849C371.631 134.369 371.235 134.784 370.724 135.092C370.217 135.397 369.621 135.546 368.935 135.539ZM368.935 134.445C369.352 134.445 369.727 134.341 370.058 134.132C370.393 133.923 370.656 133.643 370.849 133.292C371.044 132.941 371.142 132.55 371.142 132.119C371.142 131.698 371.048 131.315 370.859 130.97C370.673 130.622 370.416 130.346 370.088 130.14C369.763 129.935 369.392 129.832 368.974 129.832C368.66 129.832 368.366 129.895 368.094 130.021C367.823 130.143 367.584 130.312 367.379 130.528C367.176 130.743 367.017 130.99 366.901 131.269C366.785 131.544 366.727 131.834 366.727 132.139C366.727 132.543 366.822 132.921 367.011 133.272C367.203 133.624 367.465 133.907 367.796 134.122C368.131 134.338 368.51 134.445 368.935 134.445Z" fill="black"/>
<path d="M365.634 178.618V188.8H364.401V179.911H364.341L361.855 181.561V180.309L364.401 178.618H365.634ZM372.002 188.939C371.346 188.939 370.761 188.827 370.247 188.601C369.737 188.376 369.331 188.063 369.029 187.661C368.731 187.257 368.568 186.788 368.542 186.255H369.795C369.821 186.583 369.934 186.866 370.133 187.105C370.332 187.34 370.592 187.522 370.913 187.652C371.235 187.781 371.591 187.845 371.982 187.845C372.42 187.845 372.808 187.769 373.146 187.617C373.484 187.464 373.749 187.252 373.941 186.98C374.133 186.709 374.229 186.394 374.229 186.036C374.229 185.661 374.137 185.331 373.951 185.046C373.765 184.758 373.494 184.533 373.136 184.37C372.778 184.208 372.34 184.127 371.823 184.127H371.008V183.033H371.823C372.228 183.033 372.582 182.96 372.887 182.814C373.195 182.668 373.436 182.463 373.608 182.198C373.784 181.933 373.871 181.621 373.871 181.263C373.871 180.918 373.795 180.618 373.643 180.363C373.49 180.108 373.275 179.909 372.996 179.767C372.721 179.624 372.397 179.553 372.022 179.553C371.671 179.553 371.339 179.617 371.028 179.747C370.719 179.873 370.468 180.057 370.272 180.299C370.076 180.537 369.97 180.826 369.954 181.164H368.761C368.781 180.63 368.941 180.163 369.243 179.762C369.545 179.357 369.939 179.042 370.426 178.817C370.917 178.592 371.455 178.479 372.042 178.479C372.672 178.479 373.212 178.607 373.663 178.862C374.113 179.114 374.46 179.447 374.702 179.861C374.944 180.275 375.065 180.723 375.065 181.203C375.065 181.777 374.914 182.266 374.612 182.67C374.314 183.074 373.908 183.354 373.394 183.51V183.59C374.037 183.696 374.539 183.969 374.901 184.41C375.262 184.848 375.442 185.389 375.442 186.036C375.442 186.589 375.292 187.086 374.99 187.527C374.692 187.965 374.284 188.309 373.767 188.561C373.25 188.813 372.662 188.939 372.002 188.939Z" fill="black"/>
<path d="M361.054 242.2V241.305L364.415 237.626C364.809 237.195 365.134 236.821 365.389 236.503C365.644 236.181 365.833 235.879 365.956 235.598C366.082 235.313 366.145 235.014 366.145 234.703C366.145 234.345 366.059 234.035 365.886 233.773C365.717 233.511 365.485 233.309 365.19 233.167C364.895 233.024 364.564 232.953 364.196 232.953C363.805 232.953 363.464 233.034 363.172 233.196C362.884 233.356 362.66 233.579 362.501 233.868C362.345 234.156 362.267 234.494 362.267 234.882H361.094C361.094 234.285 361.231 233.762 361.506 233.311C361.781 232.86 362.156 232.509 362.63 232.257C363.107 232.005 363.643 231.879 364.236 231.879C364.832 231.879 365.361 232.005 365.822 232.257C366.282 232.509 366.644 232.848 366.906 233.276C367.167 233.704 367.298 234.179 367.298 234.703C367.298 235.077 367.23 235.444 367.094 235.802C366.962 236.156 366.73 236.552 366.398 236.99C366.07 237.424 365.615 237.954 365.031 238.581L362.744 241.027V241.106H367.477V242.2H361.054ZM372.852 242.339C372.103 242.339 371.464 242.135 370.938 241.728C370.411 241.317 370.008 240.722 369.729 239.943C369.451 239.161 369.312 238.216 369.312 237.109C369.312 236.009 369.451 235.069 369.729 234.29C370.011 233.508 370.415 232.911 370.942 232.5C371.473 232.086 372.109 231.879 372.852 231.879C373.594 231.879 374.229 232.086 374.756 232.5C375.286 232.911 375.69 233.508 375.969 234.29C376.25 235.069 376.391 236.009 376.391 237.109C376.391 238.216 376.252 239.161 375.974 239.943C375.695 240.722 375.293 241.317 374.766 241.728C374.239 242.135 373.601 242.339 372.852 242.339ZM372.852 241.245C373.594 241.245 374.171 240.888 374.582 240.172C374.993 239.456 375.198 238.435 375.198 237.109C375.198 236.227 375.104 235.477 374.915 234.857C374.729 234.237 374.461 233.765 374.109 233.44C373.761 233.115 373.342 232.953 372.852 232.953C372.116 232.953 371.541 233.316 371.126 234.042C370.712 234.764 370.505 235.787 370.505 237.109C370.505 237.991 370.598 238.74 370.783 239.356C370.969 239.973 371.236 240.442 371.584 240.763C371.935 241.085 372.358 241.245 372.852 241.245Z" fill="black"/>
<path d="M361.554 295.6V294.705L364.915 291.026C365.309 290.595 365.634 290.221 365.889 289.903C366.144 289.581 366.333 289.279 366.456 288.998C366.582 288.713 366.645 288.414 366.645 288.103C366.645 287.745 366.559 287.435 366.386 287.173C366.217 286.911 365.985 286.709 365.69 286.567C365.395 286.424 365.064 286.353 364.696 286.353C364.305 286.353 363.964 286.434 363.672 286.596C363.384 286.756 363.16 286.979 363.001 287.268C362.845 287.556 362.767 287.894 362.767 288.282H361.594C361.594 287.685 361.731 287.162 362.006 286.711C362.281 286.26 362.656 285.909 363.13 285.657C363.607 285.405 364.143 285.279 364.736 285.279C365.332 285.279 365.861 285.405 366.322 285.657C366.782 285.909 367.144 286.248 367.406 286.676C367.667 287.104 367.798 287.579 367.798 288.103C367.798 288.477 367.73 288.844 367.594 289.202C367.462 289.556 367.23 289.952 366.898 290.39C366.57 290.824 366.115 291.354 365.531 291.981L363.244 294.427V294.506H367.977V295.6H361.554ZM370.349 295.6L374.903 286.591V286.512H369.653V285.418H376.175V286.572L371.641 295.6H370.349Z" fill="black"/>
<path opacity="0.5" d="M368.994 349.139C368.338 349.139 367.753 349.027 367.239 348.801C366.729 348.576 366.323 348.263 366.021 347.862C365.723 347.457 365.561 346.988 365.534 346.455H366.787C366.813 346.783 366.926 347.066 367.125 347.305C367.324 347.54 367.584 347.722 367.906 347.852C368.227 347.981 368.583 348.045 368.974 348.045C369.412 348.045 369.8 347.969 370.138 347.817C370.476 347.664 370.741 347.452 370.933 347.18C371.125 346.909 371.222 346.594 371.222 346.236C371.222 345.861 371.129 345.531 370.943 345.246C370.758 344.958 370.486 344.733 370.128 344.57C369.77 344.408 369.332 344.327 368.815 344.327H368V343.233H368.815C369.22 343.233 369.574 343.16 369.879 343.014C370.188 342.868 370.428 342.663 370.6 342.398C370.776 342.133 370.864 341.821 370.864 341.463C370.864 341.118 370.787 340.818 370.635 340.563C370.482 340.308 370.267 340.109 369.989 339.967C369.714 339.824 369.389 339.753 369.014 339.753C368.663 339.753 368.331 339.817 368.02 339.947C367.712 340.073 367.46 340.257 367.264 340.499C367.069 340.737 366.963 341.026 366.946 341.364H365.753C365.773 340.83 365.933 340.363 366.235 339.962C366.537 339.557 366.931 339.242 367.418 339.017C367.909 338.792 368.447 338.679 369.034 338.679C369.664 338.679 370.204 338.807 370.655 339.062C371.106 339.314 371.452 339.647 371.694 340.061C371.936 340.475 372.057 340.923 372.057 341.403C372.057 341.977 371.906 342.466 371.604 342.87C371.306 343.274 370.9 343.554 370.386 343.71V343.79C371.029 343.896 371.531 344.169 371.893 344.61C372.254 345.048 372.435 345.589 372.435 346.236C372.435 346.789 372.284 347.286 371.982 347.727C371.684 348.165 371.276 348.509 370.759 348.761C370.242 349.013 369.654 349.139 368.994 349.139Z" fill="black"/>
<path opacity="0.5" d="M428.83 75.4545C428.778 75.0227 428.571 74.6875 428.207 74.4489C427.844 74.2102 427.398 74.0909 426.869 74.0909C426.483 74.0909 426.145 74.1534 425.855 74.2784C425.568 74.4034 425.344 74.5753 425.182 74.794C425.023 75.0128 424.943 75.2614 424.943 75.5398C424.943 75.7727 424.999 75.973 425.109 76.1406C425.223 76.3054 425.368 76.4432 425.544 76.554C425.72 76.6619 425.905 76.7514 426.098 76.8224C426.291 76.8906 426.469 76.946 426.631 76.9886L427.517 77.2273C427.744 77.2869 427.997 77.3693 428.276 77.4744C428.557 77.5795 428.825 77.723 429.081 77.9048C429.339 78.0838 429.553 78.3139 429.72 78.5952C429.888 78.8764 429.972 79.2216 429.972 79.6307C429.972 80.1023 429.848 80.5284 429.601 80.9091C429.357 81.2898 428.999 81.5923 428.527 81.8168C428.058 82.0412 427.489 82.1534 426.818 82.1534C426.193 82.1534 425.652 82.0526 425.195 81.8509C424.74 81.6491 424.382 81.3679 424.121 81.0071C423.862 80.6463 423.716 80.2273 423.682 79.75H424.773C424.801 80.0795 424.912 80.3523 425.105 80.5682C425.301 80.7812 425.548 80.9403 425.847 81.0455C426.148 81.1477 426.472 81.1989 426.818 81.1989C427.222 81.1989 427.584 81.1335 427.905 81.0028C428.226 80.8693 428.48 80.6847 428.668 80.4489C428.855 80.2102 428.949 79.9318 428.949 79.6136C428.949 79.3239 428.868 79.0881 428.706 78.9062C428.544 78.7244 428.331 78.5767 428.067 78.4631C427.803 78.3494 427.517 78.25 427.21 78.1648L426.136 77.858C425.455 77.6619 424.915 77.3821 424.517 77.0185C424.119 76.6548 423.92 76.179 423.92 75.5909C423.92 75.1023 424.053 74.6761 424.317 74.3125C424.584 73.946 424.942 73.6619 425.391 73.4602C425.842 73.2557 426.347 73.1534 426.903 73.1534C427.466 73.1534 427.966 73.2543 428.403 73.456C428.841 73.6548 429.188 73.9276 429.443 74.2741C429.702 74.6207 429.838 75.0142 429.852 75.4545H428.83ZM437.436 73.2727H438.493V79.0511C438.493 79.6477 438.353 80.1804 438.071 80.6491C437.793 81.1151 437.4 81.483 436.891 81.7528C436.382 82.0199 435.786 82.1534 435.101 82.1534C434.417 82.1534 433.82 82.0199 433.311 81.7528C432.803 81.483 432.408 81.1151 432.127 80.6491C431.848 80.1804 431.709 79.6477 431.709 79.0511V73.2727H432.766V78.9659C432.766 79.392 432.86 79.7713 433.047 80.1037C433.235 80.4332 433.502 80.6932 433.848 80.8835C434.198 81.071 434.615 81.1648 435.101 81.1648C435.587 81.1648 436.005 81.071 436.354 80.8835C436.703 80.6932 436.971 80.4332 437.155 80.1037C437.343 79.7713 437.436 79.392 437.436 78.9659V73.2727ZM447.524 73.2727V82H446.501L441.746 75.1477H441.661V82H440.604V73.2727H441.626L446.399 80.142H446.484V73.2727H447.524Z" fill="black"/>
<path d="M433.372 135.4L437.926 126.392V126.312H432.676V125.218H439.199V126.372L434.665 135.4H433.372Z" fill="black"/>
<path d="M432.634 178.618V188.8H431.401V179.911H431.341L428.855 181.561V180.309L431.401 178.618H432.634ZM435.323 186.712V185.698L439.798 178.618H440.533V180.189H440.036L436.656 185.539V185.618H442.681V186.712H435.323ZM440.116 188.8V186.404V185.931V178.618H441.289V188.8H440.116Z" fill="black"/>
<path d="M429.554 242.2V241.305L432.915 237.626C433.309 237.195 433.634 236.821 433.889 236.503C434.144 236.181 434.333 235.879 434.456 235.598C434.582 235.313 434.645 235.014 434.645 234.703C434.645 234.345 434.559 234.035 434.386 233.773C434.217 233.511 433.985 233.309 433.69 233.167C433.395 233.024 433.064 232.953 432.696 232.953C432.305 232.953 431.964 233.034 431.672 233.196C431.384 233.356 431.16 233.579 431.001 233.868C430.845 234.156 430.767 234.494 430.767 234.882H429.594C429.594 234.285 429.731 233.762 430.006 233.311C430.281 232.86 430.656 232.509 431.13 232.257C431.607 232.005 432.143 231.879 432.736 231.879C433.332 231.879 433.861 232.005 434.322 232.257C434.782 232.509 435.144 232.848 435.406 233.276C435.667 233.704 435.798 234.179 435.798 234.703C435.798 235.077 435.73 235.444 435.594 235.802C435.462 236.156 435.23 236.552 434.898 236.99C434.57 237.424 434.115 237.954 433.531 238.581L431.244 241.027V241.106H435.977V242.2H429.554ZM441.61 232.018V242.2H440.377V233.311H440.317L437.832 234.961V233.709L440.377 232.018H441.61Z" fill="black"/>
<path d="M428.054 295.6V294.705L431.415 291.026C431.809 290.595 432.134 290.221 432.389 289.903C432.644 289.581 432.833 289.279 432.956 288.998C433.082 288.713 433.145 288.414 433.145 288.103C433.145 287.745 433.059 287.435 432.886 287.173C432.717 286.911 432.485 286.709 432.19 286.567C431.895 286.424 431.564 286.353 431.196 286.353C430.805 286.353 430.464 286.434 430.172 286.596C429.884 286.756 429.66 286.979 429.501 287.268C429.345 287.556 429.267 287.894 429.267 288.282H428.094C428.094 287.685 428.231 287.162 428.506 286.711C428.781 286.26 429.156 285.909 429.63 285.657C430.107 285.405 430.643 285.279 431.236 285.279C431.832 285.279 432.361 285.405 432.822 285.657C433.282 285.909 433.644 286.248 433.906 286.676C434.167 287.104 434.298 287.579 434.298 288.103C434.298 288.477 434.23 288.844 434.094 289.202C433.962 289.556 433.73 289.952 433.398 290.39C433.07 290.824 432.615 291.354 432.031 291.981L429.744 294.427V294.506H434.477V295.6H428.054ZM439.792 295.739C439.109 295.739 438.506 295.618 437.982 295.376C437.462 295.131 437.056 294.795 436.764 294.367C436.473 293.936 436.328 293.446 436.332 292.895C436.328 292.465 436.413 292.067 436.585 291.702C436.758 291.334 436.993 291.028 437.291 290.783C437.593 290.534 437.929 290.376 438.3 290.31V290.251C437.813 290.125 437.425 289.851 437.137 289.43C436.849 289.006 436.706 288.524 436.71 287.983C436.706 287.466 436.837 287.004 437.102 286.596C437.367 286.189 437.732 285.867 438.196 285.632C438.663 285.397 439.195 285.279 439.792 285.279C440.382 285.279 440.909 285.397 441.373 285.632C441.837 285.867 442.201 286.189 442.467 286.596C442.735 287.004 442.871 287.466 442.874 287.983C442.871 288.524 442.723 289.006 442.432 289.43C442.143 289.851 441.761 290.125 441.283 290.251V290.31C441.651 290.376 441.983 290.534 442.278 290.783C442.573 291.028 442.808 291.334 442.984 291.702C443.159 292.067 443.249 292.465 443.252 292.895C443.249 293.446 443.1 293.936 442.805 294.367C442.513 294.795 442.107 295.131 441.587 295.376C441.07 295.618 440.471 295.739 439.792 295.739ZM439.792 294.645C440.253 294.645 440.65 294.571 440.985 294.422C441.32 294.273 441.578 294.062 441.761 293.79C441.943 293.519 442.036 293.2 442.039 292.836C442.036 292.451 441.936 292.112 441.741 291.817C441.545 291.522 441.278 291.29 440.94 291.121C440.606 290.952 440.223 290.867 439.792 290.867C439.358 290.867 438.97 290.952 438.629 291.121C438.29 291.29 438.024 291.522 437.828 291.817C437.636 292.112 437.541 292.451 437.545 292.836C437.541 293.2 437.629 293.519 437.808 293.79C437.991 294.062 438.251 294.273 438.589 294.422C438.927 294.571 439.328 294.645 439.792 294.645ZM439.792 289.813C440.156 289.813 440.48 289.74 440.761 289.594C441.046 289.448 441.27 289.245 441.433 288.983C441.595 288.721 441.678 288.414 441.681 288.063C441.678 287.718 441.597 287.418 441.438 287.163C441.278 286.905 441.058 286.706 440.776 286.567C440.495 286.424 440.166 286.353 439.792 286.353C439.411 286.353 439.078 286.424 438.793 286.567C438.508 286.706 438.287 286.905 438.131 287.163C437.976 287.418 437.899 287.718 437.903 288.063C437.899 288.414 437.977 288.721 438.136 288.983C438.299 289.245 438.522 289.448 438.808 289.594C439.093 289.74 439.421 289.813 439.792 289.813Z" fill="black"/>
<path opacity="0.5" d="M432.315 346.912V345.898L436.79 338.818H437.526V340.389H437.028L433.648 345.739V345.818H439.673V346.912H432.315ZM437.108 349V346.604V346.131V338.818H438.281V349H437.108Z" fill="black"/>
<rect x="96" y="144" width="262" height="9" rx="4.5" fill="#FA897B"/>
<rect x="29" y="203" width="135" height="9" rx="4.5" fill="#FFCE85"/>
<rect x="233" y="307" width="195" height="9" rx="4.5" fill="#C4AFFF"/>
</svg>
