<svg width="491" height="263" viewBox="0 0 491 263" fill="none" xmlns="http://www.w3.org/2000/svg">
<g filter="url(#filter0_d_1617_2)">
<path d="M4 10C4 4.47715 8.47715 0 14 0H477C482.523 0 487 4.47715 487 10V245C487 250.523 482.523 255 477 255H14C8.47714 255 4 250.523 4 245V10Z" fill="#D6E2FF"/>
<rect x="178" y="109" width="135" height="38" rx="14" fill="white" fill-opacity="0.2" stroke="#4295F5" stroke-width="2"/>
<path d="M220.8 121.288V121.432C220.8 125.384 219.264 128.6 214.8 130.84L215.552 131.864C220.64 129.304 222.08 125.464 222.08 121.288H220.8ZM215.584 121.288V122.36H221.6V121.288H215.584ZM220.72 124.872L214.848 125.256L215.072 126.408L220.72 125.88V124.872ZM225.36 119.784V134.248H226.688V119.784H225.36ZM222.048 125.576V126.68H226V125.576H222.048ZM240.111 119.768V134.264H241.423V119.768H240.111ZM236.287 125.144V126.232H240.495V125.144H236.287ZM230.095 120.92V130.632H236.735V120.92H235.423V124.68H231.407V120.92H230.095ZM231.407 125.736H235.423V129.528H231.407V125.736ZM255.634 122.44V123.512H259.81V122.44H255.634ZM255.634 125.56V126.632H259.842V125.56H255.634ZM259.298 119.8V130.504H260.626V119.8H259.298ZM251.33 132.84V133.928H260.978V132.84H251.33ZM251.33 129.464V133.4H252.658V129.464H251.33ZM249.442 120.744V128.04H255.97V120.744H254.674V123.304H250.754V120.744H249.442ZM250.754 124.344H254.674V126.952H250.754V124.344ZM270.368 122.44V123.528H274.24V122.44H270.368ZM270.24 125.448V126.536H274.144V125.448H270.24ZM274.016 119.784V128.456H275.344V119.784H274.016ZM269.488 120.872V121.448C269.488 124.184 267.328 126.312 263.632 127.384L264.176 128.456C268.336 127.208 270.912 124.6 270.912 120.872H269.488ZM264.384 120.872V121.96H270.4V120.872H264.384ZM270.64 128.616C267.712 128.616 265.856 129.656 265.856 131.4C265.856 133.144 267.712 134.184 270.64 134.184C273.568 134.184 275.424 133.144 275.424 131.4C275.424 129.656 273.568 128.616 270.64 128.616ZM270.64 129.656C272.768 129.656 274.128 130.312 274.128 131.4C274.128 132.488 272.768 133.128 270.64 133.128C268.528 133.128 267.168 132.488 267.168 131.4C267.168 130.312 268.528 129.656 270.64 129.656Z" fill="#4295F5"/>
</g>
<defs>
<filter id="filter0_d_1617_2" x="0" y="0" width="491" height="263" filterUnits="userSpaceOnUse" color-interpolation-filters="sRGB">
<feFlood flood-opacity="0" result="BackgroundImageFix"/>
<feColorMatrix in="SourceAlpha" type="matrix" values="0 0 0 0 0 0 0 0 0 0 0 0 0 0 0 0 0 0 127 0" result="hardAlpha"/>
<feOffset dy="4"/>
<feGaussianBlur stdDeviation="2"/>
<feComposite in2="hardAlpha" operator="out"/>
<feColorMatrix type="matrix" values="0 0 0 0 0 0 0 0 0 0 0 0 0 0 0 0 0 0 0.25 0"/>
<feBlend mode="normal" in2="BackgroundImageFix" result="effect1_dropShadow_1617_2"/>
<feBlend mode="normal" in="SourceGraphic" in2="effect1_dropShadow_1617_2" result="shape"/>
</filter>
</defs>
</svg>
