<svg width="374" height="527" viewBox="0 0 374 527" fill="none" xmlns="http://www.w3.org/2000/svg">
<rect width="374" height="527" rx="30" fill="white"/>
<path d="M44.08 21.86V36.86H48.07V21.86H44.08ZM46.48 27.8V31.04H51.76V27.8H46.48ZM29.71 37.97V40.85H44.14V42.32H29.77V47.54H33.73V45.02H48.07V37.97H29.71ZM29.77 46.55V49.49H48.88V46.55H29.77ZM26.2 23.93V26.93H42.55V23.93H26.2ZM34.39 27.59C30.25 27.59 27.55 29.36 27.55 32.15C27.55 34.94 30.25 36.65 34.39 36.65C38.5 36.65 41.2 34.94 41.2 32.15C41.2 29.36 38.5 27.59 34.39 27.59ZM34.39 30.38C36.25 30.38 37.39 30.98 37.39 32.15C37.39 33.26 36.25 33.86 34.39 33.86C32.53 33.86 31.39 33.26 31.39 32.15C31.39 30.98 32.53 30.38 34.39 30.38ZM32.38 21.68V26.06H36.37V21.68H32.38ZM68.571 22.7C64.341 22.7 61.161 25.34 61.161 29.06C61.161 32.75 64.341 35.39 68.571 35.39C72.801 35.39 75.981 32.75 75.981 29.06C75.981 25.34 72.801 22.7 68.571 22.7ZM68.571 25.94C70.611 25.94 72.111 27.08 72.111 29.06C72.111 31.04 70.611 32.18 68.571 32.18C66.531 32.18 65.001 31.04 65.001 29.06C65.001 27.08 66.531 25.94 68.571 25.94ZM79.821 21.89V35.78H83.841V21.89H79.821ZM65.301 36.92V40.01H79.881V41.66H65.361V47.9H69.261V44.54H83.841V36.92H65.301ZM65.361 46.28V49.37H84.531V46.28H65.361Z" fill="#9D7BFE"/>
<rect x="22" y="163" width="330" height="54" fill="#EAE2FF"/>
<circle cx="52.5" cy="189.5" r="10.5" stroke="#C4AFFF" stroke-width="4"/>
<circle cx="52.5" cy="189.5" r="6.5" fill="#C4AFFF"/>
<rect x="22" y="217" width="330" height="54" fill="white"/>
<circle cx="52.5" cy="243.5" r="10.5" stroke="#C4AFFF" stroke-width="4"/>
<rect x="22" y="271" width="330" height="54" fill="white"/>
<circle cx="52.5" cy="297.5" r="10.5" stroke="#C4AFFF" stroke-width="4"/>
<rect x="22" y="325" width="330" height="54" fill="white"/>
<circle cx="52.5" cy="351.5" r="10.5" stroke="#C4AFFF" stroke-width="4"/>
<rect x="22" y="381" width="330" height="54" fill="#EAE2FF" fill-opacity="0.46"/>
<circle cx="52.5" cy="407.5" r="10.5" stroke="#C4AFFF" stroke-width="4"/>
<circle cx="52.5" cy="407.5" r="6.5" fill="#C4AFFF"/>
<rect x="22" y="435" width="330" height="54" fill="white"/>
<circle cx="52.5" cy="461.5" r="10.5" stroke="#C4AFFF" stroke-width="4"/>
<rect x="22" y="80" width="330" height="54" rx="20" fill="#C4AFFF" fill-opacity="0.5"/>
<path d="M53.36 97.42V107.4H55.02V97.42H53.36ZM54.32 101.76V103.16H57.7V101.76H54.32ZM43.54 108.32V109.58H53.4V111.16H43.58V114.56H45.22V112.36H55.02V108.32H43.54ZM43.58 114.08V115.36H55.68V114.08H43.58ZM41.04 99.1V100.4H51.72V99.1H41.04ZM46.38 101.2C43.74 101.2 42.04 102.34 42.04 104.18C42.04 106 43.74 107.12 46.38 107.12C48.98 107.12 50.7 106 50.7 104.18C50.7 102.34 48.98 101.2 46.38 101.2ZM46.38 102.42C48.04 102.42 49.12 103.1 49.12 104.18C49.12 105.24 48.04 105.92 46.38 105.92C44.7 105.92 43.62 105.24 43.62 104.18C43.62 103.1 44.7 102.42 46.38 102.42ZM45.54 97.28V100H47.2V97.28H45.54ZM70.0834 98.14C67.4034 98.14 65.4234 99.78 65.4234 102.16C65.4234 104.52 67.4034 106.16 70.0834 106.16C72.7834 106.16 74.7634 104.52 74.7634 102.16C74.7634 99.78 72.7834 98.14 70.0834 98.14ZM70.0834 99.5C71.8434 99.5 73.1434 100.6 73.1434 102.16C73.1434 103.72 71.8434 104.8 70.0834 104.8C68.3434 104.8 67.0234 103.72 67.0234 102.16C67.0234 100.6 68.3434 99.5 70.0834 99.5ZM78.1634 97.48V106.74H79.8434V97.48H78.1634ZM68.1434 107.62V108.96H78.2034V110.78H68.1834V114.74H69.8034V112.02H79.8434V107.62H68.1434ZM68.1834 114V115.32H80.4434V114H68.1834ZM91.5819 97.78C87.5819 97.78 85.2219 98.9 85.2219 100.92C85.2219 102.94 87.5819 104.06 91.5819 104.06C95.5619 104.06 97.9419 102.94 97.9419 100.92C97.9419 98.9 95.5619 97.78 91.5819 97.78ZM91.5819 99.04C94.5219 99.04 96.2219 99.72 96.2219 100.92C96.2219 102.12 94.5219 102.8 91.5819 102.8C88.6219 102.8 86.9219 102.12 86.9219 100.92C86.9219 99.72 88.6219 99.04 91.5819 99.04ZM83.4019 105.26V106.6H99.7419V105.26H83.4019ZM85.3819 108.14V109.42H96.0219V111.02H85.4219V114.42H87.0619V112.22H97.6619V108.14H85.3819ZM85.4219 114.06V115.36H98.2019V114.06H85.4219ZM114.785 108.98V115.58H116.425V108.98H114.785ZM107.445 108.4V109.78H123.785V108.4H107.445ZM114.765 100.58V101.04C114.765 103.3 111.725 105.28 108.465 105.72L109.045 107.04C112.845 106.46 116.225 104.16 116.225 101.04V100.58H114.765ZM114.985 100.58V101.04C114.985 104.12 118.345 106.48 122.125 107.04L122.725 105.72C119.485 105.28 116.425 103.28 116.425 101.04V100.58H114.985ZM109.025 99.7V101.06H122.205V99.7H109.025ZM114.785 97.48V100.18H116.425V97.48H114.785ZM138.064 97.46V115.56H139.744V97.46H138.064ZM139.284 104.8V106.18H142.624V104.8H139.284ZM133.444 99.42V99.68C133.444 104.46 130.944 108.32 125.944 110.86L126.864 112.14C132.704 109.2 135.064 104.56 135.064 99.42H133.444ZM126.784 99.42V100.78H134.304V99.42H126.784ZM144.202 100.56V101.92H153.162V100.56H144.202ZM148.682 103.12C146.442 103.12 144.802 104.82 144.802 107.26C144.802 109.68 146.442 111.38 148.682 111.38C150.942 111.38 152.582 109.68 152.582 107.26C152.582 104.82 150.942 103.12 148.682 103.12ZM148.682 104.54C150.082 104.54 151.102 105.66 151.102 107.26C151.102 108.86 150.082 109.98 148.682 109.98C147.302 109.98 146.302 108.86 146.302 107.26C146.302 105.66 147.302 104.54 148.682 104.54ZM157.942 97.48V115.56H159.542V97.48H157.942ZM155.062 105.08V106.46H158.482V105.08H155.062ZM154.082 97.88V114.68H155.642V97.88H154.082ZM147.882 98V101.4H149.522V98H147.882ZM169.881 99.26V100.02C169.881 102.4 166.781 104.48 163.601 104.94L164.241 106.26C167.881 105.64 171.321 103.26 171.321 100.02V99.26H169.881ZM170.301 99.26V100.02C170.301 103.26 173.721 105.64 177.381 106.26L178.001 104.94C174.841 104.48 171.721 102.4 171.721 100.02V99.26H170.301ZM169.941 108.66V115.56H171.581V108.66H169.941ZM162.641 107.78V109.14H178.981V107.78H162.641ZM164.161 98.6V99.94H177.401V98.6H164.161ZM188.159 103.94V105.32H191.619V103.94H188.159ZM184.779 99.18V102.62C184.779 105.72 183.299 108.96 180.819 110.42L181.859 111.68C184.499 110.06 186.079 106.4 186.079 102.62V99.18H184.779ZM185.099 99.18V102.56C185.099 106.08 186.559 109.68 189.159 111.28L190.119 109.98C187.739 108.54 186.379 105.46 186.379 102.56V99.18H185.099ZM194.799 97.48V115.56H196.399V97.48H194.799ZM191.139 97.86V114.66H192.699V97.86H191.139ZM203.438 106.78V112.2H205.078V106.78H203.438ZM210.118 106.78V112.2H211.778V106.78H210.118ZM199.438 111.88V113.26H215.818V111.88H199.438ZM207.598 98.62C203.758 98.62 201.018 100.44 201.018 103.28C201.018 106.1 203.758 107.92 207.598 107.92C211.418 107.92 214.158 106.1 214.158 103.28C214.158 100.44 211.418 98.62 207.598 98.62ZM207.598 99.94C210.498 99.94 212.558 101.26 212.558 103.28C212.558 105.28 210.498 106.6 207.598 106.6C204.698 106.6 202.618 105.28 202.618 103.28C202.618 101.26 204.698 99.94 207.598 99.94ZM220.586 99.4545L220.444 109.909H218.796L218.654 99.4545H220.586ZM219.62 114.114C219.27 114.114 218.969 113.988 218.718 113.737C218.467 113.486 218.342 113.186 218.342 112.835C218.342 112.485 218.467 112.184 218.718 111.933C218.969 111.682 219.27 111.557 219.62 111.557C219.97 111.557 220.271 111.682 220.522 111.933C220.773 112.184 220.898 112.485 220.898 112.835C220.898 113.067 220.839 113.28 220.721 113.474C220.607 113.669 220.453 113.825 220.259 113.943C220.07 114.057 219.857 114.114 219.62 114.114Z" fill="black" fill-opacity="0.5"/>
<path d="M323.25 100.75H320.75V105.75H315.75V108.25H320.75V113.25H323.25V108.25H328.25V105.75H323.25V100.75ZM322 94.5C315.1 94.5 309.5 100.1 309.5 107C309.5 113.9 315.1 119.5 322 119.5C328.9 119.5 334.5 113.9 334.5 107C334.5 100.1 328.9 94.5 322 94.5ZM322 117C316.488 117 312 112.513 312 107C312 101.488 316.488 97 322 97C327.513 97 332 101.488 332 107C332 112.513 327.513 117 322 117Z" fill="#C4AFFF" fill-opacity="0.5"/>
</svg>
