<svg width="178" height="47" viewBox="0 0 178 47" fill="none" xmlns="http://www.w3.org/2000/svg">
<path d="M32.85 0.579931V46.8799H39.5V0.579931H32.85ZM9.2 5.27993V6.07993C9.2 17.7299 7.5 25.2299 0.7 32.8799L5.8 36.7299C13.85 27.8299 15.45 17.8799 15.45 5.27993H9.2ZM2.9 5.27993V10.6799H11.75V5.27993H2.9ZM22.1 5.27993V6.02993C22.1 18.6299 20.55 27.3799 13.9 36.1299L19.3 39.6799C26.9 29.9299 28.35 18.4799 28.35 5.27993H22.1ZM17.1 5.27993V10.6799H24.75V5.27993H17.1ZM78.8961 0.529929V46.9799H85.5461V0.529929H78.8961ZM49.4961 30.7799V36.1799H53.5961C62.0461 36.1799 68.8461 35.9299 76.3461 34.5799L75.6961 29.2299C68.3461 30.4799 61.7961 30.7799 53.5961 30.7799H49.4961ZM49.4461 4.47993V9.77993H64.4961V17.1299H49.4961V32.7799H56.2461V22.3799H71.2961V4.47993H49.4461ZM124.842 0.579931V46.8799H131.492V0.579931H124.842ZM101.192 5.27993V6.07993C101.192 17.7299 99.4922 25.2299 92.6922 32.8799L97.7922 36.7299C105.842 27.8299 107.442 17.8799 107.442 5.27993H101.192ZM94.8922 5.27993V10.6799H103.742V5.27993H94.8922ZM114.092 5.27993V6.02993C114.092 18.6299 112.542 27.3799 105.892 36.1299L111.292 39.6799C118.892 29.9299 120.342 18.4799 120.342 5.27993H114.092ZM109.092 5.27993V10.6799H116.742V5.27993H109.092ZM170.888 0.529929V46.9799H177.538V0.529929H170.888ZM141.488 30.7799V36.1799H145.588C154.038 36.1799 160.838 35.9299 168.338 34.5799L167.688 29.2299C160.338 30.4799 153.788 30.7799 145.588 30.7799H141.488ZM141.438 4.47993V9.77993H156.488V17.1299H141.488V32.7799H148.238V22.3799H163.288V4.47993H141.438Z" fill="white"/>
</svg>
