<svg width="947" height="426" viewBox="0 0 947 426" fill="none" xmlns="http://www.w3.org/2000/svg">
<g filter="url(#filter0_i_1696_3)">
<rect width="947" height="426" rx="30" fill="#EFF2F9"/>
</g>
<g filter="url(#filter1_i_1696_3)">
<path d="M36.95 24.98V27.32C36.95 30.83 34.94 34.43 30.32 35.93L32.36 39.05C37.7 37.31 40.25 32.57 40.25 27.32V24.98H36.95ZM37.76 24.98V27.32C37.76 32.36 40.28 36.89 45.5 38.54L47.54 35.45C43.01 34.01 41.03 30.62 41.03 27.32V24.98H37.76ZM31.37 23.87V27.02H46.49V23.87H31.37ZM49.28 21.92V41.96H53.3V21.92H49.28ZM34.79 46.01V49.19H53.99V46.01H34.79ZM34.79 40.16V47.6H38.78V40.16H34.79ZM77.6877 21.89V39.29H81.4677V21.89H77.6877ZM74.2977 28.73V31.97H78.7377V28.73H74.2977ZM71.9277 22.43V38.39H75.6477V22.43H71.9277ZM57.6777 24.74V27.8H71.1477V24.74H57.6777ZM64.4577 28.7C60.9777 28.7 58.4577 30.68 58.4577 33.56C58.4577 36.44 60.9777 38.39 64.4577 38.39C67.9377 38.39 70.4577 36.44 70.4577 33.56C70.4577 30.68 67.9377 28.7 64.4577 28.7ZM64.4577 31.55C65.8977 31.55 66.8877 32.27 66.8877 33.56C66.8877 34.85 65.8977 35.57 64.4577 35.57C62.9877 35.57 61.9977 34.85 61.9977 33.56C61.9977 32.27 62.9877 31.55 64.4577 31.55ZM62.4477 22.16V26.84H66.3777V22.16H62.4477ZM72.0777 39.59C66.1077 39.59 62.5077 41.39 62.5077 44.63C62.5077 47.84 66.1077 49.67 72.0777 49.67C78.0177 49.67 81.6177 47.84 81.6177 44.63C81.6177 41.39 78.0177 39.59 72.0777 39.59ZM72.0777 42.56C75.7677 42.56 77.6277 43.19 77.6277 44.63C77.6277 46.04 75.7677 46.7 72.0777 46.7C68.3577 46.7 66.4977 46.04 66.4977 44.63C66.4977 43.19 68.3577 42.56 72.0777 42.56ZM91.6353 24.02V28.07C91.6353 33.23 89.5053 38.57 84.8253 40.76L87.2253 43.97C92.4753 41.39 94.8753 34.94 94.8753 28.07V24.02H91.6353ZM92.4453 24.02V28.07C92.4453 34.73 94.6353 40.91 99.6453 43.46L102.045 40.28C97.6053 38.12 95.6253 33.05 95.6253 28.07V24.02H92.4453ZM103.155 21.89V49.67H107.175V21.89H103.155ZM106.275 32.57V35.9H111.195V32.57H106.275ZM130.873 21.89V39.5H134.863V21.89H130.873ZM133.753 28.97V32.24H138.553V28.97H133.753ZM125.833 39.8C120.103 39.8 116.503 41.63 116.503 44.75C116.503 47.84 120.103 49.67 125.833 49.67C131.563 49.67 135.163 47.84 135.163 44.75C135.163 41.63 131.563 39.8 125.833 39.8ZM125.833 42.8C129.343 42.8 131.203 43.43 131.203 44.75C131.203 46.07 129.343 46.7 125.833 46.7C122.323 46.7 120.463 46.07 120.463 44.75C120.463 43.43 122.323 42.8 125.833 42.8ZM112.993 24.53V27.62H129.343V24.53H112.993ZM121.183 28.55C117.133 28.55 114.343 30.56 114.343 33.53C114.343 36.53 117.133 38.51 121.183 38.51C125.203 38.51 127.993 36.53 127.993 33.53C127.993 30.56 125.203 28.55 121.183 28.55ZM121.183 31.46C122.953 31.46 124.183 32.18 124.183 33.53C124.183 34.88 122.953 35.6 121.183 35.6C119.383 35.6 118.183 34.88 118.183 33.53C118.183 32.18 119.383 31.46 121.183 31.46ZM119.173 21.71V26.18H123.163V21.71H119.173Z" fill="#4295F5"/>
</g>
<g filter="url(#filter2_i_1696_3)">
<line x1="93.5" y1="337" x2="93.5" y2="87" stroke="#C4C4C4"/>
<line x1="220.167" y1="337" x2="220.167" y2="87" stroke="#C4C4C4"/>
<line x1="346.833" y1="335" x2="346.833" y2="85" stroke="#C4C4C4"/>
<line x1="473.5" y1="335" x2="473.5" y2="85" stroke="#C4C4C4"/>
</g>
<g filter="url(#filter3_di_1696_3)">
<rect x="94" y="125" width="127" height="25" rx="12.5" fill="#FA897B" fill-opacity="0.62" shape-rendering="crispEdges"/>
</g>
<g filter="url(#filter4_di_1696_3)">
<rect x="150" y="170" width="451" height="25" rx="12.5" fill="#FFDE32" fill-opacity="0.5" shape-rendering="crispEdges"/>
</g>
<g filter="url(#filter5_di_1696_3)">
<rect x="220" y="215" width="634" height="25" rx="12.5" fill="#4295F5" fill-opacity="0.5" shape-rendering="crispEdges"/>
</g>
<g filter="url(#filter6_di_1696_3)">
<rect x="94" y="260" width="253" height="25" rx="12.5" fill="#A0DFC8" fill-opacity="0.8" shape-rendering="crispEdges"/>
</g>
<g filter="url(#filter7_i_1696_3)">
<line x1="473.5" y1="341" x2="473.5" y2="91" stroke="#C4C4C4"/>
<line x1="600.167" y1="341" x2="600.167" y2="91" stroke="#C4C4C4"/>
<line x1="726.833" y1="339" x2="726.833" y2="89" stroke="#C4C4C4"/>
<line x1="853.5" y1="339" x2="853.5" y2="89" stroke="#C4C4C4"/>
</g>
<g filter="url(#filter8_di_1696_3)">
<rect x="579" y="296" width="275" height="25" rx="12.5" fill="#C4AFFF" fill-opacity="0.8" shape-rendering="crispEdges"/>
</g>
<defs>
<filter id="filter0_i_1696_3" x="0" y="0" width="947" height="426" filterUnits="userSpaceOnUse" color-interpolation-filters="sRGB">
<feFlood flood-opacity="0" result="BackgroundImageFix"/>
<feBlend mode="normal" in="SourceGraphic" in2="BackgroundImageFix" result="shape"/>
<feColorMatrix in="SourceAlpha" type="matrix" values="0 0 0 0 0 0 0 0 0 0 0 0 0 0 0 0 0 0 127 0" result="hardAlpha"/>
<feOffset/>
<feGaussianBlur stdDeviation="5"/>
<feComposite in2="hardAlpha" operator="arithmetic" k2="-1" k3="1"/>
<feColorMatrix type="matrix" values="0 0 0 0 0 0 0 0 0 0 0 0 0 0 0 0 0 0 0.1 0"/>
<feBlend mode="normal" in2="shape" result="effect1_innerShadow_1696_3"/>
</filter>
<filter id="filter1_i_1696_3" x="30.3198" y="21.71" width="108.233" height="31.9601" filterUnits="userSpaceOnUse" color-interpolation-filters="sRGB">
<feFlood flood-opacity="0" result="BackgroundImageFix"/>
<feBlend mode="normal" in="SourceGraphic" in2="BackgroundImageFix" result="shape"/>
<feColorMatrix in="SourceAlpha" type="matrix" values="0 0 0 0 0 0 0 0 0 0 0 0 0 0 0 0 0 0 127 0" result="hardAlpha"/>
<feOffset dy="4"/>
<feGaussianBlur stdDeviation="2"/>
<feComposite in2="hardAlpha" operator="arithmetic" k2="-1" k3="1"/>
<feColorMatrix type="matrix" values="0 0 0 0 0 0 0 0 0 0 0 0 0 0 0 0 0 0 0.25 0"/>
<feBlend mode="normal" in2="shape" result="effect1_innerShadow_1696_3"/>
</filter>
<filter id="filter2_i_1696_3" x="93" y="85" width="381" height="256" filterUnits="userSpaceOnUse" color-interpolation-filters="sRGB">
<feFlood flood-opacity="0" result="BackgroundImageFix"/>
<feBlend mode="normal" in="SourceGraphic" in2="BackgroundImageFix" result="shape"/>
<feColorMatrix in="SourceAlpha" type="matrix" values="0 0 0 0 0 0 0 0 0 0 0 0 0 0 0 0 0 0 127 0" result="hardAlpha"/>
<feOffset dy="4"/>
<feGaussianBlur stdDeviation="2"/>
<feComposite in2="hardAlpha" operator="arithmetic" k2="-1" k3="1"/>
<feColorMatrix type="matrix" values="0 0 0 0 0 0 0 0 0 0 0 0 0 0 0 0 0 0 0.25 0"/>
<feBlend mode="normal" in2="shape" result="effect1_innerShadow_1696_3"/>
</filter>
<filter id="filter3_di_1696_3" x="90" y="125" width="135" height="33" filterUnits="userSpaceOnUse" color-interpolation-filters="sRGB">
<feFlood flood-opacity="0" result="BackgroundImageFix"/>
<feColorMatrix in="SourceAlpha" type="matrix" values="0 0 0 0 0 0 0 0 0 0 0 0 0 0 0 0 0 0 127 0" result="hardAlpha"/>
<feOffset dy="4"/>
<feGaussianBlur stdDeviation="2"/>
<feComposite in2="hardAlpha" operator="out"/>
<feColorMatrix type="matrix" values="0 0 0 0 0 0 0 0 0 0 0 0 0 0 0 0 0 0 0.1 0"/>
<feBlend mode="normal" in2="BackgroundImageFix" result="effect1_dropShadow_1696_3"/>
<feBlend mode="normal" in="SourceGraphic" in2="effect1_dropShadow_1696_3" result="shape"/>
<feColorMatrix in="SourceAlpha" type="matrix" values="0 0 0 0 0 0 0 0 0 0 0 0 0 0 0 0 0 0 127 0" result="hardAlpha"/>
<feOffset dy="4"/>
<feGaussianBlur stdDeviation="2"/>
<feComposite in2="hardAlpha" operator="arithmetic" k2="-1" k3="1"/>
<feColorMatrix type="matrix" values="0 0 0 0 0 0 0 0 0 0 0 0 0 0 0 0 0 0 0.1 0"/>
<feBlend mode="normal" in2="shape" result="effect2_innerShadow_1696_3"/>
</filter>
<filter id="filter4_di_1696_3" x="146" y="170" width="459" height="33" filterUnits="userSpaceOnUse" color-interpolation-filters="sRGB">
<feFlood flood-opacity="0" result="BackgroundImageFix"/>
<feColorMatrix in="SourceAlpha" type="matrix" values="0 0 0 0 0 0 0 0 0 0 0 0 0 0 0 0 0 0 127 0" result="hardAlpha"/>
<feOffset dy="4"/>
<feGaussianBlur stdDeviation="2"/>
<feComposite in2="hardAlpha" operator="out"/>
<feColorMatrix type="matrix" values="0 0 0 0 0 0 0 0 0 0 0 0 0 0 0 0 0 0 0.1 0"/>
<feBlend mode="normal" in2="BackgroundImageFix" result="effect1_dropShadow_1696_3"/>
<feBlend mode="normal" in="SourceGraphic" in2="effect1_dropShadow_1696_3" result="shape"/>
<feColorMatrix in="SourceAlpha" type="matrix" values="0 0 0 0 0 0 0 0 0 0 0 0 0 0 0 0 0 0 127 0" result="hardAlpha"/>
<feOffset dy="4"/>
<feGaussianBlur stdDeviation="2"/>
<feComposite in2="hardAlpha" operator="arithmetic" k2="-1" k3="1"/>
<feColorMatrix type="matrix" values="0 0 0 0 0 0 0 0 0 0 0 0 0 0 0 0 0 0 0.1 0"/>
<feBlend mode="normal" in2="shape" result="effect2_innerShadow_1696_3"/>
</filter>
<filter id="filter5_di_1696_3" x="216" y="215" width="642" height="33" filterUnits="userSpaceOnUse" color-interpolation-filters="sRGB">
<feFlood flood-opacity="0" result="BackgroundImageFix"/>
<feColorMatrix in="SourceAlpha" type="matrix" values="0 0 0 0 0 0 0 0 0 0 0 0 0 0 0 0 0 0 127 0" result="hardAlpha"/>
<feOffset dy="4"/>
<feGaussianBlur stdDeviation="2"/>
<feComposite in2="hardAlpha" operator="out"/>
<feColorMatrix type="matrix" values="0 0 0 0 0 0 0 0 0 0 0 0 0 0 0 0 0 0 0.1 0"/>
<feBlend mode="normal" in2="BackgroundImageFix" result="effect1_dropShadow_1696_3"/>
<feBlend mode="normal" in="SourceGraphic" in2="effect1_dropShadow_1696_3" result="shape"/>
<feColorMatrix in="SourceAlpha" type="matrix" values="0 0 0 0 0 0 0 0 0 0 0 0 0 0 0 0 0 0 127 0" result="hardAlpha"/>
<feOffset dy="4"/>
<feGaussianBlur stdDeviation="2"/>
<feComposite in2="hardAlpha" operator="arithmetic" k2="-1" k3="1"/>
<feColorMatrix type="matrix" values="0 0 0 0 0 0 0 0 0 0 0 0 0 0 0 0 0 0 0.1 0"/>
<feBlend mode="normal" in2="shape" result="effect2_innerShadow_1696_3"/>
</filter>
<filter id="filter6_di_1696_3" x="90" y="260" width="261" height="33" filterUnits="userSpaceOnUse" color-interpolation-filters="sRGB">
<feFlood flood-opacity="0" result="BackgroundImageFix"/>
<feColorMatrix in="SourceAlpha" type="matrix" values="0 0 0 0 0 0 0 0 0 0 0 0 0 0 0 0 0 0 127 0" result="hardAlpha"/>
<feOffset dy="4"/>
<feGaussianBlur stdDeviation="2"/>
<feComposite in2="hardAlpha" operator="out"/>
<feColorMatrix type="matrix" values="0 0 0 0 0 0 0 0 0 0 0 0 0 0 0 0 0 0 0.1 0"/>
<feBlend mode="normal" in2="BackgroundImageFix" result="effect1_dropShadow_1696_3"/>
<feBlend mode="normal" in="SourceGraphic" in2="effect1_dropShadow_1696_3" result="shape"/>
<feColorMatrix in="SourceAlpha" type="matrix" values="0 0 0 0 0 0 0 0 0 0 0 0 0 0 0 0 0 0 127 0" result="hardAlpha"/>
<feOffset dy="4"/>
<feGaussianBlur stdDeviation="2"/>
<feComposite in2="hardAlpha" operator="arithmetic" k2="-1" k3="1"/>
<feColorMatrix type="matrix" values="0 0 0 0 0 0 0 0 0 0 0 0 0 0 0 0 0 0 0.1 0"/>
<feBlend mode="normal" in2="shape" result="effect2_innerShadow_1696_3"/>
</filter>
<filter id="filter7_i_1696_3" x="473" y="89" width="381" height="256" filterUnits="userSpaceOnUse" color-interpolation-filters="sRGB">
<feFlood flood-opacity="0" result="BackgroundImageFix"/>
<feBlend mode="normal" in="SourceGraphic" in2="BackgroundImageFix" result="shape"/>
<feColorMatrix in="SourceAlpha" type="matrix" values="0 0 0 0 0 0 0 0 0 0 0 0 0 0 0 0 0 0 127 0" result="hardAlpha"/>
<feOffset dy="4"/>
<feGaussianBlur stdDeviation="2"/>
<feComposite in2="hardAlpha" operator="arithmetic" k2="-1" k3="1"/>
<feColorMatrix type="matrix" values="0 0 0 0 0 0 0 0 0 0 0 0 0 0 0 0 0 0 0.25 0"/>
<feBlend mode="normal" in2="shape" result="effect1_innerShadow_1696_3"/>
</filter>
<filter id="filter8_di_1696_3" x="575" y="296" width="283" height="33" filterUnits="userSpaceOnUse" color-interpolation-filters="sRGB">
<feFlood flood-opacity="0" result="BackgroundImageFix"/>
<feColorMatrix in="SourceAlpha" type="matrix" values="0 0 0 0 0 0 0 0 0 0 0 0 0 0 0 0 0 0 127 0" result="hardAlpha"/>
<feOffset dy="4"/>
<feGaussianBlur stdDeviation="2"/>
<feComposite in2="hardAlpha" operator="out"/>
<feColorMatrix type="matrix" values="0 0 0 0 0 0 0 0 0 0 0 0 0 0 0 0 0 0 0.1 0"/>
<feBlend mode="normal" in2="BackgroundImageFix" result="effect1_dropShadow_1696_3"/>
<feBlend mode="normal" in="SourceGraphic" in2="effect1_dropShadow_1696_3" result="shape"/>
<feColorMatrix in="SourceAlpha" type="matrix" values="0 0 0 0 0 0 0 0 0 0 0 0 0 0 0 0 0 0 127 0" result="hardAlpha"/>
<feOffset dy="4"/>
<feGaussianBlur stdDeviation="2"/>
<feComposite in2="hardAlpha" operator="arithmetic" k2="-1" k3="1"/>
<feColorMatrix type="matrix" values="0 0 0 0 0 0 0 0 0 0 0 0 0 0 0 0 0 0 0.1 0"/>
<feBlend mode="normal" in2="shape" result="effect2_innerShadow_1696_3"/>
</filter>
</defs>
</svg>
