<svg width="947" height="426" viewBox="0 0 947 426" fill="none" xmlns="http://www.w3.org/2000/svg">
<g filter="url(#filter0_i_1696_2)">
<rect width="947" height="426" rx="30" fill="#EFF2F9"/>
</g>
<g filter="url(#filter1_i_1696_2)">
<path d="M36.95 24.98V27.32C36.95 30.83 34.94 34.43 30.32 35.93L32.36 39.05C37.7 37.31 40.25 32.57 40.25 27.32V24.98H36.95ZM37.76 24.98V27.32C37.76 32.36 40.28 36.89 45.5 38.54L47.54 35.45C43.01 34.01 41.03 30.62 41.03 27.32V24.98H37.76ZM31.37 23.87V27.02H46.49V23.87H31.37ZM49.28 21.92V41.96H53.3V21.92H49.28ZM34.79 46.01V49.19H53.99V46.01H34.79ZM34.79 40.16V47.6H38.78V40.16H34.79ZM77.6877 21.89V39.29H81.4677V21.89H77.6877ZM74.2977 28.73V31.97H78.7377V28.73H74.2977ZM71.9277 22.43V38.39H75.6477V22.43H71.9277ZM57.6777 24.74V27.8H71.1477V24.74H57.6777ZM64.4577 28.7C60.9777 28.7 58.4577 30.68 58.4577 33.56C58.4577 36.44 60.9777 38.39 64.4577 38.39C67.9377 38.39 70.4577 36.44 70.4577 33.56C70.4577 30.68 67.9377 28.7 64.4577 28.7ZM64.4577 31.55C65.8977 31.55 66.8877 32.27 66.8877 33.56C66.8877 34.85 65.8977 35.57 64.4577 35.57C62.9877 35.57 61.9977 34.85 61.9977 33.56C61.9977 32.27 62.9877 31.55 64.4577 31.55ZM62.4477 22.16V26.84H66.3777V22.16H62.4477ZM72.0777 39.59C66.1077 39.59 62.5077 41.39 62.5077 44.63C62.5077 47.84 66.1077 49.67 72.0777 49.67C78.0177 49.67 81.6177 47.84 81.6177 44.63C81.6177 41.39 78.0177 39.59 72.0777 39.59ZM72.0777 42.56C75.7677 42.56 77.6277 43.19 77.6277 44.63C77.6277 46.04 75.7677 46.7 72.0777 46.7C68.3577 46.7 66.4977 46.04 66.4977 44.63C66.4977 43.19 68.3577 42.56 72.0777 42.56ZM91.4853 23.39V25.85C91.4853 29.63 89.5953 33.35 84.9453 34.91L87.0753 38.06C92.3553 36.23 94.7553 31.37 94.7553 25.85V23.39H91.4853ZM92.2953 23.39V26.24C92.2953 31.25 94.6653 35.57 99.6753 37.25L101.745 34.16C97.3953 32.81 95.5353 29.57 95.5353 26.24V23.39H92.2953ZM103.275 21.89V38.3H107.265V21.89H103.275ZM106.155 28.31V31.61H110.955V28.31H106.155ZM98.2053 38.93C92.4153 38.93 88.7853 40.94 88.7853 44.3C88.7853 47.69 92.4153 49.67 98.2053 49.67C103.965 49.67 107.595 47.69 107.595 44.3C107.595 40.94 103.965 38.93 98.2053 38.93ZM98.2053 42.02C101.745 42.02 103.635 42.77 103.635 44.3C103.635 45.86 101.745 46.58 98.2053 46.58C94.6653 46.58 92.7453 45.86 92.7453 44.3C92.7453 42.77 94.6653 42.02 98.2053 42.02ZM131.053 21.92V40.64H135.043V21.92H131.053ZM133.633 29.75V33.05H138.523V29.75H133.633ZM125.743 40.91C119.743 40.91 116.293 42.47 116.293 45.32C116.293 48.17 119.743 49.7 125.743 49.7C131.743 49.7 135.193 48.17 135.193 45.32C135.193 42.47 131.743 40.91 125.743 40.91ZM125.743 43.79C129.463 43.79 131.173 44.24 131.173 45.32C131.173 46.37 129.463 46.82 125.743 46.82C121.963 46.82 120.283 46.37 120.283 45.32C120.283 44.24 121.963 43.79 125.743 43.79ZM119.293 34.13V38.21H123.283V34.13H119.293ZM113.113 39.92C117.943 39.92 124.303 39.86 130.123 38.84L129.823 36.14C124.213 36.89 117.613 36.92 112.663 36.92L113.113 39.92ZM113.383 23.87V26.75H129.133V23.87H113.383ZM121.273 27.44C117.163 27.44 114.493 28.94 114.493 31.4C114.493 33.86 117.163 35.36 121.273 35.36C125.383 35.36 128.023 33.86 128.023 31.4C128.023 28.94 125.383 27.44 121.273 27.44ZM121.273 29.99C123.163 29.99 124.243 30.47 124.243 31.4C124.243 32.36 123.163 32.81 121.273 32.81C119.383 32.81 118.273 32.36 118.273 31.4C118.273 30.47 119.383 29.99 121.273 29.99ZM119.293 21.68V25.13H123.283V21.68H119.293Z" fill="#4295F5"/>
</g>
<g filter="url(#filter2_i_1696_2)">
<line x1="93.5" y1="337" x2="93.5" y2="87" stroke="#C4C4C4"/>
<line x1="220.167" y1="337" x2="220.167" y2="87" stroke="#C4C4C4"/>
<line x1="346.833" y1="335" x2="346.833" y2="85" stroke="#C4C4C4"/>
<line x1="473.5" y1="335" x2="473.5" y2="85" stroke="#C4C4C4"/>
</g>
<g filter="url(#filter3_di_1696_2)">
<rect x="94" y="125" width="127" height="25" rx="12.5" fill="#FA897B" fill-opacity="0.62" shape-rendering="crispEdges"/>
</g>
<g filter="url(#filter4_di_1696_2)">
<rect x="150" y="170" width="451" height="25" rx="12.5" fill="#FFDE32" fill-opacity="0.5" shape-rendering="crispEdges"/>
</g>
<g filter="url(#filter5_di_1696_2)">
<rect x="220" y="215" width="634" height="25" rx="12.5" fill="#4295F5" fill-opacity="0.5" shape-rendering="crispEdges"/>
</g>
<g filter="url(#filter6_di_1696_2)">
<rect x="94" y="260" width="253" height="25" rx="12.5" fill="#A0DFC8" fill-opacity="0.8" shape-rendering="crispEdges"/>
</g>
<g filter="url(#filter7_i_1696_2)">
<line x1="473.5" y1="341" x2="473.5" y2="91" stroke="#C4C4C4"/>
<line x1="600.167" y1="341" x2="600.167" y2="91" stroke="#C4C4C4"/>
<line x1="726.833" y1="339" x2="726.833" y2="89" stroke="#C4C4C4"/>
<line x1="853.5" y1="339" x2="853.5" y2="89" stroke="#C4C4C4"/>
</g>
<g filter="url(#filter8_di_1696_2)">
<rect x="579" y="296" width="275" height="25" rx="12.5" fill="#C4AFFF" fill-opacity="0.8" shape-rendering="crispEdges"/>
</g>
<defs>
<filter id="filter0_i_1696_2" x="0" y="0" width="947" height="426" filterUnits="userSpaceOnUse" color-interpolation-filters="sRGB">
<feFlood flood-opacity="0" result="BackgroundImageFix"/>
<feBlend mode="normal" in="SourceGraphic" in2="BackgroundImageFix" result="shape"/>
<feColorMatrix in="SourceAlpha" type="matrix" values="0 0 0 0 0 0 0 0 0 0 0 0 0 0 0 0 0 0 127 0" result="hardAlpha"/>
<feOffset/>
<feGaussianBlur stdDeviation="5"/>
<feComposite in2="hardAlpha" operator="arithmetic" k2="-1" k3="1"/>
<feColorMatrix type="matrix" values="0 0 0 0 0 0 0 0 0 0 0 0 0 0 0 0 0 0 0.1 0"/>
<feBlend mode="normal" in2="shape" result="effect1_innerShadow_1696_2"/>
</filter>
<filter id="filter1_i_1696_2" x="30.3201" y="21.6799" width="108.203" height="32.02" filterUnits="userSpaceOnUse" color-interpolation-filters="sRGB">
<feFlood flood-opacity="0" result="BackgroundImageFix"/>
<feBlend mode="normal" in="SourceGraphic" in2="BackgroundImageFix" result="shape"/>
<feColorMatrix in="SourceAlpha" type="matrix" values="0 0 0 0 0 0 0 0 0 0 0 0 0 0 0 0 0 0 127 0" result="hardAlpha"/>
<feOffset dy="4"/>
<feGaussianBlur stdDeviation="2"/>
<feComposite in2="hardAlpha" operator="arithmetic" k2="-1" k3="1"/>
<feColorMatrix type="matrix" values="0 0 0 0 0 0 0 0 0 0 0 0 0 0 0 0 0 0 0.25 0"/>
<feBlend mode="normal" in2="shape" result="effect1_innerShadow_1696_2"/>
</filter>
<filter id="filter2_i_1696_2" x="93" y="85" width="381" height="256" filterUnits="userSpaceOnUse" color-interpolation-filters="sRGB">
<feFlood flood-opacity="0" result="BackgroundImageFix"/>
<feBlend mode="normal" in="SourceGraphic" in2="BackgroundImageFix" result="shape"/>
<feColorMatrix in="SourceAlpha" type="matrix" values="0 0 0 0 0 0 0 0 0 0 0 0 0 0 0 0 0 0 127 0" result="hardAlpha"/>
<feOffset dy="4"/>
<feGaussianBlur stdDeviation="2"/>
<feComposite in2="hardAlpha" operator="arithmetic" k2="-1" k3="1"/>
<feColorMatrix type="matrix" values="0 0 0 0 0 0 0 0 0 0 0 0 0 0 0 0 0 0 0.25 0"/>
<feBlend mode="normal" in2="shape" result="effect1_innerShadow_1696_2"/>
</filter>
<filter id="filter3_di_1696_2" x="90" y="125" width="135" height="33" filterUnits="userSpaceOnUse" color-interpolation-filters="sRGB">
<feFlood flood-opacity="0" result="BackgroundImageFix"/>
<feColorMatrix in="SourceAlpha" type="matrix" values="0 0 0 0 0 0 0 0 0 0 0 0 0 0 0 0 0 0 127 0" result="hardAlpha"/>
<feOffset dy="4"/>
<feGaussianBlur stdDeviation="2"/>
<feComposite in2="hardAlpha" operator="out"/>
<feColorMatrix type="matrix" values="0 0 0 0 0 0 0 0 0 0 0 0 0 0 0 0 0 0 0.1 0"/>
<feBlend mode="normal" in2="BackgroundImageFix" result="effect1_dropShadow_1696_2"/>
<feBlend mode="normal" in="SourceGraphic" in2="effect1_dropShadow_1696_2" result="shape"/>
<feColorMatrix in="SourceAlpha" type="matrix" values="0 0 0 0 0 0 0 0 0 0 0 0 0 0 0 0 0 0 127 0" result="hardAlpha"/>
<feOffset dy="4"/>
<feGaussianBlur stdDeviation="2"/>
<feComposite in2="hardAlpha" operator="arithmetic" k2="-1" k3="1"/>
<feColorMatrix type="matrix" values="0 0 0 0 0 0 0 0 0 0 0 0 0 0 0 0 0 0 0.1 0"/>
<feBlend mode="normal" in2="shape" result="effect2_innerShadow_1696_2"/>
</filter>
<filter id="filter4_di_1696_2" x="146" y="170" width="459" height="33" filterUnits="userSpaceOnUse" color-interpolation-filters="sRGB">
<feFlood flood-opacity="0" result="BackgroundImageFix"/>
<feColorMatrix in="SourceAlpha" type="matrix" values="0 0 0 0 0 0 0 0 0 0 0 0 0 0 0 0 0 0 127 0" result="hardAlpha"/>
<feOffset dy="4"/>
<feGaussianBlur stdDeviation="2"/>
<feComposite in2="hardAlpha" operator="out"/>
<feColorMatrix type="matrix" values="0 0 0 0 0 0 0 0 0 0 0 0 0 0 0 0 0 0 0.1 0"/>
<feBlend mode="normal" in2="BackgroundImageFix" result="effect1_dropShadow_1696_2"/>
<feBlend mode="normal" in="SourceGraphic" in2="effect1_dropShadow_1696_2" result="shape"/>
<feColorMatrix in="SourceAlpha" type="matrix" values="0 0 0 0 0 0 0 0 0 0 0 0 0 0 0 0 0 0 127 0" result="hardAlpha"/>
<feOffset dy="4"/>
<feGaussianBlur stdDeviation="2"/>
<feComposite in2="hardAlpha" operator="arithmetic" k2="-1" k3="1"/>
<feColorMatrix type="matrix" values="0 0 0 0 0 0 0 0 0 0 0 0 0 0 0 0 0 0 0.1 0"/>
<feBlend mode="normal" in2="shape" result="effect2_innerShadow_1696_2"/>
</filter>
<filter id="filter5_di_1696_2" x="216" y="215" width="642" height="33" filterUnits="userSpaceOnUse" color-interpolation-filters="sRGB">
<feFlood flood-opacity="0" result="BackgroundImageFix"/>
<feColorMatrix in="SourceAlpha" type="matrix" values="0 0 0 0 0 0 0 0 0 0 0 0 0 0 0 0 0 0 127 0" result="hardAlpha"/>
<feOffset dy="4"/>
<feGaussianBlur stdDeviation="2"/>
<feComposite in2="hardAlpha" operator="out"/>
<feColorMatrix type="matrix" values="0 0 0 0 0 0 0 0 0 0 0 0 0 0 0 0 0 0 0.1 0"/>
<feBlend mode="normal" in2="BackgroundImageFix" result="effect1_dropShadow_1696_2"/>
<feBlend mode="normal" in="SourceGraphic" in2="effect1_dropShadow_1696_2" result="shape"/>
<feColorMatrix in="SourceAlpha" type="matrix" values="0 0 0 0 0 0 0 0 0 0 0 0 0 0 0 0 0 0 127 0" result="hardAlpha"/>
<feOffset dy="4"/>
<feGaussianBlur stdDeviation="2"/>
<feComposite in2="hardAlpha" operator="arithmetic" k2="-1" k3="1"/>
<feColorMatrix type="matrix" values="0 0 0 0 0 0 0 0 0 0 0 0 0 0 0 0 0 0 0.1 0"/>
<feBlend mode="normal" in2="shape" result="effect2_innerShadow_1696_2"/>
</filter>
<filter id="filter6_di_1696_2" x="90" y="260" width="261" height="33" filterUnits="userSpaceOnUse" color-interpolation-filters="sRGB">
<feFlood flood-opacity="0" result="BackgroundImageFix"/>
<feColorMatrix in="SourceAlpha" type="matrix" values="0 0 0 0 0 0 0 0 0 0 0 0 0 0 0 0 0 0 127 0" result="hardAlpha"/>
<feOffset dy="4"/>
<feGaussianBlur stdDeviation="2"/>
<feComposite in2="hardAlpha" operator="out"/>
<feColorMatrix type="matrix" values="0 0 0 0 0 0 0 0 0 0 0 0 0 0 0 0 0 0 0.1 0"/>
<feBlend mode="normal" in2="BackgroundImageFix" result="effect1_dropShadow_1696_2"/>
<feBlend mode="normal" in="SourceGraphic" in2="effect1_dropShadow_1696_2" result="shape"/>
<feColorMatrix in="SourceAlpha" type="matrix" values="0 0 0 0 0 0 0 0 0 0 0 0 0 0 0 0 0 0 127 0" result="hardAlpha"/>
<feOffset dy="4"/>
<feGaussianBlur stdDeviation="2"/>
<feComposite in2="hardAlpha" operator="arithmetic" k2="-1" k3="1"/>
<feColorMatrix type="matrix" values="0 0 0 0 0 0 0 0 0 0 0 0 0 0 0 0 0 0 0.1 0"/>
<feBlend mode="normal" in2="shape" result="effect2_innerShadow_1696_2"/>
</filter>
<filter id="filter7_i_1696_2" x="473" y="89" width="381" height="256" filterUnits="userSpaceOnUse" color-interpolation-filters="sRGB">
<feFlood flood-opacity="0" result="BackgroundImageFix"/>
<feBlend mode="normal" in="SourceGraphic" in2="BackgroundImageFix" result="shape"/>
<feColorMatrix in="SourceAlpha" type="matrix" values="0 0 0 0 0 0 0 0 0 0 0 0 0 0 0 0 0 0 127 0" result="hardAlpha"/>
<feOffset dy="4"/>
<feGaussianBlur stdDeviation="2"/>
<feComposite in2="hardAlpha" operator="arithmetic" k2="-1" k3="1"/>
<feColorMatrix type="matrix" values="0 0 0 0 0 0 0 0 0 0 0 0 0 0 0 0 0 0 0.25 0"/>
<feBlend mode="normal" in2="shape" result="effect1_innerShadow_1696_2"/>
</filter>
<filter id="filter8_di_1696_2" x="575" y="296" width="283" height="33" filterUnits="userSpaceOnUse" color-interpolation-filters="sRGB">
<feFlood flood-opacity="0" result="BackgroundImageFix"/>
<feColorMatrix in="SourceAlpha" type="matrix" values="0 0 0 0 0 0 0 0 0 0 0 0 0 0 0 0 0 0 127 0" result="hardAlpha"/>
<feOffset dy="4"/>
<feGaussianBlur stdDeviation="2"/>
<feComposite in2="hardAlpha" operator="out"/>
<feColorMatrix type="matrix" values="0 0 0 0 0 0 0 0 0 0 0 0 0 0 0 0 0 0 0.1 0"/>
<feBlend mode="normal" in2="BackgroundImageFix" result="effect1_dropShadow_1696_2"/>
<feBlend mode="normal" in="SourceGraphic" in2="effect1_dropShadow_1696_2" result="shape"/>
<feColorMatrix in="SourceAlpha" type="matrix" values="0 0 0 0 0 0 0 0 0 0 0 0 0 0 0 0 0 0 127 0" result="hardAlpha"/>
<feOffset dy="4"/>
<feGaussianBlur stdDeviation="2"/>
<feComposite in2="hardAlpha" operator="arithmetic" k2="-1" k3="1"/>
<feColorMatrix type="matrix" values="0 0 0 0 0 0 0 0 0 0 0 0 0 0 0 0 0 0 0.1 0"/>
<feBlend mode="normal" in2="shape" result="effect2_innerShadow_1696_2"/>
</filter>
</defs>
</svg>
