<svg width="362" height="395" viewBox="0 0 362 395" fill="none" xmlns="http://www.w3.org/2000/svg">
<g filter="url(#filter0_i_1700_29)">
<rect width="362" height="395" rx="30" fill="#EFF2F9"/>
</g>
<g filter="url(#filter1_i_1700_29)">
<path d="M52.27 21.89V49.67H56.08V21.89H52.27ZM41.71 32.03V35.24H48.16V32.03H41.71ZM46.54 22.37V48.44H50.26V22.37H46.54ZM33.01 40.22V43.52H34.93C38.98 43.52 41.74 43.4 44.83 42.77L44.53 39.53C41.47 40.13 38.86 40.22 34.93 40.22H33.01ZM33.01 25.01V41.6H36.94V28.19H43.6V25.01H33.01ZM62.7377 34.7V37.88H82.2677V34.7H62.7377ZM59.8277 43.07V46.34H84.9677V43.07H59.8277ZM62.7377 24.17V36.02H66.6977V27.41H82.0577V24.17H62.7377ZM105.215 21.86V49.73H109.175V21.86H105.215ZM108.275 32.36V35.66H113.195V32.36H108.275ZM88.5353 40.01V43.28H90.8753C95.7053 43.28 99.5153 43.1 103.715 42.35L103.325 39.14C99.2453 39.86 95.5853 40.01 90.8753 40.01H88.5353ZM88.5053 24.23V27.41H97.3253V31.82H88.5353V41.24H92.4953V35H101.285V24.23H88.5053ZM134.073 21.92V41.87H138.093V21.92H134.073ZM119.583 46.01V49.19H138.783V46.01H119.583ZM119.583 39.86V47.3H123.573V39.86H119.583ZM122.973 23.66C118.713 23.66 115.413 26.6 115.413 30.71C115.413 34.79 118.713 37.76 122.973 37.76C127.233 37.76 130.503 34.79 130.503 30.71C130.503 26.6 127.233 23.66 122.973 23.66ZM122.973 27.11C125.013 27.11 126.603 28.43 126.603 30.71C126.603 32.96 125.013 34.28 122.973 34.28C120.903 34.28 119.313 32.96 119.313 30.71C119.313 28.43 120.903 27.11 122.973 27.11Z" fill="#4295F5"/>
</g>
<defs>
<filter id="filter0_i_1700_29" x="0" y="0" width="362" height="395" filterUnits="userSpaceOnUse" color-interpolation-filters="sRGB">
<feFlood flood-opacity="0" result="BackgroundImageFix"/>
<feBlend mode="normal" in="SourceGraphic" in2="BackgroundImageFix" result="shape"/>
<feColorMatrix in="SourceAlpha" type="matrix" values="0 0 0 0 0 0 0 0 0 0 0 0 0 0 0 0 0 0 127 0" result="hardAlpha"/>
<feOffset/>
<feGaussianBlur stdDeviation="5"/>
<feComposite in2="hardAlpha" operator="arithmetic" k2="-1" k3="1"/>
<feColorMatrix type="matrix" values="0 0 0 0 0 0 0 0 0 0 0 0 0 0 0 0 0 0 0.1 0"/>
<feBlend mode="normal" in2="shape" result="effect1_innerShadow_1700_29"/>
</filter>
<filter id="filter1_i_1700_29" x="33.0098" y="21.86" width="105.773" height="31.87" filterUnits="userSpaceOnUse" color-interpolation-filters="sRGB">
<feFlood flood-opacity="0" result="BackgroundImageFix"/>
<feBlend mode="normal" in="SourceGraphic" in2="BackgroundImageFix" result="shape"/>
<feColorMatrix in="SourceAlpha" type="matrix" values="0 0 0 0 0 0 0 0 0 0 0 0 0 0 0 0 0 0 127 0" result="hardAlpha"/>
<feOffset dy="4"/>
<feGaussianBlur stdDeviation="2"/>
<feComposite in2="hardAlpha" operator="arithmetic" k2="-1" k3="1"/>
<feColorMatrix type="matrix" values="0 0 0 0 0 0 0 0 0 0 0 0 0 0 0 0 0 0 0.25 0"/>
<feBlend mode="normal" in2="shape" result="effect1_innerShadow_1700_29"/>
</filter>
</defs>
</svg>
