<svg width="362" height="395" viewBox="0 0 362 395" fill="none" xmlns="http://www.w3.org/2000/svg">
<g filter="url(#filter0_i_1700_29)">
<rect width="362" height="395" rx="30" fill="#EFF2F9"/>
</g>
<g filter="url(#filter1_i_1700_29)">
<path d="M52.27 21.89V49.67H56.08V21.89H52.27ZM41.71 32.03V35.24H48.16V32.03H41.71ZM46.54 22.37V48.44H50.26V22.37H46.54ZM33.01 40.22V43.52H34.93C38.98 43.52 41.74 43.4 44.83 42.77L44.53 39.53C41.47 40.13 38.86 40.22 34.93 40.22H33.01ZM33.01 25.01V41.6H36.94V28.19H43.6V25.01H33.01ZM62.7377 34.7V37.88H82.2677V34.7H62.7377ZM59.8277 43.07V46.34H84.9677V43.07H59.8277ZM62.7377 24.17V36.02H66.6977V27.41H82.0577V24.17H62.7377ZM105.215 21.86V49.73H109.175V21.86H105.215ZM108.275 32.36V35.66H113.195V32.36H108.275ZM88.5353 40.01V43.28H90.8753C95.7053 43.28 99.5153 43.1 103.715 42.35L103.325 39.14C99.2453 39.86 95.5853 40.01 90.8753 40.01H88.5353ZM88.5053 24.23V27.41H97.3253V31.82H88.5353V41.24H92.4953V35H101.285V24.23H88.5053ZM134.073 21.92V41.87H138.093V21.92H134.073ZM119.583 46.01V49.19H138.783V46.01H119.583ZM119.583 39.86V47.3H123.573V39.86H119.583ZM122.973 23.66C118.713 23.66 115.413 26.6 115.413 30.71C115.413 34.79 118.713 37.76 122.973 37.76C127.233 37.76 130.503 34.79 130.503 30.71C130.503 26.6 127.233 23.66 122.973 23.66ZM122.973 27.11C125.013 27.11 126.603 28.43 126.603 30.71C126.603 32.96 125.013 34.28 122.973 34.28C120.903 34.28 119.313 32.96 119.313 30.71C119.313 28.43 120.903 27.11 122.973 27.11Z" fill="#4295F5"/>
</g>
<g filter="url(#filter2_i_1700_29)">
<rect x="31" y="70" width="300" height="280" rx="15" fill="white"/>
<g clip-path="url(#clip0_1700_29)">
<rect x="47" y="86" width="24" height="24" rx="12" fill="#C9E2FF"/>
<path d="M62.5 93.5L55.5 98L62.5 102.5" stroke="#004DA7"/>
<g filter="url(#filter3_i_1700_29)">
<path d="M156.278 95.9375H153.79C153.744 95.6155 153.652 95.3295 153.511 95.0795C153.371 94.8258 153.191 94.6098 152.972 94.4318C152.752 94.2538 152.498 94.1174 152.21 94.0227C151.926 93.928 151.617 93.8807 151.284 93.8807C150.682 93.8807 150.157 94.0303 149.71 94.3295C149.263 94.625 148.917 95.0568 148.67 95.625C148.424 96.1894 148.301 96.875 148.301 97.6818C148.301 98.5114 148.424 99.2083 148.67 99.7727C148.92 100.337 149.269 100.763 149.716 101.051C150.163 101.339 150.68 101.483 151.267 101.483C151.597 101.483 151.902 101.439 152.182 101.352C152.466 101.265 152.718 101.138 152.938 100.972C153.157 100.801 153.339 100.595 153.483 100.352C153.631 100.11 153.733 99.8333 153.79 99.5227L156.278 99.5341C156.214 100.068 156.053 100.583 155.795 101.08C155.542 101.572 155.199 102.013 154.767 102.403C154.339 102.79 153.828 103.097 153.233 103.324C152.642 103.547 151.973 103.659 151.227 103.659C150.189 103.659 149.261 103.424 148.443 102.955C147.629 102.485 146.985 101.805 146.511 100.915C146.042 100.025 145.807 98.947 145.807 97.6818C145.807 96.4129 146.045 95.3333 146.523 94.4432C147 93.553 147.648 92.875 148.466 92.4091C149.284 91.9394 150.205 91.7045 151.227 91.7045C151.902 91.7045 152.527 91.7992 153.102 91.9886C153.682 92.178 154.195 92.4545 154.642 92.8182C155.089 93.178 155.453 93.6193 155.733 94.142C156.017 94.6648 156.199 95.2633 156.278 95.9375ZM160.486 103.665C159.929 103.665 159.433 103.568 158.997 103.375C158.562 103.178 158.217 102.888 157.963 102.506C157.713 102.119 157.588 101.638 157.588 101.062C157.588 100.578 157.677 100.17 157.855 99.8409C158.033 99.5114 158.276 99.2462 158.582 99.0455C158.889 98.8447 159.238 98.6932 159.628 98.5909C160.022 98.4886 160.435 98.4167 160.866 98.375C161.374 98.322 161.783 98.2727 162.094 98.2273C162.404 98.178 162.63 98.1061 162.77 98.0114C162.91 97.9167 162.98 97.7765 162.98 97.5909V97.5568C162.98 97.197 162.866 96.9186 162.639 96.7216C162.416 96.5246 162.098 96.4261 161.685 96.4261C161.249 96.4261 160.902 96.5227 160.645 96.7159C160.387 96.9053 160.217 97.1439 160.134 97.4318L157.895 97.25C158.009 96.7197 158.232 96.2614 158.565 95.875C158.899 95.4848 159.329 95.1856 159.855 94.9773C160.385 94.7652 160.999 94.6591 161.696 94.6591C162.181 94.6591 162.645 94.7159 163.088 94.8295C163.535 94.9432 163.931 95.1193 164.276 95.358C164.624 95.5966 164.899 95.9034 165.099 96.2784C165.3 96.6496 165.401 97.0947 165.401 97.6136V103.5H163.105V102.29H163.037C162.897 102.562 162.709 102.803 162.474 103.011C162.24 103.216 161.957 103.377 161.628 103.494C161.298 103.608 160.918 103.665 160.486 103.665ZM161.179 101.994C161.535 101.994 161.849 101.924 162.122 101.784C162.395 101.64 162.609 101.447 162.764 101.205C162.92 100.962 162.997 100.687 162.997 100.381V99.4545C162.921 99.5038 162.817 99.5492 162.685 99.5909C162.556 99.6288 162.41 99.6648 162.247 99.6989C162.084 99.7292 161.921 99.7576 161.759 99.7841C161.596 99.8068 161.448 99.8277 161.315 99.8466C161.031 99.8883 160.783 99.9545 160.571 100.045C160.359 100.136 160.194 100.259 160.077 100.415C159.959 100.566 159.901 100.756 159.901 100.983C159.901 101.312 160.02 101.564 160.259 101.739C160.501 101.909 160.808 101.994 161.179 101.994ZM169.699 91.8636V103.5H167.278V91.8636H169.699ZM175.615 103.67C174.717 103.67 173.945 103.489 173.297 103.125C172.653 102.758 172.157 102.239 171.808 101.568C171.46 100.894 171.286 100.097 171.286 99.1761C171.286 98.2784 171.46 97.4905 171.808 96.8125C172.157 96.1345 172.647 95.6061 173.28 95.2273C173.916 94.8485 174.662 94.6591 175.518 94.6591C176.094 94.6591 176.63 94.7519 177.126 94.9375C177.626 95.1193 178.062 95.3939 178.433 95.7614C178.808 96.1288 179.1 96.5909 179.308 97.1477C179.517 97.7008 179.621 98.3485 179.621 99.0909V99.7557H172.251V98.2557H177.342C177.342 97.9072 177.267 97.5985 177.115 97.3295C176.964 97.0606 176.753 96.8504 176.484 96.6989C176.219 96.5436 175.911 96.4659 175.558 96.4659C175.191 96.4659 174.865 96.5511 174.581 96.7216C174.301 96.8883 174.081 97.1136 173.922 97.3977C173.763 97.678 173.681 97.9905 173.678 98.3352V99.7614C173.678 100.193 173.757 100.566 173.916 100.881C174.079 101.195 174.308 101.438 174.604 101.608C174.899 101.778 175.25 101.864 175.655 101.864C175.924 101.864 176.17 101.826 176.393 101.75C176.617 101.674 176.808 101.561 176.967 101.409C177.126 101.258 177.248 101.072 177.331 100.852L179.57 101C179.456 101.538 179.223 102.008 178.871 102.409C178.522 102.807 178.071 103.117 177.518 103.341C176.969 103.561 176.335 103.67 175.615 103.67ZM183.621 98.4545V103.5H181.2V94.7727H183.507V96.3125H183.609C183.803 95.8049 184.126 95.4034 184.581 95.108C185.036 94.8087 185.587 94.6591 186.234 94.6591C186.84 94.6591 187.369 94.7917 187.82 95.0568C188.27 95.322 188.621 95.7008 188.871 96.1932C189.121 96.6818 189.246 97.2652 189.246 97.9432V103.5H186.825V98.375C186.829 97.8409 186.693 97.4242 186.416 97.125C186.14 96.822 185.759 96.6705 185.274 96.6705C184.948 96.6705 184.661 96.7405 184.411 96.8807C184.164 97.0208 183.971 97.2254 183.831 97.4943C183.695 97.7595 183.625 98.0795 183.621 98.4545ZM194.369 103.642C193.706 103.642 193.106 103.472 192.568 103.131C192.034 102.786 191.61 102.28 191.295 101.614C190.985 100.943 190.83 100.121 190.83 99.1477C190.83 98.1477 190.991 97.3163 191.312 96.6534C191.634 95.9867 192.063 95.4886 192.597 95.1591C193.134 94.8258 193.723 94.6591 194.364 94.6591C194.852 94.6591 195.259 94.7424 195.585 94.9091C195.915 95.072 196.18 95.2765 196.381 95.5227C196.585 95.7652 196.741 96.0038 196.847 96.2386H196.92V91.8636H199.335V103.5H196.949V102.102H196.847C196.733 102.345 196.572 102.585 196.364 102.824C196.159 103.059 195.892 103.254 195.562 103.409C195.237 103.564 194.839 103.642 194.369 103.642ZM195.136 101.716C195.527 101.716 195.856 101.61 196.125 101.398C196.398 101.182 196.606 100.881 196.75 100.494C196.898 100.108 196.972 99.6553 196.972 99.1364C196.972 98.6174 196.9 98.1667 196.756 97.7841C196.612 97.4015 196.403 97.1061 196.131 96.8977C195.858 96.6894 195.527 96.5852 195.136 96.5852C194.739 96.5852 194.403 96.6932 194.131 96.9091C193.858 97.125 193.652 97.4242 193.511 97.8068C193.371 98.1894 193.301 98.6326 193.301 99.1364C193.301 99.6439 193.371 100.093 193.511 100.483C193.655 100.869 193.862 101.172 194.131 101.392C194.403 101.608 194.739 101.716 195.136 101.716ZM203.814 103.665C203.257 103.665 202.761 103.568 202.325 103.375C201.89 103.178 201.545 102.888 201.291 102.506C201.041 102.119 200.916 101.638 200.916 101.062C200.916 100.578 201.005 100.17 201.183 99.8409C201.361 99.5114 201.604 99.2462 201.911 99.0455C202.217 98.8447 202.566 98.6932 202.956 98.5909C203.35 98.4886 203.763 98.4167 204.195 98.375C204.702 98.322 205.111 98.2727 205.422 98.2273C205.732 98.178 205.958 98.1061 206.098 98.0114C206.238 97.9167 206.308 97.7765 206.308 97.5909V97.5568C206.308 97.197 206.195 96.9186 205.967 96.7216C205.744 96.5246 205.426 96.4261 205.013 96.4261C204.577 96.4261 204.231 96.5227 203.973 96.7159C203.715 96.9053 203.545 97.1439 203.462 97.4318L201.223 97.25C201.337 96.7197 201.56 96.2614 201.893 95.875C202.227 95.4848 202.657 95.1856 203.183 94.9773C203.714 94.7652 204.327 94.6591 205.024 94.6591C205.509 94.6591 205.973 94.7159 206.416 94.8295C206.863 94.9432 207.259 95.1193 207.604 95.358C207.952 95.5966 208.227 95.9034 208.428 96.2784C208.628 96.6496 208.729 97.0947 208.729 97.6136V103.5H206.433V102.29H206.365C206.225 102.562 206.037 102.803 205.803 103.011C205.568 103.216 205.286 103.377 204.956 103.494C204.626 103.608 204.246 103.665 203.814 103.665ZM204.507 101.994C204.863 101.994 205.178 101.924 205.45 101.784C205.723 101.64 205.937 101.447 206.092 101.205C206.248 100.962 206.325 100.687 206.325 100.381V99.4545C206.25 99.5038 206.145 99.5492 206.013 99.5909C205.884 99.6288 205.738 99.6648 205.575 99.6989C205.412 99.7292 205.25 99.7576 205.087 99.7841C204.924 99.8068 204.776 99.8277 204.643 99.8466C204.359 99.8883 204.111 99.9545 203.899 100.045C203.687 100.136 203.522 100.259 203.405 100.415C203.287 100.566 203.229 100.756 203.229 100.983C203.229 101.312 203.348 101.564 203.587 101.739C203.829 101.909 204.136 101.994 204.507 101.994ZM210.607 103.5V94.7727H212.953V96.2955H213.044C213.203 95.7538 213.47 95.3447 213.845 95.0682C214.22 94.7879 214.652 94.6477 215.141 94.6477C215.262 94.6477 215.393 94.6553 215.533 94.6705C215.673 94.6856 215.796 94.7064 215.902 94.733V96.8807C215.788 96.8466 215.631 96.8163 215.43 96.7898C215.23 96.7633 215.046 96.75 214.879 96.75C214.523 96.75 214.205 96.8277 213.925 96.983C213.648 97.1345 213.429 97.3466 213.266 97.6193C213.107 97.892 213.027 98.2064 213.027 98.5625V103.5H210.607Z" fill="#004DA7"/>
</g>
<rect x="315" y="110" width="24" height="24" rx="12" transform="rotate(-180 315 110)" fill="#C9E2FF"/>
<path d="M299.5 102.5L306.5 98L299.5 93.5" stroke="#004DA7"/>
</g>
<g clip-path="url(#clip1_1700_29)">
<path opacity="0.5" d="M48.0568 133.273H49.3182L52.2841 140.517H52.3864L55.3523 133.273H56.6136V142H55.625V135.369H55.5398L52.8125 142H51.858L49.1307 135.369H49.0455V142H48.0568V133.273ZM66.0962 137.636C66.0962 138.557 65.93 139.352 65.5977 140.023C65.2653 140.693 64.8093 141.21 64.2298 141.574C63.6502 141.938 62.9883 142.119 62.244 142.119C61.4996 142.119 60.8377 141.938 60.2582 141.574C59.6786 141.21 59.2227 140.693 58.8903 140.023C58.5579 139.352 58.3917 138.557 58.3917 137.636C58.3917 136.716 58.5579 135.92 58.8903 135.25C59.2227 134.58 59.6786 134.062 60.2582 133.699C60.8377 133.335 61.4996 133.153 62.244 133.153C62.9883 133.153 63.6502 133.335 64.2298 133.699C64.8093 134.062 65.2653 134.58 65.5977 135.25C65.93 135.92 66.0962 136.716 66.0962 137.636ZM65.0735 137.636C65.0735 136.881 64.9471 136.243 64.6942 135.723C64.4442 135.203 64.1048 134.81 63.6758 134.543C63.2496 134.276 62.7724 134.142 62.244 134.142C61.7156 134.142 61.2369 134.276 60.8079 134.543C60.3817 134.81 60.0423 135.203 59.7894 135.723C59.5394 136.243 59.4144 136.881 59.4144 137.636C59.4144 138.392 59.5394 139.03 59.7894 139.55C60.0423 140.07 60.3817 140.463 60.8079 140.73C61.2369 140.997 61.7156 141.131 62.244 141.131C62.7724 141.131 63.2496 140.997 63.6758 140.73C64.1048 140.463 64.4442 140.07 64.6942 139.55C64.9471 139.03 65.0735 138.392 65.0735 137.636ZM74.7937 133.273V142H73.771L69.0153 135.148H68.93V142H67.8732V133.273H68.896L73.6687 140.142H73.7539V133.273H74.7937Z" fill="#004DA7"/>
<path d="M62.6335 169.618V179.8H61.4006V170.911H61.3409L58.8551 172.561V171.309L61.4006 169.618H62.6335Z" fill="#004DA7"/>
<path d="M61.3153 217.739C60.6326 217.739 60.0294 217.618 59.5057 217.376C58.9853 217.131 58.5793 216.795 58.2876 216.367C57.996 215.936 57.8518 215.446 57.8551 214.895C57.8518 214.465 57.9363 214.067 58.1087 213.702C58.281 213.334 58.5163 213.028 58.8146 212.783C59.1162 212.534 59.4527 212.376 59.8239 212.31V212.251C59.3366 212.125 58.9489 211.851 58.6605 211.43C58.3722 211.006 58.2296 210.524 58.233 209.983C58.2296 209.466 58.3606 209.004 58.6257 208.596C58.8909 208.189 59.2554 207.867 59.7195 207.632C60.1868 207.397 60.7188 207.279 61.3153 207.279C61.9053 207.279 62.4323 207.397 62.8963 207.632C63.3603 207.867 63.7249 208.189 63.9901 208.596C64.2585 209.004 64.3944 209.466 64.3977 209.983C64.3944 210.524 64.2469 211.006 63.9553 211.43C63.6669 211.851 63.2841 212.125 62.8068 212.251V212.31C63.1747 212.376 63.5062 212.534 63.8011 212.783C64.0961 213.028 64.3314 213.334 64.5071 213.702C64.6828 214.067 64.7723 214.465 64.7756 214.895C64.7723 215.446 64.6231 215.936 64.3281 216.367C64.0365 216.795 63.6304 217.131 63.1101 217.376C62.593 217.618 61.9948 217.739 61.3153 217.739ZM61.3153 216.645C61.776 216.645 62.1738 216.571 62.5085 216.422C62.8433 216.273 63.1018 216.062 63.2841 215.79C63.4664 215.519 63.5592 215.2 63.5625 214.836C63.5592 214.451 63.4598 214.112 63.2642 213.817C63.0687 213.522 62.8018 213.29 62.4638 213.121C62.129 212.952 61.7462 212.867 61.3153 212.867C60.8812 212.867 60.4934 212.952 60.152 213.121C59.8139 213.29 59.5471 213.522 59.3516 213.817C59.1593 214.112 59.0649 214.451 59.0682 214.836C59.0649 215.2 59.1527 215.519 59.3317 215.79C59.514 216.062 59.7741 216.273 60.1122 216.422C60.4503 216.571 60.8513 216.645 61.3153 216.645ZM61.3153 211.813C61.6799 211.813 62.0031 211.74 62.2848 211.594C62.5698 211.448 62.7936 211.245 62.956 210.983C63.1184 210.721 63.2012 210.414 63.2045 210.063C63.2012 209.718 63.12 209.418 62.9609 209.163C62.8018 208.905 62.5814 208.706 62.2997 208.567C62.018 208.424 61.6899 208.353 61.3153 208.353C60.9342 208.353 60.6011 208.424 60.3161 208.567C60.031 208.706 59.8106 208.905 59.6548 209.163C59.4991 209.418 59.4228 209.718 59.4261 210.063C59.4228 210.414 59.5007 210.721 59.6598 210.983C59.8222 211.245 60.0459 211.448 60.331 211.594C60.616 211.74 60.9441 211.813 61.3153 211.813Z" fill="#004DA7"/>
<path d="M58.1335 245.218V255.4H56.9006V246.511H56.8409L54.3551 248.161V246.909L56.9006 245.218H58.1335ZM64.2436 255.539C63.6603 255.539 63.1349 255.423 62.6676 255.191C62.2003 254.959 61.8258 254.641 61.544 254.237C61.2623 253.832 61.1082 253.372 61.0817 252.855H62.2749C62.3213 253.315 62.5301 253.696 62.9013 253.998C63.2758 254.296 63.7232 254.445 64.2436 254.445C64.6612 254.445 65.0324 254.348 65.3572 254.152C65.6854 253.957 65.9422 253.688 66.1278 253.347C66.3168 253.002 66.4112 252.613 66.4112 252.178C66.4112 251.734 66.3134 251.338 66.1179 250.99C65.9257 250.639 65.6605 250.362 65.3224 250.16C64.9844 249.958 64.5982 249.855 64.1641 249.852C63.8525 249.848 63.5327 249.896 63.2045 249.996C62.8764 250.092 62.6063 250.216 62.3942 250.369L61.2408 250.23L61.8572 245.218H67.147V246.312H62.8913L62.5334 249.315H62.593C62.8018 249.149 63.0637 249.012 63.3786 248.902C63.6934 248.793 64.0215 248.738 64.3629 248.738C64.986 248.738 65.5412 248.887 66.0284 249.186C66.5189 249.481 66.9034 249.885 67.1818 250.399C67.4635 250.912 67.6044 251.499 67.6044 252.159C67.6044 252.808 67.4586 253.388 67.1669 253.899C66.8786 254.406 66.4808 254.807 65.9737 255.102C65.4666 255.393 64.8899 255.539 64.2436 255.539Z" fill="#004DA7"/>
<path d="M54.054 293.2V292.305L57.4148 288.626C57.8092 288.195 58.134 287.821 58.3892 287.503C58.6444 287.181 58.8333 286.879 58.956 286.598C59.0819 286.313 59.1449 286.014 59.1449 285.703C59.1449 285.345 59.0587 285.035 58.8864 284.773C58.7173 284.511 58.4853 284.309 58.1903 284.167C57.8954 284.024 57.5639 283.953 57.196 283.953C56.8049 283.953 56.4635 284.034 56.1719 284.196C55.8835 284.355 55.6598 284.579 55.5007 284.868C55.3449 285.156 55.267 285.494 55.267 285.882H54.0938C54.0938 285.285 54.2313 284.762 54.5064 284.311C54.7815 283.86 55.156 283.509 55.63 283.257C56.1072 283.005 56.6425 282.879 57.2358 282.879C57.8324 282.879 58.361 283.005 58.8217 283.257C59.2824 283.509 59.6437 283.848 59.9055 284.276C60.1674 284.704 60.2983 285.179 60.2983 285.703C60.2983 286.077 60.2304 286.444 60.0945 286.802C59.9619 287.156 59.7299 287.552 59.3984 287.99C59.0703 288.424 58.6146 288.954 58.0312 289.581L55.7443 292.027V292.106H60.4773V293.2H54.054ZM62.5305 293.2V292.305L65.8913 288.626C66.2857 288.195 66.6106 287.821 66.8658 287.503C67.121 287.181 67.3099 286.879 67.4325 286.598C67.5585 286.313 67.6214 286.014 67.6214 285.703C67.6214 285.345 67.5353 285.035 67.3629 284.773C67.1939 284.511 66.9619 284.309 66.6669 284.167C66.3719 284.024 66.0405 283.953 65.6726 283.953C65.2815 283.953 64.9401 284.034 64.6484 284.196C64.3601 284.355 64.1364 284.579 63.9773 284.868C63.8215 285.156 63.7436 285.494 63.7436 285.882H62.5703C62.5703 285.285 62.7079 284.762 62.983 284.311C63.258 283.86 63.6326 283.509 64.1065 283.257C64.5838 283.005 65.1191 282.879 65.7124 282.879C66.3089 282.879 66.8376 283.005 67.2983 283.257C67.759 283.509 68.1203 283.848 68.3821 284.276C68.6439 284.704 68.7749 285.179 68.7749 285.703C68.7749 286.077 68.7069 286.444 68.571 286.802C68.4384 287.156 68.2064 287.552 67.875 287.99C67.5469 288.424 67.0911 288.954 66.5078 289.581L64.2209 292.027V292.106H68.9538V293.2H62.5305Z" fill="#004DA7"/>
<path d="M53.554 331V330.105L56.9148 326.426C57.3092 325.995 57.634 325.621 57.8892 325.303C58.1444 324.981 58.3333 324.679 58.456 324.398C58.5819 324.113 58.6449 323.814 58.6449 323.503C58.6449 323.145 58.5587 322.835 58.3864 322.573C58.2173 322.311 57.9853 322.109 57.6903 321.967C57.3954 321.824 57.0639 321.753 56.696 321.753C56.3049 321.753 55.9635 321.834 55.6719 321.996C55.3835 322.156 55.1598 322.379 55.0007 322.668C54.8449 322.956 54.767 323.294 54.767 323.682H53.5938C53.5938 323.085 53.7313 322.562 54.0064 322.111C54.2815 321.66 54.656 321.309 55.13 321.057C55.6072 320.805 56.1425 320.679 56.7358 320.679C57.3324 320.679 57.861 320.805 58.3217 321.057C58.7824 321.309 59.1437 321.648 59.4055 322.076C59.6674 322.504 59.7983 322.979 59.7983 323.503C59.7983 323.877 59.7304 324.244 59.5945 324.602C59.4619 324.956 59.2299 325.352 58.8984 325.79C58.5703 326.224 58.1146 326.754 57.5312 327.381L55.2443 329.827V329.906H59.9773V331H53.554ZM65.272 320.679C65.6896 320.682 66.1072 320.762 66.5249 320.918C66.9425 321.073 67.3236 321.332 67.6683 321.693C68.013 322.051 68.2898 322.54 68.4986 323.16C68.7074 323.78 68.8118 324.557 68.8118 325.491C68.8118 326.396 68.7256 327.2 68.5533 327.903C68.3842 328.602 68.139 329.192 67.8175 329.673C67.4993 330.153 67.1115 330.518 66.6541 330.766C66.2 331.015 65.6863 331.139 65.1129 331.139C64.5429 331.139 64.0341 331.027 63.5866 330.801C63.1425 330.572 62.7779 330.256 62.4929 329.852C62.2112 329.444 62.0305 328.972 61.951 328.435H63.1641C63.2734 328.902 63.4905 329.288 63.8153 329.593C64.1435 329.895 64.576 330.045 65.1129 330.045C65.8984 330.045 66.5182 329.702 66.9723 329.016C67.4297 328.33 67.6584 327.361 67.6584 326.108H67.5788C67.3932 326.386 67.1728 326.627 66.9176 326.829C66.6624 327.031 66.379 327.187 66.0675 327.296C65.7559 327.406 65.4245 327.46 65.0732 327.46C64.4898 327.46 63.9545 327.316 63.4673 327.028C62.9834 326.736 62.5956 326.337 62.304 325.83C62.0156 325.319 61.8714 324.736 61.8714 324.08C61.8714 323.456 62.0107 322.886 62.2891 322.369C62.5708 321.849 62.9652 321.435 63.4723 321.126C63.9827 320.818 64.5826 320.669 65.272 320.679ZM65.272 321.773C64.8544 321.773 64.4782 321.877 64.1435 322.086C63.812 322.291 63.5485 322.57 63.353 322.921C63.1607 323.269 63.0646 323.655 63.0646 324.08C63.0646 324.504 63.1574 324.89 63.343 325.238C63.532 325.583 63.7888 325.858 64.1136 326.063C64.4418 326.265 64.8146 326.366 65.2322 326.366C65.5471 326.366 65.8404 326.305 66.1122 326.183C66.384 326.057 66.621 325.886 66.8232 325.67C67.0286 325.452 67.1894 325.205 67.3054 324.93C67.4214 324.651 67.4794 324.361 67.4794 324.06C67.4794 323.662 67.3833 323.289 67.1911 322.941C67.0021 322.593 66.7403 322.311 66.4055 322.096C66.0741 321.88 65.6963 321.773 65.272 321.773Z" fill="#004DA7"/>
<path opacity="0.5" d="M92.246 134.21V133.273H98.7915V134.21H96.0472V142H94.9904V134.21H92.246ZM106.15 133.273H107.207V139.051C107.207 139.648 107.066 140.18 106.785 140.649C106.506 141.115 106.113 141.483 105.604 141.753C105.096 142.02 104.499 142.153 103.815 142.153C103.13 142.153 102.533 142.02 102.025 141.753C101.516 141.483 101.121 141.115 100.84 140.649C100.562 140.18 100.423 139.648 100.423 139.051V133.273H101.479V138.966C101.479 139.392 101.573 139.771 101.761 140.104C101.948 140.433 102.215 140.693 102.562 140.884C102.911 141.071 103.329 141.165 103.815 141.165C104.3 141.165 104.718 141.071 105.067 140.884C105.417 140.693 105.684 140.433 105.869 140.104C106.056 139.771 106.15 139.392 106.15 138.966V133.273ZM109.317 142V133.273H114.584V134.21H110.374V137.159H114.311V138.097H110.374V141.062H114.652V142H109.317Z" fill="#004DA7"/>
<path d="M100.22 179.8V178.905L103.581 175.226C103.976 174.795 104.301 174.421 104.556 174.103C104.811 173.781 105 173.479 105.122 173.198C105.248 172.913 105.311 172.614 105.311 172.303C105.311 171.945 105.225 171.635 105.053 171.373C104.884 171.111 104.652 170.909 104.357 170.767C104.062 170.624 103.73 170.553 103.363 170.553C102.971 170.553 102.63 170.634 102.338 170.796C102.05 170.956 101.826 171.179 101.667 171.468C101.511 171.756 101.434 172.094 101.434 172.482H100.26C100.26 171.885 100.398 171.362 100.673 170.911C100.948 170.46 101.323 170.109 101.796 169.857C102.274 169.605 102.809 169.479 103.402 169.479C103.999 169.479 104.528 169.605 104.988 169.857C105.449 170.109 105.81 170.448 106.072 170.876C106.334 171.304 106.465 171.779 106.465 172.303C106.465 172.677 106.397 173.044 106.261 173.402C106.128 173.756 105.896 174.152 105.565 174.59C105.237 175.024 104.781 175.554 104.198 176.181L101.911 178.627V178.706H106.644V179.8H100.22Z" fill="#004DA7"/>
<path d="M103.462 207.279C103.88 207.282 104.297 207.362 104.715 207.518C105.132 207.673 105.514 207.932 105.858 208.293C106.203 208.651 106.48 209.14 106.689 209.76C106.897 210.38 107.002 211.157 107.002 212.091C107.002 212.996 106.916 213.8 106.743 214.503C106.574 215.202 106.329 215.792 106.007 216.273C105.689 216.753 105.301 217.118 104.844 217.366C104.39 217.615 103.876 217.739 103.303 217.739C102.733 217.739 102.224 217.626 101.777 217.401C101.332 217.172 100.968 216.856 100.683 216.452C100.401 216.044 100.22 215.572 100.141 215.035H101.354C101.463 215.502 101.68 215.888 102.005 216.193C102.333 216.495 102.766 216.645 103.303 216.645C104.088 216.645 104.708 216.302 105.162 215.616C105.62 214.93 105.848 213.961 105.848 212.708H105.769C105.583 212.986 105.363 213.227 105.108 213.429C104.852 213.631 104.569 213.787 104.257 213.896C103.946 214.006 103.614 214.06 103.263 214.06C102.68 214.06 102.144 213.916 101.657 213.628C101.173 213.336 100.786 212.937 100.494 212.43C100.206 211.919 100.061 211.336 100.061 210.68C100.061 210.056 100.201 209.486 100.479 208.969C100.761 208.449 101.155 208.035 101.662 207.726C102.173 207.418 102.773 207.269 103.462 207.279ZM103.462 208.373C103.044 208.373 102.668 208.477 102.333 208.686C102.002 208.891 101.738 209.17 101.543 209.521C101.351 209.869 101.255 210.255 101.255 210.68C101.255 211.104 101.347 211.49 101.533 211.838C101.722 212.183 101.979 212.458 102.304 212.663C102.632 212.865 103.005 212.966 103.422 212.966C103.737 212.966 104.03 212.905 104.302 212.783C104.574 212.657 104.811 212.486 105.013 212.27C105.219 212.052 105.379 211.805 105.495 211.53C105.611 211.251 105.669 210.961 105.669 210.66C105.669 210.262 105.573 209.889 105.381 209.541C105.192 209.193 104.93 208.911 104.595 208.696C104.264 208.48 103.886 208.373 103.462 208.373Z" fill="#004DA7"/>
<path d="M100.3 245.218V255.4H99.0671V246.511H99.0074L96.5216 248.161V246.909L99.0671 245.218H100.3ZM106.609 255.539C106.191 255.533 105.774 255.453 105.356 255.301C104.939 255.148 104.557 254.891 104.213 254.53C103.868 254.165 103.591 253.673 103.382 253.053C103.174 252.43 103.069 251.648 103.069 250.707C103.069 249.805 103.154 249.007 103.323 248.311C103.492 247.611 103.737 247.023 104.059 246.546C104.38 246.065 104.768 245.7 105.222 245.452C105.679 245.203 106.195 245.079 106.768 245.079C107.338 245.079 107.845 245.193 108.289 245.422C108.737 245.647 109.101 245.962 109.383 246.367C109.665 246.771 109.847 247.237 109.93 247.764H108.717C108.604 247.306 108.385 246.927 108.061 246.625C107.736 246.324 107.305 246.173 106.768 246.173C105.979 246.173 105.358 246.516 104.904 247.202C104.453 247.888 104.226 248.851 104.223 250.09H104.302C104.488 249.809 104.708 249.568 104.963 249.369C105.222 249.167 105.507 249.012 105.818 248.902C106.13 248.793 106.46 248.738 106.808 248.738C107.391 248.738 107.925 248.884 108.409 249.176C108.893 249.464 109.28 249.863 109.572 250.374C109.864 250.881 110.01 251.463 110.01 252.119C110.01 252.749 109.869 253.325 109.587 253.849C109.305 254.369 108.909 254.784 108.399 255.092C107.892 255.397 107.295 255.546 106.609 255.539ZM106.609 254.445C107.027 254.445 107.401 254.341 107.733 254.132C108.067 253.923 108.331 253.643 108.523 253.292C108.719 252.941 108.816 252.55 108.816 252.119C108.816 251.698 108.722 251.315 108.533 250.97C108.347 250.622 108.091 250.346 107.762 250.14C107.438 249.935 107.066 249.832 106.649 249.832C106.334 249.832 106.041 249.895 105.769 250.021C105.497 250.143 105.258 250.312 105.053 250.528C104.851 250.743 104.692 250.99 104.576 251.269C104.46 251.544 104.402 251.834 104.402 252.139C104.402 252.543 104.496 252.921 104.685 253.272C104.877 253.624 105.139 253.907 105.47 254.122C105.805 254.338 106.185 254.445 106.609 254.445Z" fill="#004DA7"/>
<path d="M95.7205 293.2V292.305L99.0813 288.626C99.4757 288.195 99.8005 287.821 100.056 287.503C100.311 287.181 100.5 286.879 100.622 286.598C100.748 286.313 100.811 286.014 100.811 285.703C100.811 285.345 100.725 285.035 100.553 284.773C100.384 284.511 100.152 284.309 99.8568 284.167C99.5619 284.024 99.2304 283.953 98.8625 283.953C98.4714 283.953 98.13 284.034 97.8384 284.196C97.55 284.355 97.3263 284.579 97.1672 284.868C97.0114 285.156 96.9335 285.494 96.9335 285.882H95.7603C95.7603 285.285 95.8978 284.762 96.1729 284.311C96.448 283.86 96.8225 283.509 97.2965 283.257C97.7737 283.005 98.309 282.879 98.9023 282.879C99.4989 282.879 100.028 283.005 100.488 283.257C100.949 283.509 101.31 283.848 101.572 284.276C101.834 284.704 101.965 285.179 101.965 285.703C101.965 286.077 101.897 286.444 101.761 286.802C101.628 287.156 101.396 287.552 101.065 287.99C100.737 288.424 100.281 288.954 99.6978 289.581L97.4108 292.027V292.106H102.144V293.2H95.7205ZM107.637 293.339C106.981 293.339 106.396 293.226 105.882 293.001C105.372 292.776 104.966 292.462 104.664 292.061C104.366 291.657 104.204 291.188 104.177 290.654H105.43C105.457 290.983 105.569 291.266 105.768 291.505C105.967 291.74 106.227 291.922 106.549 292.052C106.87 292.181 107.226 292.245 107.617 292.245C108.055 292.245 108.443 292.169 108.781 292.017C109.119 291.864 109.384 291.652 109.576 291.38C109.769 291.109 109.865 290.794 109.865 290.436C109.865 290.061 109.772 289.731 109.586 289.446C109.401 289.158 109.129 288.933 108.771 288.77C108.413 288.608 107.975 288.527 107.458 288.527H106.643V287.433H107.458C107.863 287.433 108.217 287.36 108.522 287.214C108.831 287.068 109.071 286.863 109.243 286.598C109.419 286.333 109.507 286.021 109.507 285.663C109.507 285.318 109.43 285.018 109.278 284.763C109.126 284.508 108.91 284.309 108.632 284.167C108.357 284.024 108.032 283.953 107.657 283.953C107.306 283.953 106.975 284.017 106.663 284.147C106.355 284.273 106.103 284.457 105.907 284.699C105.712 284.937 105.606 285.226 105.589 285.564H104.396C104.416 285.03 104.577 284.563 104.878 284.162C105.18 283.757 105.574 283.442 106.061 283.217C106.552 282.992 107.091 282.879 107.677 282.879C108.307 282.879 108.847 283.007 109.298 283.262C109.749 283.514 110.095 283.847 110.337 284.261C110.579 284.675 110.7 285.123 110.7 285.603C110.7 286.177 110.549 286.666 110.247 287.07C109.949 287.474 109.543 287.754 109.029 287.91V287.99C109.672 288.096 110.175 288.369 110.536 288.81C110.897 289.248 111.078 289.789 111.078 290.436C111.078 290.989 110.927 291.486 110.625 291.927C110.327 292.365 109.919 292.709 109.402 292.961C108.885 293.213 108.297 293.339 107.637 293.339Z" fill="#004DA7"/>
<path d="M99.1608 331.139C98.5046 331.139 97.9196 331.027 97.4059 330.801C96.8954 330.576 96.4894 330.263 96.1878 329.862C95.8895 329.457 95.7271 328.988 95.7006 328.455H96.9534C96.98 328.783 97.0926 329.066 97.2915 329.305C97.4904 329.54 97.7505 329.722 98.072 329.852C98.3935 329.981 98.7498 330.045 99.1409 330.045C99.5784 330.045 99.9662 329.969 100.304 329.817C100.642 329.664 100.908 329.452 101.1 329.18C101.292 328.909 101.388 328.594 101.388 328.236C101.388 327.861 101.295 327.531 101.11 327.246C100.924 326.958 100.652 326.733 100.294 326.57C99.9364 326.408 99.4989 326.327 98.9818 326.327H98.1665V325.233H98.9818C99.3862 325.233 99.7408 325.16 100.046 325.014C100.354 324.868 100.594 324.663 100.767 324.398C100.942 324.133 101.03 323.821 101.03 323.463C101.03 323.118 100.954 322.818 100.801 322.563C100.649 322.308 100.434 322.109 100.155 321.967C99.88 321.824 99.5552 321.753 99.1807 321.753C98.8294 321.753 98.4979 321.817 98.1864 321.947C97.8782 322.073 97.6263 322.257 97.4307 322.499C97.2352 322.737 97.1291 323.026 97.1125 323.364H95.9193C95.9392 322.83 96.1 322.363 96.4016 321.962C96.7032 321.557 97.0976 321.242 97.5848 321.017C98.0754 320.792 98.6139 320.679 99.2006 320.679C99.8303 320.679 100.371 320.807 100.821 321.062C101.272 321.314 101.618 321.647 101.86 322.061C102.102 322.475 102.223 322.923 102.223 323.403C102.223 323.977 102.073 324.466 101.771 324.87C101.473 325.274 101.067 325.554 100.553 325.71V325.79C101.196 325.896 101.698 326.169 102.059 326.61C102.421 327.048 102.601 327.589 102.601 328.236C102.601 328.789 102.45 329.286 102.149 329.727C101.85 330.165 101.443 330.509 100.926 330.761C100.409 331.013 99.8204 331.139 99.1608 331.139ZM107.956 331.139C107.207 331.139 106.568 330.935 106.042 330.528C105.515 330.117 105.112 329.522 104.833 328.743C104.555 327.961 104.416 327.016 104.416 325.909C104.416 324.809 104.555 323.869 104.833 323.09C105.115 322.308 105.519 321.711 106.046 321.3C106.577 320.886 107.213 320.679 107.956 320.679C108.698 320.679 109.333 320.886 109.86 321.3C110.39 321.711 110.794 322.308 111.073 323.09C111.354 323.869 111.495 324.809 111.495 325.909C111.495 327.016 111.356 327.961 111.078 328.743C110.799 329.522 110.397 330.117 109.87 330.528C109.343 330.935 108.705 331.139 107.956 331.139ZM107.956 330.045C108.698 330.045 109.275 329.687 109.686 328.972C110.097 328.256 110.302 327.235 110.302 325.909C110.302 325.027 110.208 324.277 110.019 323.657C109.833 323.037 109.565 322.565 109.213 322.24C108.865 321.915 108.446 321.753 107.956 321.753C107.22 321.753 106.645 322.116 106.23 322.842C105.816 323.564 105.609 324.587 105.609 325.909C105.609 326.791 105.702 327.54 105.887 328.156C106.073 328.773 106.34 329.242 106.688 329.563C107.039 329.885 107.462 330.045 107.956 330.045Z" fill="#004DA7"/>
<g clip-path="url(#clip2_1700_29)">
<path opacity="0.5" d="M133.976 142L131.589 133.273H132.663L134.487 140.381H134.572L136.43 133.273H137.623L139.481 140.381H139.566L141.39 133.273H142.464L140.078 142H138.987L137.061 135.045H136.993L135.066 142H133.976ZM143.781 142V133.273H149.048V134.21H144.838V137.159H148.775V138.097H144.838V141.062H149.116V142H143.781ZM153.646 142H150.953V133.273H153.765C154.612 133.273 155.336 133.447 155.939 133.797C156.541 134.143 157.003 134.642 157.324 135.293C157.645 135.94 157.805 136.716 157.805 137.619C157.805 138.528 157.643 139.311 157.319 139.967C156.995 140.621 156.524 141.124 155.905 141.476C155.285 141.825 154.532 142 153.646 142ZM152.01 141.062H153.578C154.299 141.062 154.897 140.923 155.372 140.645C155.846 140.366 156.2 139.97 156.433 139.456C156.666 138.942 156.782 138.33 156.782 137.619C156.782 136.915 156.667 136.308 156.437 135.8C156.207 135.288 155.863 134.896 155.406 134.624C154.949 134.348 154.379 134.21 153.697 134.21H152.01V141.062Z" fill="#004DA7"/>
<path d="M145.328 179.939C144.672 179.939 144.087 179.827 143.573 179.601C143.062 179.376 142.656 179.063 142.355 178.662C142.057 178.257 141.894 177.788 141.868 177.255H143.12C143.147 177.583 143.26 177.866 143.458 178.105C143.657 178.34 143.918 178.522 144.239 178.652C144.561 178.781 144.917 178.846 145.308 178.846C145.745 178.846 146.133 178.769 146.471 178.617C146.809 178.464 147.075 178.252 147.267 177.98C147.459 177.709 147.555 177.394 147.555 177.036C147.555 176.661 147.462 176.332 147.277 176.046C147.091 175.758 146.819 175.533 146.461 175.37C146.103 175.208 145.666 175.127 145.149 175.127H144.333V174.033H145.149C145.553 174.033 145.908 173.96 146.213 173.814C146.521 173.668 146.761 173.463 146.934 173.198C147.109 172.933 147.197 172.621 147.197 172.263C147.197 171.918 147.121 171.618 146.968 171.363C146.816 171.108 146.601 170.909 146.322 170.767C146.047 170.624 145.722 170.553 145.348 170.553C144.996 170.553 144.665 170.618 144.353 170.747C144.045 170.873 143.793 171.057 143.598 171.299C143.402 171.537 143.296 171.826 143.28 172.164H142.086C142.106 171.63 142.267 171.163 142.569 170.762C142.87 170.357 143.265 170.042 143.752 169.817C144.242 169.592 144.781 169.479 145.368 169.479C145.997 169.479 146.538 169.607 146.988 169.862C147.439 170.114 147.785 170.447 148.027 170.861C148.269 171.275 148.39 171.723 148.39 172.203C148.39 172.777 148.24 173.266 147.938 173.67C147.64 174.074 147.234 174.354 146.72 174.51V174.59C147.363 174.696 147.865 174.969 148.226 175.41C148.588 175.848 148.768 176.39 148.768 177.036C148.768 177.589 148.617 178.087 148.316 178.527C148.017 178.965 147.61 179.31 147.093 179.561C146.576 179.813 145.987 179.939 145.328 179.939Z" fill="#004DA7"/>
<path d="M141.967 207.418V217.6H140.734V208.711H140.674L138.189 210.361V209.108L140.734 207.418H141.967ZM148.216 217.739C147.467 217.739 146.829 217.535 146.302 217.128C145.775 216.717 145.373 216.122 145.094 215.343C144.816 214.561 144.677 213.616 144.677 212.509C144.677 211.409 144.816 210.469 145.094 209.69C145.376 208.908 145.78 208.311 146.307 207.9C146.838 207.486 147.474 207.279 148.216 207.279C148.959 207.279 149.593 207.486 150.12 207.9C150.651 208.311 151.055 208.908 151.333 209.69C151.615 210.469 151.756 211.409 151.756 212.509C151.756 213.616 151.617 214.561 151.338 215.343C151.06 216.122 150.657 216.717 150.13 217.128C149.603 217.535 148.965 217.739 148.216 217.739ZM148.216 216.645C148.959 216.645 149.535 216.287 149.946 215.572C150.357 214.856 150.563 213.835 150.563 212.509C150.563 211.627 150.468 210.877 150.28 210.257C150.094 209.637 149.825 209.165 149.474 208.84C149.126 208.515 148.707 208.353 148.216 208.353C147.481 208.353 146.905 208.716 146.491 209.442C146.077 210.164 145.87 211.187 145.87 212.509C145.87 213.391 145.963 214.14 146.148 214.756C146.334 215.373 146.601 215.842 146.949 216.163C147.3 216.485 147.722 216.645 148.216 216.645Z" fill="#004DA7"/>
<path d="M142.467 245.218V255.4H141.234V246.511H141.174L138.689 248.161V246.909L141.234 245.218H142.467ZM145.713 255.4L150.267 246.392V246.312H145.017V245.218H151.54V246.372L147.006 255.4H145.713Z" fill="#004DA7"/>
<path d="M137.387 293.2V292.305L140.748 288.626C141.143 288.195 141.467 287.821 141.723 287.503C141.978 287.181 142.167 286.879 142.289 286.598C142.415 286.313 142.478 286.014 142.478 285.703C142.478 285.345 142.392 285.035 142.22 284.773C142.051 284.511 141.819 284.309 141.524 284.167C141.229 284.024 140.897 283.953 140.53 283.953C140.138 283.953 139.797 284.034 139.505 284.196C139.217 284.355 138.993 284.579 138.834 284.868C138.678 285.156 138.601 285.494 138.601 285.882H137.427C137.427 285.285 137.565 284.762 137.84 284.311C138.115 283.86 138.49 283.509 138.963 283.257C139.441 283.005 139.976 282.879 140.569 282.879C141.166 282.879 141.695 283.005 142.155 283.257C142.616 283.509 142.977 283.848 143.239 284.276C143.501 284.704 143.632 285.179 143.632 285.703C143.632 286.077 143.564 286.444 143.428 286.802C143.295 287.156 143.063 287.552 142.732 287.99C142.404 288.424 141.948 288.954 141.365 289.581L139.078 292.027V292.106H143.811V293.2H137.387ZM145.407 291.112V290.098L149.881 283.018H150.617V284.589H150.12L146.739 289.939V290.018H152.765V291.112H145.407ZM150.199 293.2V290.804V290.331V283.018H151.373V293.2H150.199Z" fill="#004DA7"/>
<path d="M141.828 331.139C141.172 331.139 140.587 331.027 140.073 330.801C139.562 330.576 139.156 330.263 138.855 329.862C138.557 329.457 138.394 328.988 138.368 328.455H139.62C139.647 328.783 139.76 329.066 139.958 329.305C140.157 329.54 140.418 329.722 140.739 329.852C141.061 329.981 141.417 330.045 141.808 330.045C142.245 330.045 142.633 329.969 142.971 329.817C143.309 329.664 143.575 329.452 143.767 329.18C143.959 328.909 144.055 328.594 144.055 328.236C144.055 327.861 143.962 327.531 143.777 327.246C143.591 326.958 143.319 326.733 142.961 326.57C142.603 326.408 142.166 326.327 141.649 326.327H140.833V325.233H141.649C142.053 325.233 142.408 325.16 142.713 325.014C143.021 324.868 143.261 324.663 143.434 324.398C143.609 324.133 143.697 323.821 143.697 323.463C143.697 323.118 143.621 322.818 143.468 322.563C143.316 322.308 143.101 322.109 142.822 321.967C142.547 321.824 142.222 321.753 141.848 321.753C141.496 321.753 141.165 321.817 140.853 321.947C140.545 322.073 140.293 322.257 140.098 322.499C139.902 322.737 139.796 323.026 139.78 323.364H138.586C138.606 322.83 138.767 322.363 139.069 321.962C139.37 321.557 139.765 321.242 140.252 321.017C140.742 320.792 141.281 320.679 141.868 320.679C142.497 320.679 143.038 320.807 143.488 321.062C143.939 321.314 144.285 321.647 144.527 322.061C144.769 322.475 144.89 322.923 144.89 323.403C144.89 323.977 144.74 324.466 144.438 324.87C144.14 325.274 143.734 325.554 143.22 325.71V325.79C143.863 325.896 144.365 326.169 144.726 326.61C145.088 327.048 145.268 327.589 145.268 328.236C145.268 328.789 145.117 329.286 144.816 329.727C144.517 330.165 144.11 330.509 143.593 330.761C143.076 331.013 142.487 331.139 141.828 331.139ZM150.881 320.818V331H149.648V322.111H149.588L147.103 323.761V322.509L149.648 320.818H150.881Z" fill="#004DA7"/>
</g>
<path opacity="0.5" d="M175.58 134.21V133.273H182.125V134.21H179.381V142H178.324V134.21H175.58ZM183.756 142V133.273H184.813V137.159H189.466V133.273H190.523V142H189.466V138.097H184.813V142H183.756ZM198.366 133.273H199.423V139.051C199.423 139.648 199.282 140.18 199.001 140.649C198.723 141.115 198.329 141.483 197.821 141.753C197.312 142.02 196.716 142.153 196.031 142.153C195.346 142.153 194.75 142.02 194.241 141.753C193.733 141.483 193.338 141.115 193.056 140.649C192.778 140.18 192.639 139.648 192.639 139.051V133.273H193.696V138.966C193.696 139.392 193.789 139.771 193.977 140.104C194.164 140.433 194.431 140.693 194.778 140.884C195.127 141.071 195.545 141.165 196.031 141.165C196.517 141.165 196.934 141.071 197.284 140.884C197.633 140.693 197.9 140.433 198.085 140.104C198.272 139.771 198.366 139.392 198.366 138.966V133.273Z" fill="#004DA7"/>
<path d="M184.315 177.712V176.698L188.79 169.618H189.526V171.189H189.028L185.648 176.539V176.618H191.673V177.712H184.315ZM189.108 179.8V177.404V176.931V169.618H190.281V179.8H189.108Z" fill="#004DA7"/>
<path d="M185.634 207.418V217.6H184.401V208.711H184.341L181.855 210.361V209.108L184.401 207.418H185.634ZM192.141 207.418V217.6H190.908V208.711H190.849L188.363 210.361V209.108L190.908 207.418H192.141Z" fill="#004DA7"/>
<path d="M184.634 245.218V255.4H183.401V246.511H183.341L180.855 248.161V246.909L183.401 245.218H184.634ZM190.823 255.539C190.14 255.539 189.537 255.418 189.013 255.176C188.493 254.931 188.087 254.595 187.795 254.167C187.504 253.736 187.36 253.246 187.363 252.695C187.36 252.265 187.444 251.867 187.616 251.502C187.789 251.134 188.024 250.828 188.322 250.583C188.624 250.334 188.96 250.177 189.332 250.11V250.051C188.844 249.925 188.457 249.651 188.168 249.23C187.88 248.806 187.737 248.324 187.741 247.784C187.737 247.267 187.868 246.804 188.134 246.396C188.399 245.989 188.763 245.667 189.227 245.432C189.695 245.197 190.227 245.079 190.823 245.079C191.413 245.079 191.94 245.197 192.404 245.432C192.868 245.667 193.233 245.989 193.498 246.396C193.766 246.804 193.902 247.267 193.906 247.784C193.902 248.324 193.755 248.806 193.463 249.23C193.175 249.651 192.792 249.925 192.315 250.051V250.11C192.683 250.177 193.014 250.334 193.309 250.583C193.604 250.828 193.839 251.134 194.015 251.502C194.191 251.867 194.28 252.265 194.283 252.695C194.28 253.246 194.131 253.736 193.836 254.167C193.544 254.595 193.138 254.931 192.618 255.176C192.101 255.418 191.503 255.539 190.823 255.539ZM190.823 254.445C191.284 254.445 191.682 254.371 192.016 254.222C192.351 254.073 192.61 253.862 192.792 253.59C192.974 253.319 193.067 253 193.07 252.636C193.067 252.251 192.968 251.912 192.772 251.617C192.576 251.322 192.31 251.09 191.972 250.921C191.637 250.752 191.254 250.667 190.823 250.667C190.389 250.667 190.001 250.752 189.66 250.921C189.322 251.09 189.055 251.322 188.859 251.617C188.667 251.912 188.573 252.251 188.576 252.636C188.573 253 188.661 253.319 188.839 253.59C189.022 253.862 189.282 254.073 189.62 254.222C189.958 254.371 190.359 254.445 190.823 254.445ZM190.823 249.613C191.188 249.613 191.511 249.54 191.793 249.394C192.078 249.249 192.301 249.045 192.464 248.783C192.626 248.521 192.709 248.214 192.712 247.863C192.709 247.518 192.628 247.218 192.469 246.963C192.31 246.705 192.089 246.506 191.808 246.367C191.526 246.224 191.198 246.153 190.823 246.153C190.442 246.153 190.109 246.224 189.824 246.367C189.539 246.506 189.318 246.705 189.163 246.963C189.007 247.218 188.931 247.518 188.934 247.863C188.931 248.214 189.009 248.521 189.168 248.783C189.33 249.045 189.554 249.249 189.839 249.394C190.124 249.54 190.452 249.613 190.823 249.613Z" fill="#004DA7"/>
<path d="M180.554 293.2V292.305L183.915 288.626C184.309 288.195 184.634 287.821 184.889 287.503C185.144 287.181 185.333 286.879 185.456 286.598C185.582 286.313 185.645 286.014 185.645 285.703C185.645 285.345 185.559 285.035 185.386 284.773C185.217 284.511 184.985 284.309 184.69 284.167C184.395 284.024 184.064 283.953 183.696 283.953C183.305 283.953 182.964 284.034 182.672 284.196C182.384 284.355 182.16 284.579 182.001 284.868C181.845 285.156 181.767 285.494 181.767 285.882H180.594C180.594 285.285 180.731 284.762 181.006 284.311C181.281 283.86 181.656 283.509 182.13 283.257C182.607 283.005 183.143 282.879 183.736 282.879C184.332 282.879 184.861 283.005 185.322 283.257C185.782 283.509 186.144 283.848 186.406 284.276C186.667 284.704 186.798 285.179 186.798 285.703C186.798 286.077 186.73 286.444 186.594 286.802C186.462 287.156 186.23 287.552 185.898 287.99C185.57 288.424 185.115 288.954 184.531 289.581L182.244 292.027V292.106H186.977V293.2H180.554ZM192.212 293.339C191.629 293.339 191.104 293.223 190.636 292.991C190.169 292.759 189.795 292.441 189.513 292.037C189.231 291.632 189.077 291.172 189.05 290.654H190.244C190.29 291.115 190.499 291.496 190.87 291.798C191.245 292.096 191.692 292.245 192.212 292.245C192.63 292.245 193.001 292.148 193.326 291.952C193.654 291.757 193.911 291.488 194.097 291.147C194.286 290.802 194.38 290.413 194.38 289.978C194.38 289.534 194.282 289.138 194.087 288.79C193.894 288.439 193.629 288.162 193.291 287.96C192.953 287.758 192.567 287.655 192.133 287.652C191.821 287.648 191.501 287.696 191.173 287.796C190.845 287.892 190.575 288.016 190.363 288.169L189.21 288.029L189.826 283.018H195.116V284.112H190.86L190.502 287.115H190.562C190.771 286.949 191.032 286.811 191.347 286.702C191.662 286.593 191.99 286.538 192.332 286.538C192.955 286.538 193.51 286.687 193.997 286.985C194.488 287.28 194.872 287.685 195.151 288.199C195.432 288.712 195.573 289.299 195.573 289.958C195.573 290.608 195.427 291.188 195.136 291.699C194.847 292.206 194.45 292.607 193.942 292.902C193.435 293.193 192.859 293.339 192.212 293.339Z" fill="#004DA7"/>
<path opacity="0.5" d="M189.134 320.818V331H187.901V322.111H187.841L185.355 323.761V322.509L187.901 320.818H189.134Z" fill="#004DA7"/>
<path opacity="0.5" d="M217.723 142V133.273H222.956V134.21H218.78V137.159H222.564V138.097H218.78V142H217.723ZM224.766 142V133.273H227.715C228.397 133.273 228.957 133.389 229.394 133.622C229.832 133.852 230.155 134.169 230.366 134.572C230.576 134.976 230.681 135.435 230.681 135.949C230.681 136.463 230.576 136.919 230.366 137.317C230.155 137.714 229.833 138.027 229.398 138.254C228.964 138.479 228.408 138.591 227.732 138.591H225.346V137.636H227.698C228.164 137.636 228.539 137.568 228.823 137.432C229.11 137.295 229.317 137.102 229.445 136.852C229.576 136.599 229.641 136.298 229.641 135.949C229.641 135.599 229.576 135.294 229.445 135.033C229.315 134.771 229.106 134.57 228.819 134.428C228.532 134.283 228.153 134.21 227.681 134.21H225.823V142H224.766ZM228.874 138.08L231.022 142H229.795L227.681 138.08H228.874ZM233.499 133.273V142H232.442V133.273H233.499Z" fill="#004DA7"/>
<path d="M225.402 179.939C224.819 179.939 224.294 179.823 223.826 179.591C223.359 179.359 222.984 179.041 222.703 178.637C222.421 178.232 222.267 177.772 222.24 177.255H223.434C223.48 177.715 223.689 178.096 224.06 178.398C224.434 178.696 224.882 178.846 225.402 178.846C225.82 178.846 226.191 178.748 226.516 178.552C226.844 178.357 227.101 178.088 227.287 177.747C227.475 177.402 227.57 177.013 227.57 176.578C227.57 176.134 227.472 175.738 227.277 175.39C227.084 175.039 226.819 174.762 226.481 174.56C226.143 174.358 225.757 174.255 225.323 174.252C225.011 174.248 224.691 174.296 224.363 174.396C224.035 174.492 223.765 174.616 223.553 174.769L222.399 174.63L223.016 169.618H228.306V170.712H224.05L223.692 173.715H223.752C223.961 173.549 224.222 173.412 224.537 173.302C224.852 173.193 225.18 173.138 225.522 173.138C226.145 173.138 226.7 173.287 227.187 173.586C227.678 173.881 228.062 174.285 228.341 174.799C228.622 175.312 228.763 175.899 228.763 176.559C228.763 177.208 228.617 177.788 228.326 178.299C228.037 178.806 227.64 179.207 227.132 179.502C226.625 179.793 226.049 179.939 225.402 179.939Z" fill="#004DA7"/>
<path d="M222.8 207.418V217.6H221.567V208.711H221.507L219.022 210.361V209.108L221.567 207.418H222.8ZM225.728 217.6V216.705L229.089 213.026C229.484 212.595 229.808 212.221 230.064 211.903C230.319 211.581 230.508 211.279 230.63 210.998C230.756 210.713 230.819 210.414 230.819 210.103C230.819 209.745 230.733 209.435 230.561 209.173C230.392 208.911 230.16 208.709 229.865 208.567C229.57 208.424 229.238 208.353 228.87 208.353C228.479 208.353 228.138 208.434 227.846 208.596C227.558 208.756 227.334 208.979 227.175 209.268C227.019 209.556 226.941 209.894 226.941 210.282H225.768C225.768 209.685 225.906 209.162 226.181 208.711C226.456 208.26 226.83 207.909 227.304 207.657C227.782 207.405 228.317 207.279 228.91 207.279C229.507 207.279 230.035 207.405 230.496 207.657C230.957 207.909 231.318 208.248 231.58 208.676C231.842 209.104 231.973 209.579 231.973 210.103C231.973 210.477 231.905 210.844 231.769 211.202C231.636 211.556 231.404 211.952 231.073 212.39C230.745 212.824 230.289 213.354 229.706 213.981L227.419 216.427V216.506H232.152V217.6H225.728Z" fill="#004DA7"/>
<path d="M222.3 245.218V255.4H221.067V246.511H221.007L218.522 248.161V246.909L221.067 245.218H222.3ZM228.47 245.079C228.887 245.082 229.305 245.162 229.723 245.318C230.14 245.473 230.521 245.732 230.866 246.093C231.211 246.451 231.488 246.94 231.696 247.56C231.905 248.18 232.01 248.957 232.01 249.892C232.01 250.796 231.923 251.6 231.751 252.303C231.582 253.002 231.337 253.592 231.015 254.073C230.697 254.553 230.309 254.918 229.852 255.166C229.398 255.415 228.884 255.539 228.311 255.539C227.741 255.539 227.232 255.427 226.784 255.201C226.34 254.972 225.976 254.656 225.691 254.252C225.409 253.844 225.228 253.372 225.149 252.835H226.362C226.471 253.302 226.688 253.688 227.013 253.993C227.341 254.295 227.774 254.445 228.311 254.445C229.096 254.445 229.716 254.102 230.17 253.416C230.627 252.73 230.856 251.761 230.856 250.508H230.777C230.591 250.786 230.371 251.027 230.115 251.229C229.86 251.431 229.577 251.587 229.265 251.696C228.954 251.806 228.622 251.86 228.271 251.86C227.688 251.86 227.152 251.716 226.665 251.428C226.181 251.136 225.793 250.737 225.502 250.23C225.213 249.719 225.069 249.136 225.069 248.48C225.069 247.856 225.208 247.286 225.487 246.769C225.769 246.249 226.163 245.835 226.67 245.526C227.18 245.218 227.78 245.069 228.47 245.079ZM228.47 246.173C228.052 246.173 227.676 246.277 227.341 246.486C227.01 246.691 226.746 246.97 226.551 247.321C226.359 247.669 226.262 248.055 226.262 248.48C226.262 248.904 226.355 249.29 226.541 249.638C226.73 249.983 226.987 250.258 227.311 250.463C227.64 250.665 228.012 250.767 228.43 250.767C228.745 250.767 229.038 250.705 229.31 250.583C229.582 250.457 229.819 250.286 230.021 250.07C230.226 249.852 230.387 249.605 230.503 249.33C230.619 249.051 230.677 248.761 230.677 248.46C230.677 248.062 230.581 247.689 230.389 247.341C230.2 246.993 229.938 246.711 229.603 246.496C229.272 246.28 228.894 246.173 228.47 246.173Z" fill="#004DA7"/>
<path d="M217.72 293.2V292.305L221.081 288.626C221.476 288.195 221.801 287.821 222.056 287.503C222.311 287.181 222.5 286.879 222.622 286.598C222.748 286.313 222.811 286.014 222.811 285.703C222.811 285.345 222.725 285.035 222.553 284.773C222.384 284.511 222.152 284.309 221.857 284.167C221.562 284.024 221.23 283.953 220.863 283.953C220.471 283.953 220.13 284.034 219.838 284.196C219.55 284.355 219.326 284.579 219.167 284.868C219.011 285.156 218.934 285.494 218.934 285.882H217.76C217.76 285.285 217.898 284.762 218.173 284.311C218.448 283.86 218.823 283.509 219.296 283.257C219.774 283.005 220.309 282.879 220.902 282.879C221.499 282.879 222.028 283.005 222.488 283.257C222.949 283.509 223.31 283.848 223.572 284.276C223.834 284.704 223.965 285.179 223.965 285.703C223.965 286.077 223.897 286.444 223.761 286.802C223.628 287.156 223.396 287.552 223.065 287.99C222.737 288.424 222.281 288.954 221.698 289.581L219.411 292.027V292.106H224.144V293.2H217.72ZM229.578 293.339C229.16 293.333 228.742 293.253 228.325 293.101C227.907 292.948 227.526 292.691 227.181 292.33C226.837 291.965 226.56 291.473 226.351 290.853C226.142 290.23 226.038 289.448 226.038 288.507C226.038 287.605 226.122 286.806 226.292 286.11C226.461 285.411 226.706 284.823 227.027 284.346C227.349 283.865 227.737 283.5 228.191 283.252C228.648 283.003 229.163 282.879 229.737 282.879C230.307 282.879 230.814 282.993 231.258 283.222C231.706 283.447 232.07 283.762 232.352 284.167C232.634 284.571 232.816 285.037 232.899 285.564H231.686C231.573 285.106 231.354 284.727 231.029 284.425C230.705 284.123 230.274 283.973 229.737 283.973C228.948 283.973 228.327 284.316 227.872 285.002C227.422 285.688 227.195 286.651 227.191 287.89H227.271C227.457 287.609 227.677 287.368 227.932 287.169C228.191 286.967 228.476 286.811 228.787 286.702C229.099 286.593 229.429 286.538 229.777 286.538C230.36 286.538 230.894 286.684 231.377 286.976C231.861 287.264 232.249 287.663 232.541 288.174C232.832 288.681 232.978 289.262 232.978 289.919C232.978 290.548 232.837 291.125 232.556 291.649C232.274 292.169 231.878 292.583 231.367 292.892C230.86 293.197 230.264 293.346 229.578 293.339ZM229.578 292.245C229.995 292.245 230.37 292.141 230.701 291.932C231.036 291.723 231.3 291.443 231.492 291.092C231.687 290.741 231.785 290.35 231.785 289.919C231.785 289.498 231.691 289.115 231.502 288.77C231.316 288.422 231.059 288.146 230.731 287.94C230.406 287.735 230.035 287.632 229.617 287.632C229.303 287.632 229.009 287.695 228.738 287.821C228.466 287.943 228.227 288.112 228.022 288.328C227.819 288.543 227.66 288.79 227.544 289.069C227.428 289.344 227.37 289.634 227.37 289.939C227.37 290.343 227.465 290.721 227.654 291.072C227.846 291.423 228.108 291.707 228.439 291.922C228.774 292.138 229.153 292.245 229.578 292.245Z" fill="#004DA7"/>
<path opacity="0.5" d="M222.22 331V330.105L225.581 326.426C225.976 325.995 226.301 325.621 226.556 325.303C226.811 324.981 227 324.679 227.122 324.398C227.248 324.113 227.311 323.814 227.311 323.503C227.311 323.145 227.225 322.835 227.053 322.573C226.884 322.311 226.652 322.109 226.357 321.967C226.062 321.824 225.73 321.753 225.363 321.753C224.971 321.753 224.63 321.834 224.338 321.996C224.05 322.156 223.826 322.379 223.667 322.668C223.511 322.956 223.434 323.294 223.434 323.682H222.26C222.26 323.085 222.398 322.562 222.673 322.111C222.948 321.66 223.323 321.309 223.796 321.057C224.274 320.805 224.809 320.679 225.402 320.679C225.999 320.679 226.528 320.805 226.988 321.057C227.449 321.309 227.81 321.648 228.072 322.076C228.334 322.504 228.465 322.979 228.465 323.503C228.465 323.877 228.397 324.244 228.261 324.602C228.128 324.956 227.896 325.352 227.565 325.79C227.237 326.224 226.781 326.754 226.198 327.381L223.911 329.827V329.906H228.644V331H222.22Z" fill="#004DA7"/>
<path opacity="0.5" d="M256.163 135.455C256.112 135.023 255.905 134.688 255.541 134.449C255.177 134.21 254.731 134.091 254.203 134.091C253.816 134.091 253.478 134.153 253.189 134.278C252.902 134.403 252.677 134.575 252.515 134.794C252.356 135.013 252.277 135.261 252.277 135.54C252.277 135.773 252.332 135.973 252.443 136.141C252.557 136.305 252.701 136.443 252.878 136.554C253.054 136.662 253.238 136.751 253.432 136.822C253.625 136.891 253.802 136.946 253.964 136.989L254.851 137.227C255.078 137.287 255.331 137.369 255.609 137.474C255.89 137.58 256.159 137.723 256.414 137.905C256.673 138.084 256.886 138.314 257.054 138.595C257.221 138.876 257.305 139.222 257.305 139.631C257.305 140.102 257.182 140.528 256.934 140.909C256.69 141.29 256.332 141.592 255.86 141.817C255.392 142.041 254.822 142.153 254.152 142.153C253.527 142.153 252.985 142.053 252.528 141.851C252.074 141.649 251.716 141.368 251.454 141.007C251.196 140.646 251.049 140.227 251.015 139.75H252.106C252.135 140.08 252.245 140.352 252.439 140.568C252.635 140.781 252.882 140.94 253.18 141.045C253.481 141.148 253.805 141.199 254.152 141.199C254.555 141.199 254.917 141.134 255.238 141.003C255.559 140.869 255.814 140.685 256.001 140.449C256.189 140.21 256.282 139.932 256.282 139.614C256.282 139.324 256.201 139.088 256.039 138.906C255.878 138.724 255.664 138.577 255.4 138.463C255.136 138.349 254.851 138.25 254.544 138.165L253.47 137.858C252.788 137.662 252.248 137.382 251.851 137.018C251.453 136.655 251.254 136.179 251.254 135.591C251.254 135.102 251.386 134.676 251.65 134.312C251.917 133.946 252.275 133.662 252.724 133.46C253.176 133.256 253.68 133.153 254.237 133.153C254.799 133.153 255.299 133.254 255.737 133.456C256.174 133.655 256.521 133.928 256.777 134.274C257.035 134.621 257.172 135.014 257.186 135.455H256.163ZM259.401 142H258.293L261.497 133.273H262.588L265.793 142H264.685L262.077 134.653H262.009L259.401 142ZM259.81 138.591H264.276V139.528H259.81V138.591ZM265.655 134.21V133.273H272.201V134.21H269.456V142H268.4V134.21H265.655Z" fill="#004DA7"/>
<path d="M261.768 179.939C261.351 179.933 260.933 179.853 260.515 179.701C260.098 179.548 259.717 179.291 259.372 178.93C259.027 178.565 258.75 178.073 258.542 177.453C258.333 176.83 258.228 176.048 258.228 175.107C258.228 174.205 258.313 173.407 258.482 172.711C258.651 172.011 258.896 171.423 259.218 170.946C259.539 170.465 259.927 170.1 260.381 169.852C260.838 169.603 261.354 169.479 261.927 169.479C262.497 169.479 263.004 169.593 263.449 169.822C263.896 170.047 264.261 170.362 264.542 170.767C264.824 171.171 265.006 171.637 265.089 172.164H263.876C263.763 171.706 263.545 171.327 263.22 171.025C262.895 170.724 262.464 170.573 261.927 170.573C261.138 170.573 260.517 170.916 260.063 171.602C259.612 172.288 259.385 173.251 259.382 174.49H259.461C259.647 174.209 259.867 173.968 260.123 173.77C260.381 173.567 260.666 173.412 260.978 173.302C261.289 173.193 261.619 173.138 261.967 173.138C262.55 173.138 263.084 173.284 263.568 173.576C264.052 173.864 264.44 174.263 264.731 174.774C265.023 175.281 265.169 175.863 265.169 176.519C265.169 177.149 265.028 177.725 264.746 178.249C264.464 178.769 264.068 179.184 263.558 179.492C263.051 179.797 262.454 179.946 261.768 179.939ZM261.768 178.846C262.186 178.846 262.56 178.741 262.892 178.532C263.226 178.323 263.49 178.043 263.682 177.692C263.878 177.341 263.976 176.95 263.976 176.519C263.976 176.098 263.881 175.715 263.692 175.37C263.507 175.022 263.25 174.746 262.922 174.54C262.597 174.335 262.226 174.232 261.808 174.232C261.493 174.232 261.2 174.295 260.928 174.421C260.656 174.543 260.418 174.712 260.212 174.928C260.01 175.143 259.851 175.39 259.735 175.669C259.619 175.944 259.561 176.234 259.561 176.539C259.561 176.943 259.655 177.321 259.844 177.672C260.036 178.024 260.298 178.307 260.63 178.522C260.964 178.738 261.344 178.846 261.768 178.846Z" fill="#004DA7"/>
<path d="M258.467 207.418V217.6H257.234V208.711H257.174L254.689 210.361V209.108L257.234 207.418H258.467ZM264.836 217.739C264.179 217.739 263.594 217.626 263.081 217.401C262.57 217.176 262.164 216.863 261.863 216.461C261.564 216.057 261.402 215.588 261.375 215.055H262.628C262.655 215.383 262.767 215.666 262.966 215.905C263.165 216.14 263.425 216.322 263.747 216.452C264.068 216.581 264.425 216.645 264.816 216.645C265.253 216.645 265.641 216.569 265.979 216.417C266.317 216.264 266.582 216.052 266.775 215.78C266.967 215.509 267.063 215.194 267.063 214.836C267.063 214.461 266.97 214.131 266.784 213.846C266.599 213.558 266.327 213.333 265.969 213.17C265.611 213.008 265.174 212.927 264.657 212.927H263.841V211.833H264.657C265.061 211.833 265.416 211.76 265.721 211.614C266.029 211.468 266.269 211.263 266.441 210.998C266.617 210.733 266.705 210.421 266.705 210.063C266.705 209.718 266.629 209.418 266.476 209.163C266.324 208.908 266.108 208.709 265.83 208.567C265.555 208.424 265.23 208.353 264.856 208.353C264.504 208.353 264.173 208.417 263.861 208.547C263.553 208.673 263.301 208.857 263.106 209.099C262.91 209.337 262.804 209.626 262.787 209.964H261.594C261.614 209.43 261.775 208.963 262.076 208.562C262.378 208.157 262.772 207.842 263.26 207.617C263.75 207.392 264.289 207.279 264.875 207.279C265.505 207.279 266.045 207.407 266.496 207.662C266.947 207.914 267.293 208.247 267.535 208.661C267.777 209.075 267.898 209.523 267.898 210.003C267.898 210.577 267.747 211.066 267.446 211.47C267.147 211.874 266.741 212.154 266.228 212.31V212.39C266.871 212.496 267.373 212.769 267.734 213.21C268.095 213.648 268.276 214.189 268.276 214.836C268.276 215.389 268.125 215.886 267.824 216.327C267.525 216.765 267.118 217.109 266.601 217.361C266.083 217.613 265.495 217.739 264.836 217.739Z" fill="#004DA7"/>
<path d="M253.887 255.4V254.505L257.248 250.826C257.643 250.395 257.967 250.021 258.223 249.703C258.478 249.381 258.667 249.079 258.789 248.798C258.915 248.513 258.978 248.214 258.978 247.903C258.978 247.545 258.892 247.235 258.72 246.973C258.551 246.711 258.319 246.509 258.024 246.367C257.729 246.224 257.397 246.153 257.03 246.153C256.638 246.153 256.297 246.234 256.005 246.396C255.717 246.556 255.493 246.779 255.334 247.068C255.178 247.356 255.101 247.694 255.101 248.082H253.927C253.927 247.485 254.065 246.962 254.34 246.511C254.615 246.06 254.99 245.709 255.463 245.457C255.941 245.205 256.476 245.079 257.069 245.079C257.666 245.079 258.195 245.205 258.655 245.457C259.116 245.709 259.477 246.048 259.739 246.476C260.001 246.904 260.132 247.379 260.132 247.903C260.132 248.277 260.064 248.644 259.928 249.002C259.795 249.356 259.563 249.752 259.232 250.19C258.904 250.624 258.448 251.154 257.865 251.781L255.578 254.227V254.306H260.311V255.4H253.887ZM265.685 255.539C264.936 255.539 264.298 255.335 263.771 254.928C263.244 254.517 262.841 253.922 262.563 253.143C262.284 252.361 262.145 251.416 262.145 250.309C262.145 249.209 262.284 248.269 262.563 247.49C262.845 246.708 263.249 246.111 263.776 245.7C264.306 245.286 264.943 245.079 265.685 245.079C266.427 245.079 267.062 245.286 267.589 245.7C268.119 246.111 268.524 246.708 268.802 247.49C269.084 248.269 269.225 249.209 269.225 250.309C269.225 251.416 269.086 252.361 268.807 253.143C268.529 253.922 268.126 254.517 267.599 254.928C267.072 255.335 266.434 255.539 265.685 255.539ZM265.685 254.445C266.427 254.445 267.004 254.088 267.415 253.372C267.826 252.656 268.032 251.635 268.032 250.309C268.032 249.427 267.937 248.677 267.748 248.057C267.563 247.437 267.294 246.965 266.943 246.64C266.595 246.315 266.176 246.153 265.685 246.153C264.949 246.153 264.374 246.516 263.96 247.242C263.546 247.964 263.338 248.987 263.338 250.309C263.338 251.191 263.431 251.94 263.617 252.556C263.802 253.173 264.069 253.642 264.417 253.963C264.769 254.285 265.191 254.445 265.685 254.445Z" fill="#004DA7"/>
<path d="M254.387 293.2V292.305L257.748 288.626C258.143 288.195 258.467 287.821 258.723 287.503C258.978 287.181 259.167 286.879 259.289 286.598C259.415 286.313 259.478 286.014 259.478 285.703C259.478 285.345 259.392 285.035 259.22 284.773C259.051 284.511 258.819 284.309 258.524 284.167C258.229 284.024 257.897 283.953 257.53 283.953C257.138 283.953 256.797 284.034 256.505 284.196C256.217 284.355 255.993 284.579 255.834 284.868C255.678 285.156 255.601 285.494 255.601 285.882H254.427C254.427 285.285 254.565 284.762 254.84 284.311C255.115 283.86 255.49 283.509 255.963 283.257C256.441 283.005 256.976 282.879 257.569 282.879C258.166 282.879 258.695 283.005 259.155 283.257C259.616 283.509 259.977 283.848 260.239 284.276C260.501 284.704 260.632 285.179 260.632 285.703C260.632 286.077 260.564 286.444 260.428 286.802C260.295 287.156 260.063 287.552 259.732 287.99C259.404 288.424 258.948 288.954 258.365 289.581L256.078 292.027V292.106H260.811V293.2H254.387ZM263.182 293.2L267.736 284.191V284.112H262.486V283.018H269.009V284.172L264.475 293.2H263.182Z" fill="#004DA7"/>
<path opacity="0.5" d="M261.828 331.139C261.172 331.139 260.587 331.027 260.073 330.801C259.562 330.576 259.156 330.263 258.855 329.862C258.557 329.457 258.394 328.988 258.368 328.455H259.62C259.647 328.783 259.76 329.066 259.958 329.305C260.157 329.54 260.418 329.722 260.739 329.852C261.061 329.981 261.417 330.045 261.808 330.045C262.245 330.045 262.633 329.969 262.971 329.817C263.309 329.664 263.575 329.452 263.767 329.18C263.959 328.909 264.055 328.594 264.055 328.236C264.055 327.861 263.962 327.531 263.777 327.246C263.591 326.958 263.319 326.733 262.961 326.57C262.603 326.408 262.166 326.327 261.649 326.327H260.833V325.233H261.649C262.053 325.233 262.408 325.16 262.713 325.014C263.021 324.868 263.261 324.663 263.434 324.398C263.609 324.133 263.697 323.821 263.697 323.463C263.697 323.118 263.621 322.818 263.468 322.563C263.316 322.308 263.101 322.109 262.822 321.967C262.547 321.824 262.222 321.753 261.848 321.753C261.496 321.753 261.165 321.817 260.853 321.947C260.545 322.073 260.293 322.257 260.098 322.499C259.902 322.737 259.796 323.026 259.78 323.364H258.586C258.606 322.83 258.767 322.363 259.069 321.962C259.37 321.557 259.765 321.242 260.252 321.017C260.742 320.792 261.281 320.679 261.868 320.679C262.497 320.679 263.038 320.807 263.488 321.062C263.939 321.314 264.285 321.647 264.527 322.061C264.769 322.475 264.89 322.923 264.89 323.403C264.89 323.977 264.74 324.466 264.438 324.87C264.14 325.274 263.734 325.554 263.22 325.71V325.79C263.863 325.896 264.365 326.169 264.726 326.61C265.088 327.048 265.268 327.589 265.268 328.236C265.268 328.789 265.117 329.286 264.816 329.727C264.517 330.165 264.11 330.509 263.593 330.761C263.076 331.013 262.487 331.139 261.828 331.139Z" fill="#004DA7"/>
<path opacity="0.5" d="M294.83 135.455C294.778 135.023 294.571 134.688 294.207 134.449C293.844 134.21 293.398 134.091 292.869 134.091C292.483 134.091 292.145 134.153 291.855 134.278C291.568 134.403 291.344 134.575 291.182 134.794C291.023 135.013 290.943 135.261 290.943 135.54C290.943 135.773 290.999 135.973 291.109 136.141C291.223 136.305 291.368 136.443 291.544 136.554C291.72 136.662 291.905 136.751 292.098 136.822C292.291 136.891 292.469 136.946 292.631 136.989L293.517 137.227C293.744 137.287 293.997 137.369 294.276 137.474C294.557 137.58 294.825 137.723 295.081 137.905C295.339 138.084 295.553 138.314 295.72 138.595C295.888 138.876 295.972 139.222 295.972 139.631C295.972 140.102 295.848 140.528 295.601 140.909C295.357 141.29 294.999 141.592 294.527 141.817C294.058 142.041 293.489 142.153 292.818 142.153C292.193 142.153 291.652 142.053 291.195 141.851C290.74 141.649 290.382 141.368 290.121 141.007C289.862 140.646 289.716 140.227 289.682 139.75H290.773C290.801 140.08 290.912 140.352 291.105 140.568C291.301 140.781 291.548 140.94 291.847 141.045C292.148 141.148 292.472 141.199 292.818 141.199C293.222 141.199 293.584 141.134 293.905 141.003C294.226 140.869 294.48 140.685 294.668 140.449C294.855 140.21 294.949 139.932 294.949 139.614C294.949 139.324 294.868 139.088 294.706 138.906C294.544 138.724 294.331 138.577 294.067 138.463C293.803 138.349 293.517 138.25 293.21 138.165L292.136 137.858C291.455 137.662 290.915 137.382 290.517 137.018C290.119 136.655 289.92 136.179 289.92 135.591C289.92 135.102 290.053 134.676 290.317 134.312C290.584 133.946 290.942 133.662 291.391 133.46C291.842 133.256 292.347 133.153 292.903 133.153C293.466 133.153 293.966 133.254 294.403 133.456C294.841 133.655 295.188 133.928 295.443 134.274C295.702 134.621 295.838 135.014 295.852 135.455H294.83ZM303.436 133.273H304.493V139.051C304.493 139.648 304.353 140.18 304.071 140.649C303.793 141.115 303.4 141.483 302.891 141.753C302.382 142.02 301.786 142.153 301.101 142.153C300.417 142.153 299.82 142.02 299.311 141.753C298.803 141.483 298.408 141.115 298.127 140.649C297.848 140.18 297.709 139.648 297.709 139.051V133.273H298.766V138.966C298.766 139.392 298.86 139.771 299.047 140.104C299.235 140.433 299.502 140.693 299.848 140.884C300.198 141.071 300.615 141.165 301.101 141.165C301.587 141.165 302.005 141.071 302.354 140.884C302.703 140.693 302.971 140.433 303.155 140.104C303.343 139.771 303.436 139.392 303.436 138.966V133.273ZM313.524 133.273V142H312.501L307.746 135.148H307.661V142H306.604V133.273H307.626L312.399 140.142H312.484V133.273H313.524Z" fill="#E96161"/>
<path d="M299.372 179.8L303.926 170.792V170.712H298.676V169.618H305.199V170.772L300.665 179.8H299.372Z" fill="#E96161"/>
<path d="M298.634 207.418V217.6H297.401V208.711H297.341L294.855 210.361V209.108L297.401 207.418H298.634ZM301.323 215.512V214.498L305.798 207.418H306.533V208.989H306.036L302.656 214.339V214.418H308.681V215.512H301.323ZM306.116 217.6V215.204V214.731V207.418H307.289V217.6H306.116Z" fill="#E96161"/>
<path d="M295.554 255.4V254.505L298.915 250.826C299.309 250.395 299.634 250.021 299.889 249.703C300.144 249.381 300.333 249.079 300.456 248.798C300.582 248.513 300.645 248.214 300.645 247.903C300.645 247.545 300.559 247.235 300.386 246.973C300.217 246.711 299.985 246.509 299.69 246.367C299.395 246.224 299.064 246.153 298.696 246.153C298.305 246.153 297.964 246.234 297.672 246.396C297.384 246.556 297.16 246.779 297.001 247.068C296.845 247.356 296.767 247.694 296.767 248.082H295.594C295.594 247.485 295.731 246.962 296.006 246.511C296.281 246.06 296.656 245.709 297.13 245.457C297.607 245.205 298.143 245.079 298.736 245.079C299.332 245.079 299.861 245.205 300.322 245.457C300.782 245.709 301.144 246.048 301.406 246.476C301.667 246.904 301.798 247.379 301.798 247.903C301.798 248.277 301.73 248.644 301.594 249.002C301.462 249.356 301.23 249.752 300.898 250.19C300.57 250.624 300.115 251.154 299.531 251.781L297.244 254.227V254.306H301.977V255.4H295.554ZM307.61 245.218V255.4H306.377V246.511H306.317L303.832 248.161V246.909L306.377 245.218H307.61Z" fill="#E96161"/>
<path d="M294.054 293.2V292.305L297.415 288.626C297.809 288.195 298.134 287.821 298.389 287.503C298.644 287.181 298.833 286.879 298.956 286.598C299.082 286.313 299.145 286.014 299.145 285.703C299.145 285.345 299.059 285.035 298.886 284.773C298.717 284.511 298.485 284.309 298.19 284.167C297.895 284.024 297.564 283.953 297.196 283.953C296.805 283.953 296.464 284.034 296.172 284.196C295.884 284.355 295.66 284.579 295.501 284.868C295.345 285.156 295.267 285.494 295.267 285.882H294.094C294.094 285.285 294.231 284.762 294.506 284.311C294.781 283.86 295.156 283.509 295.63 283.257C296.107 283.005 296.643 282.879 297.236 282.879C297.832 282.879 298.361 283.005 298.822 283.257C299.282 283.509 299.644 283.848 299.906 284.276C300.167 284.704 300.298 285.179 300.298 285.703C300.298 286.077 300.23 286.444 300.094 286.802C299.962 287.156 299.73 287.552 299.398 287.99C299.07 288.424 298.615 288.954 298.031 289.581L295.744 292.027V292.106H300.477V293.2H294.054ZM305.792 293.339C305.109 293.339 304.506 293.218 303.982 292.976C303.462 292.731 303.056 292.395 302.764 291.967C302.473 291.536 302.328 291.046 302.332 290.495C302.328 290.065 302.413 289.667 302.585 289.302C302.758 288.934 302.993 288.628 303.291 288.382C303.593 288.134 303.929 287.976 304.3 287.91V287.851C303.813 287.725 303.425 287.451 303.137 287.03C302.849 286.606 302.706 286.124 302.71 285.583C302.706 285.066 302.837 284.604 303.102 284.196C303.367 283.789 303.732 283.467 304.196 283.232C304.663 282.997 305.195 282.879 305.792 282.879C306.382 282.879 306.909 282.997 307.373 283.232C307.837 283.467 308.201 283.789 308.467 284.196C308.735 284.604 308.871 285.066 308.874 285.583C308.871 286.124 308.723 286.606 308.432 287.03C308.143 287.451 307.761 287.725 307.283 287.851V287.91C307.651 287.976 307.983 288.134 308.278 288.382C308.573 288.628 308.808 288.934 308.984 289.302C309.159 289.667 309.249 290.065 309.252 290.495C309.249 291.046 309.1 291.536 308.805 291.967C308.513 292.395 308.107 292.731 307.587 292.976C307.07 293.218 306.471 293.339 305.792 293.339ZM305.792 292.245C306.253 292.245 306.65 292.171 306.985 292.022C307.32 291.873 307.578 291.662 307.761 291.39C307.943 291.119 308.036 290.8 308.039 290.436C308.036 290.051 307.936 289.712 307.741 289.417C307.545 289.122 307.278 288.89 306.94 288.721C306.606 288.552 306.223 288.467 305.792 288.467C305.358 288.467 304.97 288.552 304.629 288.721C304.29 288.89 304.024 289.122 303.828 289.417C303.636 289.712 303.541 290.051 303.545 290.436C303.541 290.8 303.629 291.119 303.808 291.39C303.991 291.662 304.251 291.873 304.589 292.022C304.927 292.171 305.328 292.245 305.792 292.245ZM305.792 287.413C306.156 287.413 306.48 287.34 306.761 287.194C307.046 287.048 307.27 286.845 307.433 286.583C307.595 286.321 307.678 286.014 307.681 285.663C307.678 285.318 307.597 285.018 307.438 284.763C307.278 284.505 307.058 284.306 306.776 284.167C306.495 284.024 306.166 283.953 305.792 283.953C305.411 283.953 305.078 284.024 304.793 284.167C304.508 284.306 304.287 284.505 304.131 284.763C303.976 285.018 303.899 285.318 303.903 285.663C303.899 286.014 303.977 286.321 304.136 286.583C304.299 286.845 304.522 287.048 304.808 287.194C305.093 287.34 305.421 287.413 305.792 287.413Z" fill="#E96161"/>
<path opacity="0.5" d="M298.315 328.912V327.898L302.79 320.818H303.526V322.389H303.028L299.648 327.739V327.818H305.673V328.912H298.315ZM303.108 331V328.604V328.131V320.818H304.281V331H303.108Z" fill="#E96161"/>
</g>
</g>
<defs>
<filter id="filter0_i_1700_29" x="0" y="0" width="362" height="395" filterUnits="userSpaceOnUse" color-interpolation-filters="sRGB">
<feFlood flood-opacity="0" result="BackgroundImageFix"/>
<feBlend mode="normal" in="SourceGraphic" in2="BackgroundImageFix" result="shape"/>
<feColorMatrix in="SourceAlpha" type="matrix" values="0 0 0 0 0 0 0 0 0 0 0 0 0 0 0 0 0 0 127 0" result="hardAlpha"/>
<feOffset/>
<feGaussianBlur stdDeviation="5"/>
<feComposite in2="hardAlpha" operator="arithmetic" k2="-1" k3="1"/>
<feColorMatrix type="matrix" values="0 0 0 0 0 0 0 0 0 0 0 0 0 0 0 0 0 0 0.1 0"/>
<feBlend mode="normal" in2="shape" result="effect1_innerShadow_1700_29"/>
</filter>
<filter id="filter1_i_1700_29" x="33.0098" y="21.86" width="105.773" height="31.87" filterUnits="userSpaceOnUse" color-interpolation-filters="sRGB">
<feFlood flood-opacity="0" result="BackgroundImageFix"/>
<feBlend mode="normal" in="SourceGraphic" in2="BackgroundImageFix" result="shape"/>
<feColorMatrix in="SourceAlpha" type="matrix" values="0 0 0 0 0 0 0 0 0 0 0 0 0 0 0 0 0 0 127 0" result="hardAlpha"/>
<feOffset dy="4"/>
<feGaussianBlur stdDeviation="2"/>
<feComposite in2="hardAlpha" operator="arithmetic" k2="-1" k3="1"/>
<feColorMatrix type="matrix" values="0 0 0 0 0 0 0 0 0 0 0 0 0 0 0 0 0 0 0.25 0"/>
<feBlend mode="normal" in2="shape" result="effect1_innerShadow_1700_29"/>
</filter>
<filter id="filter2_i_1700_29" x="31" y="70" width="300" height="284" filterUnits="userSpaceOnUse" color-interpolation-filters="sRGB">
<feFlood flood-opacity="0" result="BackgroundImageFix"/>
<feBlend mode="normal" in="SourceGraphic" in2="BackgroundImageFix" result="shape"/>
<feColorMatrix in="SourceAlpha" type="matrix" values="0 0 0 0 0 0 0 0 0 0 0 0 0 0 0 0 0 0 127 0" result="hardAlpha"/>
<feOffset dy="4"/>
<feGaussianBlur stdDeviation="5"/>
<feComposite in2="hardAlpha" operator="arithmetic" k2="-1" k3="1"/>
<feColorMatrix type="matrix" values="0 0 0 0 0 0 0 0 0 0 0 0 0 0 0 0 0 0 0.1 0"/>
<feBlend mode="normal" in2="shape" result="effect1_innerShadow_1700_29"/>
</filter>
<filter id="filter3_i_1700_29" x="145.807" y="91.7046" width="70.0952" height="15.9658" filterUnits="userSpaceOnUse" color-interpolation-filters="sRGB">
<feFlood flood-opacity="0" result="BackgroundImageFix"/>
<feBlend mode="normal" in="SourceGraphic" in2="BackgroundImageFix" result="shape"/>
<feColorMatrix in="SourceAlpha" type="matrix" values="0 0 0 0 0 0 0 0 0 0 0 0 0 0 0 0 0 0 127 0" result="hardAlpha"/>
<feOffset dy="4"/>
<feGaussianBlur stdDeviation="2"/>
<feComposite in2="hardAlpha" operator="arithmetic" k2="-1" k3="1"/>
<feColorMatrix type="matrix" values="0 0 0 0 0 0 0 0 0 0 0 0 0 0 0 0 0 0 0.25 0"/>
<feBlend mode="normal" in2="shape" result="effect1_innerShadow_1700_29"/>
</filter>
<clipPath id="clip0_1700_29">
<rect width="268" height="24" fill="white" transform="translate(47 86)"/>
</clipPath>
<clipPath id="clip1_1700_29">
<rect width="268" height="204" fill="white" transform="translate(47 130)"/>
</clipPath>
<clipPath id="clip2_1700_29">
<rect width="28" height="204" fill="white" transform="translate(131.333 130)"/>
</clipPath>
</defs>
</svg>
