<svg width="150" height="40" viewBox="0 0 150 40" fill="none" xmlns="http://www.w3.org/2000/svg">
<path d="M27.6606 0.845999V39.738H33.2466V0.845999H27.6606ZM7.79456 4.794V5.466C7.79456 15.252 6.36656 21.552 0.654563 27.978L4.93856 31.212C11.7006 23.736 13.0446 15.378 13.0446 4.794H7.79456ZM2.50256 4.794V9.33H9.93656V4.794H2.50256ZM18.6306 4.794V5.424C18.6306 16.008 17.3286 23.358 11.7426 30.708L16.2786 33.69C22.6626 25.5 23.8806 15.882 23.8806 4.794H18.6306ZM14.4306 4.794V9.33H20.8566V4.794H14.4306ZM66.3393 0.803998V39.822H71.9253V0.803998H66.3393ZM41.6433 26.214V30.75H45.0873C52.1853 30.75 57.8973 30.54 64.1973 29.406L63.6513 24.912C57.4773 25.962 51.9753 26.214 45.0873 26.214H41.6433ZM41.6013 4.122V8.574H54.2433V14.748H41.6433V27.894H47.3133V19.158H59.9553V4.122H41.6013ZM104.934 0.845999V39.738H110.52V0.845999H104.934ZM85.068 4.794V5.466C85.068 15.252 83.64 21.552 77.928 27.978L82.212 31.212C88.974 23.736 90.318 15.378 90.318 4.794H85.068ZM79.776 4.794V9.33H87.21V4.794H79.776ZM95.904 4.794V5.424C95.904 16.008 94.602 23.358 89.016 30.708L93.552 33.69C99.936 25.5 101.154 15.882 101.154 4.794H95.904ZM91.704 4.794V9.33H98.13V4.794H91.704ZM143.613 0.803998V39.822H149.199V0.803998H143.613ZM118.917 26.214V30.75H122.361C129.459 30.75 135.171 30.54 141.471 29.406L140.925 24.912C134.751 25.962 129.249 26.214 122.361 26.214H118.917ZM118.875 4.122V8.574H131.517V14.748H118.917V27.894H124.587V19.158H137.229V4.122H118.875Z" fill="#4295F5"/>
</svg>
