<svg width="480" height="91" viewBox="0 0 480 91" fill="none" xmlns="http://www.w3.org/2000/svg">
<path d="M17.514 15.0708V19.5648H23.688V15.0708H17.514ZM8.484 11.1228V12.1308C8.484 18.0948 6.51 24.4788 0.966 27.7128L4.116 31.9128C10.332 28.3428 12.684 20.2368 12.684 12.1308V11.1228H8.484ZM9.576 11.1228V12.1308C9.576 20.1108 11.97 27.7128 18.27 30.9888L21.294 26.8728C15.792 23.9328 13.776 18.0108 13.776 12.1308V11.1228H9.576ZM2.436 6.83879V11.3328H19.782V6.83879H2.436ZM8.484 1.63079V10.4928H13.776V1.63079H8.484ZM29.778 0.328788V39.2208H35.07V0.328788H29.778ZM21.924 0.958787V37.4568H27.132V0.958787H21.924ZM44.3067 3.73079V8.18279H68.7927V3.73079H44.3067ZM40.3587 30.0648V34.6428H75.5127V30.0648H40.3587ZM66.4407 3.73079V8.22479C66.4407 13.7268 66.4407 19.3968 64.6347 27.2508L70.1367 27.7548C71.9427 19.2708 71.9427 13.8948 71.9427 8.22479V3.73079H66.4407ZM67.6167 14.3988L43.1727 15.1968L43.8447 19.6908L67.6167 18.5148V14.3988ZM105.749 0.286786V39.3048H111.335V0.286786H105.749ZM81.0534 25.6968V30.2328H84.4974C91.5954 30.2328 97.3074 30.0228 103.607 28.8888L103.061 24.3948C96.8874 25.4448 91.3854 25.6968 84.4974 25.6968H81.0534ZM81.0114 3.60479V8.05679H93.6534V14.2308H81.0534V27.3768H86.7234V18.6408H99.3654V3.60479H81.0114ZM132.038 2.55479V5.36879C132.038 10.9548 127.208 17.1288 118.43 18.6408L120.824 23.2608C130.904 21.2868 136.91 13.8108 136.91 5.36879V2.55479H132.038ZM133.172 2.55479V5.36879C133.172 13.9368 139.136 21.2868 149.216 23.2608L151.61 18.6408C142.79 17.1288 138.002 11.0808 138.002 5.36879V2.55479H133.172ZM117.632 29.9388V34.4748H152.828V29.9388H117.632ZM160.385 20.3628V24.7308H187.727V20.3628H160.385ZM156.269 30.2328V34.7688H191.465V30.2328H156.269ZM160.385 3.14279V21.5808H166.055V7.63679H187.391V3.14279H160.385ZM164.333 11.7108V16.0368H186.509V11.7108H164.333ZM194.906 30.4008V34.9368H230.102V30.4008H194.906ZM209.648 23.0508V32.2488H215.234V23.0508H209.648ZM198.854 2.84879V7.25879H220.61V11.4168H198.938V22.3368H204.482V15.7848H226.154V2.84879H198.854ZM198.938 20.1108V24.6048H227.036V20.1108H198.938ZM245.069 25.3608V29.9388H248.219C255.317 29.9388 259.979 29.7288 265.187 28.7628L264.641 24.2688C259.601 25.1928 255.107 25.3608 248.219 25.3608H245.069ZM245.069 3.77279V27.0828H250.655V8.22479H262.667V3.77279H245.069ZM270.311 0.328788V39.3468H275.897V0.328788H270.311ZM260.777 13.7268V18.2628H272.663V13.7268H260.777ZM296.6 21.5388V27.4608H302.144V21.5388H296.6ZM281.858 18.5988V23.0088H317.012V18.5988H281.858ZM285.764 26.4108V30.7788H307.184V39.2208H312.77V26.4108H285.764ZM299.456 1.08479C290.888 1.08479 285.386 4.02479 285.386 8.77079C285.386 13.5588 290.888 16.4988 299.456 16.4988C307.982 16.4988 313.526 13.5588 313.526 8.77079C313.526 4.02479 307.982 1.08479 299.456 1.08479ZM299.456 5.41079C304.748 5.41079 307.772 6.54479 307.772 8.77079C307.772 11.0808 304.748 12.1728 299.456 12.1728C294.122 12.1728 291.14 11.0808 291.14 8.77079C291.14 6.54479 294.122 5.41079 299.456 5.41079ZM355.205 0.328788V28.1748H360.833V0.328788H355.205ZM359.237 11.1648V15.7428H365.999V11.1648H359.237ZM344.369 3.22679V5.99879C344.369 12.1728 339.455 17.3808 329.921 19.9848L332.273 24.4368C343.865 21.0768 350.333 13.8108 350.333 3.22679H344.369ZM331.601 3.22679V7.72079H347.393V3.22679H331.601ZM335.675 34.0968V38.5488H362.135V34.0968H335.675ZM335.675 25.3608V36.0708H341.303V25.3608H335.675ZM395.816 0.328788V28.9728H401.402V0.328788H395.816ZM369.818 3.10079V7.55279H390.356V3.10079H369.818ZM369.398 24.3528C375.572 24.3528 383.93 24.1848 391.154 22.9668L390.86 18.8928C383.846 19.6908 375.11 19.7748 368.852 19.7748L369.398 24.3528ZM372.884 7.00679V20.3208H378.26V7.00679H372.884ZM381.914 7.00679V20.3208H387.248V7.00679H381.914ZM391.112 7.13279V11.5848H398.84V7.13279H391.112ZM391.112 14.9448V19.4388H398.84V14.9448H391.112ZM375.698 34.0968V38.5488H402.284V34.0968H375.698ZM375.698 26.8728V37.4568H381.326V26.8728H375.698ZM432.437 0.328788V39.2208H437.981V0.328788H432.437ZM436.721 15.4908V20.1528H443.609V15.4908H436.721ZM407.321 6.08279V10.5348H429.959V6.08279H407.321ZM418.703 12.7188C413.033 12.7188 408.833 16.5828 408.833 22.0008C408.833 27.4188 413.033 31.2828 418.703 31.2828C424.373 31.2828 428.573 27.4188 428.573 22.0008C428.573 16.5828 424.373 12.7188 418.703 12.7188ZM418.703 17.2548C421.349 17.2548 423.239 19.0188 423.239 22.0008C423.239 24.9828 421.349 26.7468 418.703 26.7468C416.057 26.7468 414.167 24.9828 414.167 22.0008C414.167 19.0188 416.057 17.2548 418.703 17.2548ZM415.889 0.958787V7.76279H421.475V0.958787H415.889ZM474.307 0.328788V39.2208H479.641V0.328788H474.307ZM458.893 15.2388V19.6488H467.209V15.2388H458.893ZM466.117 1.16879V37.4988H471.325V1.16879H466.117ZM457.633 4.90679V6.04079C457.633 15.4488 454.483 21.9168 445.621 27.2508L448.771 31.1568C459.691 24.8148 463.009 15.9948 463.009 4.90679H457.633ZM447.805 4.90679V9.35879H459.397V4.90679H447.805ZM1.722 81.1488V85.7268H36.918V81.1488H1.722ZM4.41 54.6888V59.1408H34.02V54.6888H4.41ZM4.578 70.7748V75.2688H33.894V70.7748H4.578ZM9.702 58.8048V71.1948H15.288V58.8048H9.702ZM23.184 58.8048V71.1948H28.728V58.8048H23.184ZM40.3587 81.4008V85.9368H75.5547V81.4008H40.3587ZM55.1007 74.0508V83.2488H60.6867V74.0508H55.1007ZM44.3067 53.8488V58.2588H66.0627V62.4168H44.3907V73.3368H49.9347V66.7848H71.6067V53.8488H44.3067ZM44.3907 71.1108V75.6048H72.4887V71.1108H44.3907ZM95.0394 60.9468V65.4408H101.129V60.9468H95.0394ZM99.1974 52.0848V74.8488H104.405V52.0848H99.1974ZM85.7994 57.1668V59.6448C85.7994 63.9708 83.6574 68.3808 78.4494 70.4388L81.2634 74.7648C87.5634 72.2448 90.1254 66.1548 90.1254 59.6448V57.1668H85.7994ZM86.8494 57.1668V59.6448C86.8494 65.9028 89.2434 71.6988 95.3334 74.0508L98.0634 69.7668C93.1914 67.8348 91.1754 63.8028 91.1754 59.6448V57.1668H86.8494ZM79.6674 54.1008V58.5528H96.8454V54.1008H79.6674ZM106.799 51.3288V75.0168H112.091V51.3288H106.799ZM85.3794 76.4448V80.8968H106.547V90.2208H112.091V76.4448H85.3794ZM121.748 71.3628V75.7308H149.09V71.3628H121.748ZM117.632 81.2328V85.7688H152.828V81.2328H117.632ZM121.748 54.1428V72.5808H127.418V58.6368H148.754V54.1428H121.748ZM125.696 62.7108V67.0368H147.872V62.7108H125.696ZM156.227 68.7588V72.8328H191.465V68.7588H156.227ZM160.175 74.7648V78.5448H181.763V80.4768H160.259V87.3228H165.803V84.0048H187.265V74.7648H160.175ZM160.259 86.1468V89.9268H188.357V86.1468H160.259ZM160.553 52.0008V55.7388H181.679V57.6708H160.595V64.3488H166.139V61.1568H187.181V52.0008H160.553ZM160.595 63.1728V66.9528H187.895V63.1728H160.595ZM219.242 52.4628V54.2688C219.242 58.8468 214.832 63.9288 205.886 65.1048L208.07 69.5988C218.276 68.0868 224.156 61.7448 224.156 54.2688V52.4628H219.242ZM220.292 52.4628V54.2688C220.292 61.7448 226.172 68.0868 236.378 69.5988L238.52 65.1048C229.616 63.9288 225.164 58.8048 225.164 54.2688V52.4628H220.292ZM219.284 75.9828V90.2208H224.828V75.9828H219.284ZM204.626 72.4548V76.9908H239.78V72.4548H204.626ZM271.067 51.3288V75.6888H276.359V51.3288H271.067ZM266.321 60.9048V65.4408H272.537V60.9048H266.321ZM263.003 52.0848V74.4288H268.211V52.0848H263.003ZM243.053 55.3188V59.6028H261.911V55.3188H243.053ZM252.545 60.8628C247.673 60.8628 244.145 63.6348 244.145 67.6668C244.145 71.6988 247.673 74.4288 252.545 74.4288C257.417 74.4288 260.945 71.6988 260.945 67.6668C260.945 63.6348 257.417 60.8628 252.545 60.8628ZM252.545 64.8528C254.561 64.8528 255.947 65.8608 255.947 67.6668C255.947 69.4728 254.561 70.4808 252.545 70.4808C250.487 70.4808 249.101 69.4728 249.101 67.6668C249.101 65.8608 250.487 64.8528 252.545 64.8528ZM249.731 51.7068V58.2588H255.233V51.7068H249.731ZM263.213 76.1088C254.855 76.1088 249.815 78.6288 249.815 83.1648C249.815 87.6588 254.855 90.2208 263.213 90.2208C271.529 90.2208 276.569 87.6588 276.569 83.1648C276.569 78.6288 271.529 76.1088 263.213 76.1088ZM263.213 80.2668C268.379 80.2668 270.983 81.1488 270.983 83.1648C270.983 85.1388 268.379 86.0628 263.213 86.0628C258.005 86.0628 255.401 85.1388 255.401 83.1648C255.401 81.1488 258.005 80.2668 263.213 80.2668ZM306.806 51.3288V90.2208H312.35V51.3288H306.806ZM311.09 66.4908V71.1528H317.978V66.4908H311.09ZM281.69 57.0828V61.5348H304.328V57.0828H281.69ZM293.072 63.7188C287.402 63.7188 283.202 67.5828 283.202 73.0008C283.202 78.4188 287.402 82.2828 293.072 82.2828C298.742 82.2828 302.942 78.4188 302.942 73.0008C302.942 67.5828 298.742 63.7188 293.072 63.7188ZM293.072 68.2548C295.718 68.2548 297.608 70.0188 297.608 73.0008C297.608 75.9828 295.718 77.7468 293.072 77.7468C290.426 77.7468 288.536 75.9828 288.536 73.0008C288.536 70.0188 290.426 68.2548 293.072 68.2548ZM290.258 51.9588V58.7628H295.844V51.9588H290.258ZM335.824 64.3908V68.9268H342.25V64.3908H335.824ZM327.508 54.6888V61.2408C327.508 67.8348 325.492 74.7648 319.78 78.2928L323.14 82.4928C329.356 78.6708 331.792 70.0608 331.792 61.2408V54.6888H327.508ZM328.726 54.6888V60.9888C328.726 69.3888 330.658 77.7888 336.832 81.6108L339.856 77.2428C334.564 73.7988 332.926 67.3308 332.926 60.9888V54.6888H328.726ZM348.592 51.3288V90.2208H353.926V51.3288H348.592ZM340.696 51.9168V88.4568H345.904V51.9168H340.696ZM366.901 71.0688V81.9888H372.445V71.0688H366.901ZM381.013 71.0688V81.9888H386.599V71.0688H381.013ZM359.173 81.1908V85.7268H394.369V81.1908H359.173ZM376.729 53.2188C368.329 53.2188 362.197 57.3348 362.197 63.6768C362.197 70.0188 368.329 74.0928 376.729 74.0928C385.087 74.0928 391.261 70.0188 391.261 63.6768C391.261 57.3348 385.087 53.2188 376.729 53.2188ZM376.729 57.5868C382.147 57.5868 385.759 59.8128 385.759 63.6768C385.759 67.4988 382.147 69.7668 376.729 69.7668C371.311 69.7668 367.699 67.4988 367.699 63.6768C367.699 59.8128 371.311 57.5868 376.729 57.5868ZM406.215 55.9373L405.633 77.3251H400.175L399.578 55.9373H406.215ZM402.904 86.8706C401.92 86.8706 401.074 86.5226 400.368 85.8265C399.662 85.1206 399.314 84.2754 399.324 83.291C399.314 82.3166 399.662 81.4814 400.368 80.7853C401.074 80.0893 401.92 79.7413 402.904 79.7413C403.849 79.7413 404.679 80.0893 405.395 80.7853C406.111 81.4814 406.474 82.3166 406.483 83.291C406.474 83.9473 406.3 84.5488 405.961 85.0957C405.633 85.6326 405.201 86.0652 404.664 86.3933C404.127 86.7115 403.54 86.8706 402.904 86.8706Z" fill="#AE92FF"/>
</svg>
