<svg width="557" height="91" viewBox="0 0 557 91" fill="none" xmlns="http://www.w3.org/2000/svg">
<path d="M27.2399 0.845999V39.738H32.5739V0.845999H27.2399ZM12.4559 15.042V19.536H21.4859V15.042H12.4559ZM19.2179 1.518V38.016H24.4259V1.518H19.2179ZM0.275914 26.508V31.128H2.96391C8.63391 31.128 12.4979 30.96 16.8239 30.078L16.4039 25.542C12.1199 26.382 8.46592 26.508 2.96391 26.508H0.275914ZM0.275914 5.214V28.44H5.77791V9.666H15.1019V5.214H0.275914ZM41.8946 18.78V23.232H69.2366V18.78H41.8946ZM37.8206 30.498V35.076H73.0166V30.498H37.8206ZM41.8946 4.038V20.628H47.4386V8.574H68.9426V4.038H41.8946ZM101.363 0.803998V39.822H106.907V0.803998H101.363ZM105.647 15.504V20.124H112.535V15.504H105.647ZM78.0114 26.214V30.792H81.2874C88.0494 30.792 93.3834 30.54 99.2634 29.49L98.7174 24.996C93.0054 26.004 87.8814 26.214 81.2874 26.214H78.0114ZM77.9694 4.122V8.574H90.3174V14.748H78.0114V27.936H83.5554V19.2H95.8614V4.122H77.9694ZM141.764 0.887999V28.818H147.392V0.887999H141.764ZM121.478 34.614V39.066H148.358V34.614H121.478ZM121.478 26.004V36.42H127.064V26.004H121.478ZM126.224 3.324C120.26 3.324 115.64 7.44 115.64 13.194C115.64 18.906 120.26 23.064 126.224 23.064C132.188 23.064 136.766 18.906 136.766 13.194C136.766 7.44 132.188 3.324 126.224 3.324ZM126.224 8.154C129.08 8.154 131.306 10.002 131.306 13.194C131.306 16.344 129.08 18.192 126.224 18.192C123.326 18.192 121.1 16.344 121.1 13.194C121.1 10.002 123.326 8.154 126.224 8.154ZM183.275 6.516V10.968H192.851V6.516H183.275ZM190.373 0.845999V20.586H195.959V0.845999H190.373ZM170.255 22.224V26.508H190.415V28.65H170.339V37.554H175.841V32.682H195.959V22.224H170.255ZM170.339 34.992V39.318H197.051V34.992H170.339ZM172.313 2.106V4.878C172.313 9.834 169.583 14.58 163.115 16.512L165.971 20.922C173.405 18.57 176.849 12.228 176.849 4.878V2.106H172.313ZM173.405 2.106V4.878C173.405 11.85 176.723 17.856 183.821 20.166L186.677 15.84C180.545 13.992 177.941 9.498 177.941 4.878V2.106H173.405ZM223.13 10.254V14.79H230.522V10.254H223.13ZM229.01 0.845999V23.946H234.596V0.845999H229.01ZM221.408 24.786C213.176 24.786 208.094 27.6 208.094 32.304C208.094 37.05 213.176 39.78 221.408 39.78C229.64 39.78 234.722 37.05 234.722 32.304C234.722 27.6 229.64 24.786 221.408 24.786ZM221.408 29.028C226.49 29.028 229.178 30.078 229.178 32.304C229.178 34.488 226.49 35.538 221.408 35.538C216.368 35.538 213.68 34.488 213.68 32.304C213.68 30.078 216.368 29.028 221.408 29.028ZM211.034 4.752V7.188C211.034 12.186 208.262 17.352 201.836 19.536L204.692 23.946C212.126 21.426 215.57 14.622 215.57 7.188V4.752H211.034ZM212.21 4.752V7.188C212.21 14.118 215.528 20.586 222.752 22.98L225.482 18.57C219.35 16.512 216.704 11.766 216.704 7.188V4.752H212.21ZM203.348 3.198V7.65H224.264V3.198H203.348ZM258.281 2.778C250.091 2.778 243.749 7.272 243.749 14.034C243.749 20.838 250.091 25.29 258.281 25.29C266.471 25.29 272.813 20.838 272.813 14.034C272.813 7.272 266.471 2.778 258.281 2.778ZM258.281 7.314C263.573 7.314 267.353 9.834 267.353 14.034C267.353 18.192 263.573 20.712 258.281 20.712C252.989 20.712 249.209 18.192 249.209 14.034C249.209 9.834 252.989 7.314 258.281 7.314ZM240.725 30.498V35.076H275.921V30.498H240.725ZM279.362 30.918V35.454H314.558V30.918H279.362ZM294.104 23.568V32.766H299.69V23.568H294.104ZM283.31 3.366V7.776H305.066V11.934H283.394V22.854H288.938V16.302H310.61V3.366H283.31ZM283.394 20.628V25.122H311.492V20.628H283.394ZM327.719 30.666V35.244H362.915V30.666H327.719ZM330.407 4.206V8.658H360.017V4.206H330.407ZM330.575 20.292V24.786H359.891V20.292H330.575ZM335.699 8.322V20.712H341.285V8.322H335.699ZM349.181 8.322V20.712H354.725V8.322H349.181ZM366.356 30.918V35.454H401.552V30.918H366.356ZM381.098 23.568V32.766H386.684V23.568H381.098ZM370.304 3.366V7.776H392.06V11.934H370.388V22.854H375.932V16.302H397.604V3.366H370.304ZM370.388 20.628V25.122H398.486V20.628H370.388ZM421.037 10.464V14.958H427.127V10.464H421.037ZM425.195 1.602V24.366H430.403V1.602H425.195ZM411.797 6.684V9.162C411.797 13.488 409.655 17.898 404.447 19.956L407.261 24.282C413.561 21.762 416.123 15.672 416.123 9.162V6.684H411.797ZM412.847 6.684V9.162C412.847 15.42 415.241 21.216 421.331 23.568L424.061 19.284C419.189 17.352 417.173 13.32 417.173 9.162V6.684H412.847ZM405.665 3.618V8.07H422.843V3.618H405.665ZM432.797 0.845999V24.534H438.089V0.845999H432.797ZM411.377 25.962V30.414H432.545V39.738H438.089V25.962H411.377ZM447.745 20.88V25.248H475.087V20.88H447.745ZM443.629 30.75V35.286H478.825V30.75H443.629ZM447.745 3.66V22.098H453.415V8.154H474.751V3.66H447.745ZM451.693 12.228V16.554H473.869V12.228H451.693ZM483.946 3.66V8.154H500.578V3.66H483.946ZM488.734 12.732V22.476H494.278V12.732H488.734ZM498.394 3.66V6.096C498.394 8.784 498.394 12.144 497.554 16.932L502.972 17.52C503.896 12.69 503.896 8.826 503.896 6.096V3.66H498.394ZM507.676 0.845999V29.952H513.304V0.845999H507.676ZM511.078 12.69V17.268H517.924V12.69H511.078ZM487.348 34.614V39.066H514.522V34.614H487.348ZM487.348 27.348V36H492.934V27.348H487.348ZM482.182 24.744C488.86 24.744 497.89 24.576 505.912 23.064L505.576 19.116C497.764 20.208 488.398 20.334 481.678 20.334L482.182 24.744ZM520.861 18.276V22.35H556.099V18.276H520.861ZM524.809 24.282V28.062H546.397V29.994H524.893V36.84H530.437V33.522H551.899V24.282H524.809ZM524.893 35.664V39.444H552.991V35.664H524.893ZM525.187 1.518V5.256H546.313V7.188H525.229V13.866H530.773V10.674H551.815V1.518H525.187ZM525.229 12.69V16.47H552.529V12.69H525.229ZM96.0015 77.76V78.642C96.0015 81.96 92.3895 85.53 84.1995 86.454L86.0895 90.612C95.6235 89.478 100.705 84.69 100.705 78.642V77.76H96.0015ZM97.0935 77.76V78.642C97.0935 84.732 102.259 89.478 111.751 90.612L113.683 86.454C105.451 85.53 101.797 82.002 101.797 78.642V77.76H97.0935ZM86.0055 75.408V80.07H112.045V75.408H86.0055ZM106.039 51.846V73.728H111.667V51.846H106.039ZM90.4995 53.862C84.4515 53.862 79.9155 57.684 79.9155 63.06C79.9155 68.436 84.4515 72.3 90.4995 72.3C96.5475 72.3 101.041 68.436 101.041 63.06C101.041 57.684 96.5475 53.862 90.4995 53.862ZM90.4995 58.482C93.4395 58.482 95.5815 60.162 95.5815 63.06C95.5815 66 93.4395 67.68 90.4995 67.68C87.5175 67.68 85.3755 66 85.3755 63.06C85.3755 60.162 87.5175 58.482 90.4995 58.482ZM127.33 57.978V62.346C127.33 68.94 124.18 76.122 117.67 79.02L120.82 83.43C128.128 80.112 131.782 71.334 131.782 62.346V57.978H127.33ZM128.59 57.978V62.346C128.59 70.998 132.202 79.272 139.594 82.464L142.618 78.054C136.108 75.366 133 68.646 133 62.346V57.978H128.59ZM119.224 55.584V60.162H141.022V55.584H119.224ZM144.634 51.846V90.738H150.262V51.846H144.634ZM181.633 51.846V71.25H187.219V51.846H181.633ZM184.951 59.28V63.858H192.343V59.28H184.951ZM157.735 53.652V69.822H176.257V53.652H157.735ZM170.755 58.02V65.454H163.237V58.02H170.755ZM161.515 72.804V77.088H181.717V79.44H161.599V88.092H167.143V83.472H187.219V72.804H161.515ZM161.599 85.95V90.318H188.353V85.95H161.599ZM198.85 55.122V59.616H223.504V55.122H198.85ZM195.28 81.54V86.076H230.434V81.54H195.28ZM207.712 68.184V83.766H213.298V68.184H207.712ZM221.488 55.122V58.86C221.488 63.522 221.488 69.15 219.934 76.878L225.52 77.508C227.074 69.192 227.074 63.732 227.074 58.86V55.122H221.488ZM245.317 54.66V59.154H261.949V54.66H245.317ZM250.105 63.732V73.476H255.649V63.732H250.105ZM259.765 54.66V57.096C259.765 59.784 259.765 63.144 258.925 67.932L264.343 68.52C265.267 63.69 265.267 59.826 265.267 57.096V54.66H259.765ZM269.047 51.846V80.952H274.675V51.846H269.047ZM272.449 63.69V68.268H279.295V63.69H272.449ZM248.719 85.614V90.066H275.893V85.614H248.719ZM248.719 78.348V87H254.305V78.348H248.719ZM243.553 75.744C250.231 75.744 259.261 75.576 267.283 74.064L266.947 70.116C259.135 71.208 249.769 71.334 243.049 71.334L243.553 75.744ZM309.028 51.804V90.822H314.614V51.804H309.028ZM284.332 77.214V81.75H287.776C294.874 81.75 300.586 81.54 306.886 80.406L306.34 75.912C300.166 76.962 294.664 77.214 287.776 77.214H284.332ZM284.29 55.122V59.574H296.932V65.748H284.332V78.894H290.002V70.158H302.644V55.122H284.29ZM320.826 57.684V62.136H339.432V57.684H320.826ZM330.192 63.858C325.278 63.858 321.666 67.68 321.666 73.14C321.666 78.558 325.278 82.38 330.192 82.38C335.148 82.38 338.718 78.558 338.718 73.14C338.718 67.68 335.148 63.858 330.192 63.858ZM330.192 68.52C332.292 68.52 333.804 70.2 333.804 73.14C333.804 76.08 332.292 77.718 330.192 77.718C328.092 77.718 326.622 76.08 326.622 73.14C326.622 70.2 328.092 68.52 330.192 68.52ZM348.966 51.846V90.738H354.3V51.846H348.966ZM344.304 67.638V72.132H350.73V67.638H344.304ZM340.818 52.56V89.1H346.026V52.56H340.818ZM327.462 52.896V60.498H332.964V52.896H327.462ZM359.547 81.708V86.244H394.743V81.708H359.547ZM374.289 73.392V82.8H379.875V73.392H374.289ZM363.243 54.324V74.568H390.921V54.324H385.377V60.288H368.787V54.324H363.243ZM368.787 64.656H385.377V70.116H368.787V64.656ZM413.472 64.908V69.444H419.898V64.908H413.472ZM405.156 55.206V61.758C405.156 68.352 403.14 75.282 397.428 78.81L400.788 83.01C407.004 79.188 409.44 70.578 409.44 61.758V55.206H405.156ZM406.374 55.206V61.506C406.374 69.906 408.306 78.306 414.48 82.128L417.504 77.76C412.212 74.316 410.574 67.848 410.574 61.506V55.206H406.374ZM426.24 51.846V90.738H431.574V51.846H426.24ZM418.344 52.434V88.974H423.552V52.434H418.344ZM444.549 71.586V82.506H450.093V71.586H444.549ZM458.661 71.586V82.506H464.247V71.586H458.661ZM436.821 81.708V86.244H472.017V81.708H436.821ZM454.377 53.736C445.977 53.736 439.845 57.852 439.845 64.194C439.845 70.536 445.977 74.61 454.377 74.61C462.735 74.61 468.909 70.536 468.909 64.194C468.909 57.852 462.735 53.736 454.377 53.736ZM454.377 58.104C459.795 58.104 463.407 60.33 463.407 64.194C463.407 68.016 459.795 70.284 454.377 70.284C448.959 70.284 445.347 68.016 445.347 64.194C445.347 60.33 448.959 58.104 454.377 58.104ZM483.862 56.4545L483.281 77.8423H477.822L477.225 56.4545H483.862ZM480.551 87.3878C479.567 87.3878 478.722 87.0398 478.016 86.3438C477.31 85.6378 476.962 84.7926 476.972 83.8082C476.962 82.8338 477.31 81.9986 478.016 81.3026C478.722 80.6065 479.567 80.2585 480.551 80.2585C481.496 80.2585 482.326 80.6065 483.042 81.3026C483.758 81.9986 484.121 82.8338 484.131 83.8082C484.121 84.4645 483.947 85.0661 483.609 85.6129C483.281 86.1499 482.848 86.5824 482.311 86.9105C481.774 87.2287 481.188 87.3878 480.551 87.3878Z" fill="#FA897B"/>
</svg>
