<svg width="227" height="60" viewBox="0 0 227 60" fill="none" xmlns="http://www.w3.org/2000/svg">
<path d="M41.328 0.431999V59.696H49.84V0.431999H41.328ZM11.056 6.448V7.472C11.056 22.384 8.88 31.984 0.176 41.776L6.704 46.704C17.008 35.312 19.056 22.576 19.056 6.448H11.056ZM2.992 6.448V13.36H14.32V6.448H2.992ZM27.568 6.448V7.408C27.568 23.536 25.584 34.736 17.072 45.936L23.984 50.48C33.712 38 35.568 23.344 35.568 6.448H27.568ZM21.168 6.448V13.36H30.96V6.448H21.168ZM100.267 0.367996V59.824H108.779V0.367996H100.267ZM62.635 39.088V46H67.883C78.699 46 87.403 45.68 97.003 43.952L96.171 37.104C86.763 38.704 78.379 39.088 67.883 39.088H62.635ZM62.571 5.424V12.208H81.835V21.616H62.635V41.648H71.275V28.336H90.539V5.424H62.571ZM159.078 0.431999V59.696H167.59V0.431999H159.078ZM128.806 6.448V7.472C128.806 22.384 126.63 31.984 117.926 41.776L124.454 46.704C134.758 35.312 136.806 22.576 136.806 6.448H128.806ZM120.742 6.448V13.36H132.07V6.448H120.742ZM145.318 6.448V7.408C145.318 23.536 143.334 34.736 134.822 45.936L141.734 50.48C151.462 38 153.318 23.344 153.318 6.448H145.318ZM138.918 6.448V13.36H148.71V6.448H138.918ZM218.017 0.367996V59.824H226.529V0.367996H218.017ZM180.385 39.088V46H185.633C196.449 46 205.153 45.68 214.753 43.952L213.921 37.104C204.513 38.704 196.129 39.088 185.633 39.088H180.385ZM180.321 5.424V12.208H199.585V21.616H180.385V41.648H189.025V28.336H208.289V5.424H180.321Z" fill="#1C1C1C"/>
</svg>
