<svg width="541" height="91" viewBox="0 0 541 91" fill="none" xmlns="http://www.w3.org/2000/svg">
<path d="M93.6112 20.5998C93.6112 23.9308 92.9798 26.7646 91.717 29.1013C90.4642 31.4379 88.754 33.2227 86.5864 34.4557C84.4287 35.6787 82.0025 36.2902 79.3079 36.2902C76.5935 36.2902 74.1574 35.6737 71.9997 34.4407C69.842 33.2078 68.1368 31.423 66.8839 29.0863C65.6311 26.7497 65.0047 23.9209 65.0047 20.5998C65.0047 17.2689 65.6311 14.4351 66.8839 12.0984C68.1368 9.76176 69.842 7.98193 71.9997 6.75892C74.1574 5.52597 76.5935 4.90949 79.3079 4.90949C82.0025 4.90949 84.4287 5.52597 86.5864 6.75892C88.754 7.98193 90.4642 9.76176 91.717 12.0984C92.9798 14.4351 93.6112 17.2689 93.6112 20.5998ZM87.0636 20.5998C87.0636 18.4422 86.7405 16.6226 86.0942 15.141C85.4578 13.6595 84.5579 12.5359 83.3946 11.7703C82.2312 11.0047 80.869 10.6218 79.3079 10.6218C77.7469 10.6218 76.3846 11.0047 75.2213 11.7703C74.0579 12.5359 73.1531 13.6595 72.5068 15.141C71.8704 16.6226 71.5523 18.4422 71.5523 20.5998C71.5523 22.7575 71.8704 24.5771 72.5068 26.0586C73.1531 27.5402 74.0579 28.6638 75.2213 29.4294C76.3846 30.195 77.7469 30.5778 79.3079 30.5778C80.869 30.5778 82.2312 30.195 83.3946 29.4294C84.5579 28.6638 85.4578 27.5402 86.0942 26.0586C86.7405 24.5771 87.0636 22.7575 87.0636 20.5998ZM101.937 35.8726H95.0169L105.562 5.3271H113.884L124.414 35.8726H117.493L109.842 12.3072H109.604L101.937 35.8726ZM101.505 23.8662H117.851V28.9074H101.505V23.8662ZM146.958 5.3271H153.416V25.1638C153.416 27.391 152.884 29.3399 151.82 31.0103C150.766 32.6808 149.289 33.9834 147.39 34.918C145.491 35.8427 143.279 36.3051 140.753 36.3051C138.218 36.3051 136 35.8427 134.101 34.918C132.202 33.9834 130.725 32.6808 129.671 31.0103C128.617 29.3399 128.09 27.391 128.09 25.1638V5.3271H134.549V24.6119C134.549 25.7753 134.802 26.8093 135.309 27.7142C135.826 28.619 136.552 29.3299 137.487 29.847C138.421 30.364 139.51 30.6226 140.753 30.6226C142.006 30.6226 143.095 30.364 144.019 29.847C144.954 29.3299 145.675 28.619 146.182 27.7142C146.699 26.8093 146.958 25.7753 146.958 24.6119V5.3271ZM157.566 10.6517V5.3271H182.652V10.6517H173.301V35.8726H166.917V10.6517H157.566ZM186.784 35.8726V5.3271H193.242V17.9301H206.352V5.3271H212.795V35.8726H206.352V23.2547H193.242V35.8726H186.784ZM235.602 3.70056V9.37056C235.602 16.5946 232.62 24.0706 226.068 27.1366L229.428 31.6306C236.778 28.0186 240.138 18.9886 240.138 9.37056V3.70056H235.602ZM236.736 3.70056V9.37056C236.736 18.6946 239.802 27.3466 246.816 30.9166L250.176 26.4646C243.96 23.4406 241.188 16.3426 241.188 9.37056V3.70056H236.736ZM251.73 0.718558V39.6106H257.358V0.718558H251.73ZM256.098 15.6706V20.3326H262.986V15.6706H256.098ZM273.398 13.7386V20.8786H278.984V13.7386H273.398ZM287.09 13.7386V20.8786H292.634V13.7386H287.09ZM265.502 19.1566V23.5666H300.656V19.1566H265.502ZM283.016 25.5406C274.574 25.5406 269.492 28.0606 269.492 32.5546C269.492 37.0906 274.574 39.6106 283.016 39.6106C291.416 39.6106 296.498 37.0906 296.498 32.5546C296.498 28.0606 291.416 25.5406 283.016 25.5406ZM283.016 29.7406C288.224 29.7406 290.87 30.6226 290.87 32.5546C290.87 34.5286 288.224 35.4106 283.016 35.4106C277.808 35.4106 275.162 34.5286 275.162 32.5546C275.162 30.6226 277.808 29.7406 283.016 29.7406ZM283.1 1.26456C274.49 1.26456 269.03 4.12056 269.03 8.78256C269.03 13.4026 274.49 16.1746 283.1 16.1746C291.668 16.1746 297.17 13.4026 297.17 8.78256C297.17 4.12056 291.668 1.26456 283.1 1.26456ZM283.1 5.54856C288.434 5.54856 291.416 6.59856 291.416 8.78256C291.416 10.9246 288.434 11.9746 283.1 11.9746C277.766 11.9746 274.784 10.9246 274.784 8.78256C274.784 6.59856 277.766 5.54856 283.1 5.54856ZM321.737 2.65056C313.547 2.65056 307.205 7.14456 307.205 13.9066C307.205 20.7106 313.547 25.1626 321.737 25.1626C329.927 25.1626 336.269 20.7106 336.269 13.9066C336.269 7.14456 329.927 2.65056 321.737 2.65056ZM321.737 7.18656C327.029 7.18656 330.809 9.70656 330.809 13.9066C330.809 18.0646 327.029 20.5846 321.737 20.5846C316.445 20.5846 312.665 18.0646 312.665 13.9066C312.665 9.70656 316.445 7.18656 321.737 7.18656ZM304.181 30.3706V34.9486H339.377V30.3706H304.181ZM342.818 30.7906V35.3266H378.014V30.7906H342.818ZM357.56 23.4406V32.6386H363.146V23.4406H357.56ZM346.766 3.23856V7.64856H368.522V11.8066H346.85V22.7266H352.394V16.1746H374.066V3.23856H346.766ZM346.85 20.5006V24.9946H374.948V20.5006H346.85ZM416.123 0.718558V28.5646H421.751V0.718558H416.123ZM420.155 11.5546V16.1326H426.917V11.5546H420.155ZM405.287 3.61656V6.38856C405.287 12.5626 400.373 17.7706 390.839 20.3746L393.191 24.8266C404.783 21.4666 411.251 14.2006 411.251 3.61656H405.287ZM392.519 3.61656V8.11056H408.311V3.61656H392.519ZM396.593 34.4866V38.9386H423.053V34.4866H396.593ZM396.593 25.7506V36.4606H402.221V25.7506H396.593ZM456.734 0.718558V29.3626H462.32V0.718558H456.734ZM430.736 3.49056V7.94256H451.274V3.49056H430.736ZM430.316 24.7426C436.49 24.7426 444.848 24.5746 452.072 23.3566L451.778 19.2826C444.764 20.0806 436.028 20.1646 429.77 20.1646L430.316 24.7426ZM433.802 7.39656V20.7106H439.178V7.39656H433.802ZM442.832 7.39656V20.7106H448.166V7.39656H442.832ZM452.03 7.52256V11.9746H459.758V7.52256H452.03ZM452.03 15.3346V19.8286H459.758V15.3346H452.03ZM436.616 34.4866V38.9386H463.202V34.4866H436.616ZM436.616 27.2626V37.8466H442.244V27.2626H436.616ZM493.355 0.718558V39.6106H498.899V0.718558H493.355ZM497.639 15.8806V20.5426H504.527V15.8806H497.639ZM468.239 6.47256V10.9246H490.877V6.47256H468.239ZM479.621 13.1086C473.951 13.1086 469.751 16.9726 469.751 22.3906C469.751 27.8086 473.951 31.6726 479.621 31.6726C485.291 31.6726 489.491 27.8086 489.491 22.3906C489.491 16.9726 485.291 13.1086 479.621 13.1086ZM479.621 17.6446C482.267 17.6446 484.157 19.4086 484.157 22.3906C484.157 25.3726 482.267 27.1366 479.621 27.1366C476.975 27.1366 475.085 25.3726 475.085 22.3906C475.085 19.4086 476.975 17.6446 479.621 17.6446ZM476.807 1.34856V8.15256H482.393V1.34856H476.807ZM535.225 0.718558V39.6106H540.559V0.718558H535.225ZM519.811 15.6286V20.0386H528.127V15.6286H519.811ZM527.035 1.55856V37.8886H532.243V1.55856H527.035ZM518.551 5.29656V6.43056C518.551 15.8386 515.401 22.3066 506.539 27.6406L509.689 31.5466C520.609 25.2046 523.927 16.3846 523.927 5.29656H518.551ZM508.723 5.29656V9.74856H520.315V5.29656H508.723ZM0.66542 81.7906V86.3266H35.8614V81.7906H0.66542ZM15.4074 74.4406V83.6386H20.9934V74.4406H15.4074ZM4.61342 54.2386V58.6486H26.3694V62.8066H4.69742V73.7266H10.2414V67.1746H31.9134V54.2386H4.61342ZM4.69742 71.5006V75.9946H32.7954V71.5006H4.69742ZM42.8721 55.2886V59.6986H67.5261V55.2886H42.8721ZM39.3021 80.9926V85.5286H74.4561V80.9926H39.3021ZM64.5861 55.2886V59.9086C64.5861 65.1586 64.5861 70.7026 63.1581 78.1786L68.7441 78.6406C70.1301 70.6606 70.1301 65.3686 70.1301 59.9086V55.2886H64.5861ZM104.609 51.7606V79.6906H110.237V51.7606H104.609ZM84.3229 85.4866V89.9386H111.203V85.4866H84.3229ZM84.3229 76.8766V87.2926H89.9089V76.8766H84.3229ZM89.0689 54.1966C83.1049 54.1966 78.4849 58.3126 78.4849 64.0666C78.4849 69.7786 83.1049 73.9366 89.0689 73.9366C95.0329 73.9366 99.6109 69.7786 99.6109 64.0666C99.6109 58.3126 95.0329 54.1966 89.0689 54.1966ZM89.0689 59.0266C91.9249 59.0266 94.1509 60.8746 94.1509 64.0666C94.1509 67.2166 91.9249 69.0646 89.0689 69.0646C86.1709 69.0646 83.9449 67.2166 83.9449 64.0666C83.9449 60.8746 86.1709 59.0266 89.0689 59.0266ZM127.934 55.7506V60.1606H159.602V55.7506H127.934ZM126.296 76.8766V81.3706H161.492V76.8766H126.296ZM141.038 80.8246V90.6526H146.624V80.8246H141.038ZM143.852 61.6726C135.452 61.6726 130.496 64.0246 130.496 68.3506C130.496 72.6346 135.452 75.0286 143.852 75.0286C152.21 75.0286 157.166 72.6346 157.166 68.3506C157.166 64.0246 152.21 61.6726 143.852 61.6726ZM143.852 65.8306C148.934 65.8306 151.412 66.5866 151.412 68.3506C151.412 70.1146 148.934 70.8706 143.852 70.8706C138.77 70.8706 136.292 70.1146 136.292 68.3506C136.292 66.5866 138.77 65.8306 143.852 65.8306ZM141.038 51.6766V58.6906H146.624V51.6766H141.038ZM194.226 63.8566V68.3506H204.474V63.8566H194.226ZM183.642 54.7006V60.3286C183.642 67.7206 180.702 75.2386 174.066 78.3046L177.552 82.7986C184.86 79.1446 188.178 70.1146 188.178 60.3286V54.7006H183.642ZM184.818 54.7006V60.3286C184.818 70.0306 187.884 78.5986 195.192 82.1266L198.51 77.6746C192.084 74.8186 189.27 67.7206 189.27 60.3286V54.7006H184.818ZM201.702 51.6766V90.6946H207.246V51.6766H201.702ZM239.918 51.6766V90.6946H245.546V51.6766H239.918ZM215.18 54.7846V81.6226H234.29V54.7846H228.746V64.2346H220.724V54.7846H215.18ZM220.724 68.5606H228.746V77.1286H220.724V68.5606ZM266.333 53.9446V56.7586C266.333 62.3446 261.503 68.5186 252.725 70.0306L255.119 74.6506C265.199 72.6766 271.205 65.2006 271.205 56.7586V53.9446H266.333ZM267.467 53.9446V56.7586C267.467 65.3266 273.431 72.6766 283.511 74.6506L285.905 70.0306C277.085 68.5186 272.297 62.4706 272.297 56.7586V53.9446H267.467ZM251.927 81.3286V85.8646H287.123V81.3286H251.927ZM290.522 69.1486V73.2226H325.76V69.1486H290.522ZM294.47 75.1546V78.9346H316.058V80.8666H294.554V87.7126H300.098V84.3946H321.56V75.1546H294.47ZM294.554 86.5366V90.3166H322.652V86.5366H294.554ZM294.848 52.3906V56.1286H315.974V58.0606H294.89V64.7386H300.434V61.5466H321.476V52.3906H294.848ZM294.89 63.5626V67.3426H322.19V63.5626H294.89ZM365.549 51.6766V90.6946H371.177V51.6766H365.549ZM350.219 54.4066C344.339 54.4066 340.013 59.7826 340.013 68.2666C340.013 76.8346 344.339 82.2106 350.219 82.2106C356.099 82.2106 360.425 76.8346 360.425 68.2666C360.425 59.7826 356.099 54.4066 350.219 54.4066ZM350.219 59.4886C353.117 59.4886 355.049 62.5546 355.049 68.2666C355.049 74.0626 353.117 77.1706 350.219 77.1706C347.321 77.1706 345.347 74.0626 345.347 68.2666C345.347 62.5546 347.321 59.4886 350.219 59.4886ZM385.412 64.7386V71.8786H390.998V64.7386H385.412ZM399.104 64.7386V71.8786H404.648V64.7386H399.104ZM377.516 70.1566V74.5666H412.67V70.1566H377.516ZM395.03 76.5406C386.588 76.5406 381.506 79.0606 381.506 83.5546C381.506 88.0906 386.588 90.6106 395.03 90.6106C403.43 90.6106 408.512 88.0906 408.512 83.5546C408.512 79.0606 403.43 76.5406 395.03 76.5406ZM395.03 80.7406C400.238 80.7406 402.884 81.6226 402.884 83.5546C402.884 85.5286 400.238 86.4106 395.03 86.4106C389.822 86.4106 387.176 85.5286 387.176 83.5546C387.176 81.6226 389.822 80.7406 395.03 80.7406ZM395.114 52.2646C386.504 52.2646 381.044 55.1206 381.044 59.7826C381.044 64.4026 386.504 67.1746 395.114 67.1746C403.682 67.1746 409.184 64.4026 409.184 59.7826C409.184 55.1206 403.682 52.2646 395.114 52.2646ZM395.114 56.5486C400.448 56.5486 403.43 57.5986 403.43 59.7826C403.43 61.9246 400.448 62.9746 395.114 62.9746C389.78 62.9746 386.798 61.9246 386.798 59.7826C386.798 57.5986 389.78 56.5486 395.114 56.5486ZM441.101 51.7186V90.6106H446.645V51.7186H441.101ZM445.385 66.8806V71.5426H452.273V66.8806H445.385ZM415.985 57.4726V61.9246H438.623V57.4726H415.985ZM427.367 64.1086C421.697 64.1086 417.497 67.9726 417.497 73.3906C417.497 78.8086 421.697 82.6726 427.367 82.6726C433.037 82.6726 437.237 78.8086 437.237 73.3906C437.237 67.9726 433.037 64.1086 427.367 64.1086ZM427.367 68.6446C430.013 68.6446 431.903 70.4086 431.903 73.3906C431.903 76.3726 430.013 78.1366 427.367 78.1366C424.721 78.1366 422.831 76.3726 422.831 73.3906C422.831 70.4086 424.721 68.6446 427.367 68.6446ZM424.553 52.3486V59.1526H430.139V52.3486H424.553ZM470.119 64.7806V69.3166H476.545V64.7806H470.119ZM461.803 55.0786V61.6306C461.803 68.2246 459.787 75.1546 454.075 78.6826L457.435 82.8826C463.651 79.0606 466.087 70.4506 466.087 61.6306V55.0786H461.803ZM463.021 55.0786V61.3786C463.021 69.7786 464.953 78.1786 471.127 82.0006L474.151 77.6326C468.859 74.1886 467.221 67.7206 467.221 61.3786V55.0786H463.021ZM482.887 51.7186V90.6106H488.221V51.7186H482.887ZM474.991 52.3066V88.8466H480.199V52.3066H474.991ZM501.196 71.4586V82.3786H506.74V71.4586H501.196ZM515.308 71.4586V82.3786H520.894V71.4586H515.308ZM493.468 81.5806V86.1166H528.664V81.5806H493.468ZM511.024 53.6086C502.624 53.6086 496.492 57.7246 496.492 64.0666C496.492 70.4086 502.624 74.4826 511.024 74.4826C519.382 74.4826 525.556 70.4086 525.556 64.0666C525.556 57.7246 519.382 53.6086 511.024 53.6086ZM511.024 57.9766C516.442 57.9766 520.054 60.2026 520.054 64.0666C520.054 67.8886 516.442 70.1566 511.024 70.1566C505.606 70.1566 501.994 67.8886 501.994 64.0666C501.994 60.2026 505.606 57.9766 511.024 57.9766ZM540.51 56.3271L539.928 77.7149H534.47L533.873 56.3271H540.51ZM537.199 87.2603C536.215 87.2603 535.369 86.9123 534.663 86.2163C533.957 85.5103 533.609 84.6652 533.619 83.6808C533.609 82.7064 533.957 81.8711 534.663 81.1751C535.369 80.4791 536.215 80.1311 537.199 80.1311C538.144 80.1311 538.974 80.4791 539.69 81.1751C540.406 81.8711 540.769 82.7064 540.778 83.6808C540.769 84.337 540.595 84.9386 540.256 85.4855C539.928 86.0224 539.496 86.4549 538.959 86.7831C538.422 87.1013 537.835 87.2603 537.199 87.2603Z" fill="#78B3F9"/>
</svg>
