<svg width="689" height="46" viewBox="0 0 689 46" fill="none" xmlns="http://www.w3.org/2000/svg">
<path d="M16.125 41L21.8523 6.09091H27.3068L21.5795 41H16.125ZM0.494318 32.3409L1.39773 26.8864H28.6705L27.767 32.3409H0.494318ZM3.85227 41L9.57955 6.09091H15.0341L9.30682 41H3.85227ZM2.48864 20.2045L3.40909 14.75H30.6818L29.7614 20.2045H2.48864ZM76.3133 0.823999V45.272H82.4093V0.823999H76.3133ZM59.4173 17.048V22.184H69.7373V17.048H59.4173ZM67.1453 1.592V43.304H73.0973V1.592H67.1453ZM45.4973 30.152V35.432H48.5693C55.0493 35.432 59.4653 35.24 64.4093 34.232L63.9293 29.048C59.0333 30.008 54.8573 30.152 48.5693 30.152H45.4973ZM45.4973 5.816V32.36H51.7853V10.904H62.4413V5.816H45.4973ZM93.0615 21.32V26.408H124.31V21.32H93.0615ZM88.4055 34.712V39.944H128.63V34.712H88.4055ZM93.0615 4.472V23.432H99.3975V9.656H123.974V4.472H93.0615ZM161.026 0.775997V45.368H167.362V0.775997H161.026ZM165.922 17.576V22.856H173.794V17.576H165.922ZM134.338 29.816V35.048H138.082C145.81 35.048 151.906 34.76 158.626 33.56L158.002 28.424C151.474 29.576 145.618 29.816 138.082 29.816H134.338ZM134.29 4.568V9.656H148.402V16.712H134.338V31.784H140.674V21.8H154.738V4.568H134.29ZM207.198 0.871999V32.792H213.63V0.871999H207.198ZM184.014 39.416V44.504H214.734V39.416H184.014ZM184.014 29.576V41.48H190.398V29.576H184.014ZM189.438 3.656C182.622 3.656 177.342 8.36 177.342 14.936C177.342 21.464 182.622 26.216 189.438 26.216C196.254 26.216 201.486 21.464 201.486 14.936C201.486 8.36 196.254 3.656 189.438 3.656ZM189.438 9.176C192.702 9.176 195.246 11.288 195.246 14.936C195.246 18.536 192.702 20.648 189.438 20.648C186.126 20.648 183.582 18.536 183.582 14.936C183.582 11.288 186.126 9.176 189.438 9.176ZM254.64 7.304V12.392H265.584V7.304H254.64ZM262.752 0.823999V23.384H269.136V0.823999H262.752ZM239.76 25.256V30.152H262.8V32.6H239.856V42.776H246.144V37.208H269.136V25.256H239.76ZM239.856 39.848V44.792H270.384V39.848H239.856ZM242.112 2.264V5.432C242.112 11.096 238.992 16.52 231.6 18.728L234.864 23.768C243.36 21.08 247.296 13.832 247.296 5.432V2.264H242.112ZM243.36 2.264V5.432C243.36 13.4 247.152 20.264 255.264 22.904L258.528 17.96C251.52 15.848 248.544 10.712 248.544 5.432V2.264H243.36ZM300.188 11.576V16.76H308.636V11.576H300.188ZM306.908 0.823999V27.224H313.292V0.823999H306.908ZM298.22 28.184C288.812 28.184 283.004 31.4 283.004 36.776C283.004 42.2 288.812 45.32 298.22 45.32C307.628 45.32 313.436 42.2 313.436 36.776C313.436 31.4 307.628 28.184 298.22 28.184ZM298.22 33.032C304.028 33.032 307.1 34.232 307.1 36.776C307.1 39.272 304.028 40.472 298.22 40.472C292.46 40.472 289.388 39.272 289.388 36.776C289.388 34.232 292.46 33.032 298.22 33.032ZM286.364 5.288V8.072C286.364 13.784 283.196 19.688 275.852 22.184L279.116 27.224C287.612 24.344 291.548 16.568 291.548 8.072V5.288H286.364ZM287.708 5.288V8.072C287.708 15.992 291.5 23.384 299.756 26.12L302.876 21.08C295.868 18.728 292.844 13.304 292.844 8.072V5.288H287.708ZM277.58 3.512V8.6H301.484V3.512H277.58ZM340.36 3.032C331 3.032 323.752 8.168 323.752 15.896C323.752 23.672 331 28.76 340.36 28.76C349.72 28.76 356.968 23.672 356.968 15.896C356.968 8.168 349.72 3.032 340.36 3.032ZM340.36 8.216C346.408 8.216 350.728 11.096 350.728 15.896C350.728 20.648 346.408 23.528 340.36 23.528C334.312 23.528 329.992 20.648 329.992 15.896C329.992 11.096 334.312 8.216 340.36 8.216ZM320.296 34.712V39.944H360.52V34.712H320.296ZM364.452 35.192V40.376H404.676V35.192H364.452ZM381.3 26.792V37.304H387.684V26.792H381.3ZM368.964 3.704V8.744H393.828V13.496H369.06V25.976H375.396V18.488H400.164V3.704H368.964ZM369.06 23.432V28.568H401.172V23.432H369.06ZM419.718 34.904V40.136H459.942V34.904H419.718ZM422.79 4.664V9.752H456.63V4.664H422.79ZM422.982 23.048V28.184H456.486V23.048H422.982ZM428.838 9.368V23.528H435.222V9.368H428.838ZM444.246 9.368V23.528H450.582V9.368H444.246ZM463.874 35.192V40.376H504.098V35.192H463.874ZM480.722 26.792V37.304H487.106V26.792H480.722ZM468.386 3.704V8.744H493.25V13.496H468.482V25.976H474.818V18.488H499.586V3.704H468.386ZM468.482 23.432V28.568H500.594V23.432H468.482ZM526.367 11.816V16.952H533.327V11.816H526.367ZM531.119 1.688V27.704H537.071V1.688H531.119ZM515.807 7.496V10.328C515.807 15.272 513.359 20.312 507.407 22.664L510.623 27.608C517.823 24.728 520.751 17.768 520.751 10.328V7.496H515.807ZM517.007 7.496V10.328C517.007 17.48 519.743 24.104 526.703 26.792L529.823 21.896C524.255 19.688 521.951 15.08 521.951 10.328V7.496H517.007ZM508.799 3.992V9.08H528.431V3.992H508.799ZM539.807 0.823999V27.896H545.855V0.823999H539.807ZM515.327 29.528V34.616H539.519V45.272H545.855V29.528H515.327ZM556.891 23.72V28.712H588.139V23.72H556.891ZM552.187 35V40.184H592.411V35H552.187ZM556.891 4.04V25.112H563.371V9.176H587.755V4.04H556.891ZM561.403 13.832V18.776H586.747V13.832H561.403ZM609.372 4.04V9.176H628.38V4.04H609.372ZM614.844 14.408V25.544H621.18V14.408H614.844ZM625.884 4.04V6.824C625.884 9.896 625.884 13.736 624.924 19.208L631.116 19.88C632.172 14.36 632.172 9.944 632.172 6.824V4.04H625.884ZM636.492 0.823999V34.088H642.924V0.823999H636.492ZM640.38 14.36V19.592H648.204V14.36H640.38ZM613.26 39.416V44.504H644.316V39.416H613.26ZM613.26 31.112V41H619.644V31.112H613.26ZM607.356 28.136C614.988 28.136 625.308 27.944 634.476 26.216L634.092 21.704C625.164 22.952 614.46 23.096 606.78 23.096L607.356 28.136ZM682.185 0.775997V45.368H688.569V0.775997H682.185ZM653.961 29.816V35H657.897C666.009 35 672.537 34.76 679.737 33.464L679.113 28.328C672.057 29.528 665.769 29.816 657.897 29.816H653.961ZM653.913 4.568V9.656H668.361V16.712H653.961V31.736H660.441V21.752H674.889V4.568H653.913Z" fill="#A70000"/>
</svg>
