<svg width="518" height="91" viewBox="0 0 518 91" fill="none" xmlns="http://www.w3.org/2000/svg">
<path d="M27.0583 0.845999V39.738H32.3923V0.845999H27.0583ZM12.2743 15.042V19.536H21.3043V15.042H12.2743ZM19.0363 1.518V38.016H24.2443V1.518H19.0363ZM0.0942735 26.508V31.128H2.78227C8.45227 31.128 12.3163 30.96 16.6423 30.078L16.2223 25.542C11.9383 26.382 8.28427 26.508 2.78227 26.508H0.0942735ZM0.0942735 5.214V28.44H5.59627V9.666H14.9203V5.214H0.0942735ZM41.713 18.78V23.232H69.055V18.78H41.713ZM37.639 30.498V35.076H72.835V30.498H37.639ZM41.713 4.038V20.628H47.257V8.574H68.761V4.038H41.713ZM101.182 0.803998V39.822H106.726V0.803998H101.182ZM105.466 15.504V20.124H112.354V15.504H105.466ZM77.8297 26.214V30.792H81.1057C87.8677 30.792 93.2017 30.54 99.0817 29.49L98.5357 24.996C92.8237 26.004 87.6997 26.214 81.1057 26.214H77.8297ZM77.7877 4.122V8.574H90.1357V14.748H77.8297V27.936H83.3737V19.2H95.6797V4.122H77.7877ZM141.582 0.887999V28.818H147.21V0.887999H141.582ZM121.296 34.614V39.066H148.176V34.614H121.296ZM121.296 26.004V36.42H126.882V26.004H121.296ZM126.042 3.324C120.078 3.324 115.458 7.44 115.458 13.194C115.458 18.906 120.078 23.064 126.042 23.064C132.006 23.064 136.584 18.906 136.584 13.194C136.584 7.44 132.006 3.324 126.042 3.324ZM126.042 8.154C128.898 8.154 131.124 10.002 131.124 13.194C131.124 16.344 128.898 18.192 126.042 18.192C123.144 18.192 120.918 16.344 120.918 13.194C120.918 10.002 123.144 8.154 126.042 8.154ZM183.094 6.516V10.968H192.67V6.516H183.094ZM190.192 0.845999V20.586H195.778V0.845999H190.192ZM170.074 22.224V26.508H190.234V28.65H170.158V37.554H175.66V32.682H195.778V22.224H170.074ZM170.158 34.992V39.318H196.87V34.992H170.158ZM172.132 2.106V4.878C172.132 9.834 169.402 14.58 162.934 16.512L165.79 20.922C173.224 18.57 176.668 12.228 176.668 4.878V2.106H172.132ZM173.224 2.106V4.878C173.224 11.85 176.542 17.856 183.64 20.166L186.496 15.84C180.364 13.992 177.76 9.498 177.76 4.878V2.106H173.224ZM222.949 10.254V14.79H230.341V10.254H222.949ZM228.829 0.845999V23.946H234.415V0.845999H228.829ZM221.227 24.786C212.995 24.786 207.913 27.6 207.913 32.304C207.913 37.05 212.995 39.78 221.227 39.78C229.459 39.78 234.541 37.05 234.541 32.304C234.541 27.6 229.459 24.786 221.227 24.786ZM221.227 29.028C226.309 29.028 228.997 30.078 228.997 32.304C228.997 34.488 226.309 35.538 221.227 35.538C216.187 35.538 213.499 34.488 213.499 32.304C213.499 30.078 216.187 29.028 221.227 29.028ZM210.853 4.752V7.188C210.853 12.186 208.081 17.352 201.655 19.536L204.511 23.946C211.945 21.426 215.389 14.622 215.389 7.188V4.752H210.853ZM212.029 4.752V7.188C212.029 14.118 215.347 20.586 222.571 22.98L225.301 18.57C219.169 16.512 216.523 11.766 216.523 7.188V4.752H212.029ZM203.167 3.198V7.65H224.083V3.198H203.167ZM258.099 2.778C249.909 2.778 243.567 7.272 243.567 14.034C243.567 20.838 249.909 25.29 258.099 25.29C266.289 25.29 272.631 20.838 272.631 14.034C272.631 7.272 266.289 2.778 258.099 2.778ZM258.099 7.314C263.391 7.314 267.171 9.834 267.171 14.034C267.171 18.192 263.391 20.712 258.099 20.712C252.807 20.712 249.027 18.192 249.027 14.034C249.027 9.834 252.807 7.314 258.099 7.314ZM240.543 30.498V35.076H275.739V30.498H240.543ZM279.18 30.918V35.454H314.376V30.918H279.18ZM293.922 23.568V32.766H299.508V23.568H293.922ZM283.128 3.366V7.776H304.884V11.934H283.212V22.854H288.756V16.302H310.428V3.366H283.128ZM283.212 20.628V25.122H311.31V20.628H283.212ZM327.537 30.666V35.244H362.733V30.666H327.537ZM330.225 4.206V8.658H359.835V4.206H330.225ZM330.393 20.292V24.786H359.709V20.292H330.393ZM335.517 8.322V20.712H341.103V8.322H335.517ZM348.999 8.322V20.712H354.543V8.322H348.999ZM366.174 30.918V35.454H401.37V30.918H366.174ZM380.916 23.568V32.766H386.502V23.568H380.916ZM370.122 3.366V7.776H391.878V11.934H370.206V22.854H375.75V16.302H397.422V3.366H370.122ZM370.206 20.628V25.122H398.304V20.628H370.206ZM420.855 10.464V14.958H426.945V10.464H420.855ZM425.013 1.602V24.366H430.221V1.602H425.013ZM411.615 6.684V9.162C411.615 13.488 409.473 17.898 404.265 19.956L407.079 24.282C413.379 21.762 415.941 15.672 415.941 9.162V6.684H411.615ZM412.665 6.684V9.162C412.665 15.42 415.059 21.216 421.149 23.568L423.879 19.284C419.007 17.352 416.991 13.32 416.991 9.162V6.684H412.665ZM405.483 3.618V8.07H422.661V3.618H405.483ZM432.615 0.845999V24.534H437.907V0.845999H432.615ZM411.195 25.962V30.414H432.363V39.738H437.907V25.962H411.195ZM447.564 20.88V25.248H474.906V20.88H447.564ZM443.448 30.75V35.286H478.644V30.75H443.448ZM447.564 3.66V22.098H453.234V8.154H474.57V3.66H447.564ZM451.512 12.228V16.554H473.688V12.228H451.512ZM482.042 18.276V22.35H517.28V18.276H482.042ZM485.99 24.282V28.062H507.578V29.994H486.074V36.84H491.618V33.522H513.08V24.282H485.99ZM486.074 35.664V39.444H514.172V35.664H486.074ZM486.368 1.518V5.256H507.494V7.188H486.41V13.866H491.954V10.674H512.996V1.518H486.368ZM486.41 12.69V16.47H513.71V12.69H486.41ZM76.5015 77.76V78.642C76.5015 81.96 72.8895 85.53 64.6995 86.454L66.5895 90.612C76.1235 89.478 81.2055 84.69 81.2055 78.642V77.76H76.5015ZM77.5935 77.76V78.642C77.5935 84.732 82.7595 89.478 92.2515 90.612L94.1835 86.454C85.9515 85.53 82.2975 82.002 82.2975 78.642V77.76H77.5935ZM66.5055 75.408V80.07H92.5455V75.408H66.5055ZM86.5395 51.846V73.728H92.1675V51.846H86.5395ZM70.9995 53.862C64.9515 53.862 60.4155 57.684 60.4155 63.06C60.4155 68.436 64.9515 72.3 70.9995 72.3C77.0475 72.3 81.5415 68.436 81.5415 63.06C81.5415 57.684 77.0475 53.862 70.9995 53.862ZM70.9995 58.482C73.9395 58.482 76.0815 60.162 76.0815 63.06C76.0815 66 73.9395 67.68 70.9995 67.68C68.0175 67.68 65.8755 66 65.8755 63.06C65.8755 60.162 68.0175 58.482 70.9995 58.482ZM107.83 57.978V62.346C107.83 68.94 104.68 76.122 98.1702 79.02L101.32 83.43C108.628 80.112 112.282 71.334 112.282 62.346V57.978H107.83ZM109.09 57.978V62.346C109.09 70.998 112.702 79.272 120.094 82.464L123.118 78.054C116.608 75.366 113.5 68.646 113.5 62.346V57.978H109.09ZM99.7242 55.584V60.162H121.522V55.584H99.7242ZM125.134 51.846V90.738H130.762V51.846H125.134ZM162.133 51.846V71.25H167.719V51.846H162.133ZM165.451 59.28V63.858H172.843V59.28H165.451ZM138.235 53.652V69.822H156.757V53.652H138.235ZM151.255 58.02V65.454H143.737V58.02H151.255ZM142.015 72.804V77.088H162.217V79.44H142.099V88.092H147.643V83.472H167.719V72.804H142.015ZM142.099 85.95V90.318H168.853V85.95H142.099ZM179.35 55.122V59.616H204.004V55.122H179.35ZM175.78 81.54V86.076H210.934V81.54H175.78ZM188.212 68.184V83.766H193.798V68.184H188.212ZM201.988 55.122V58.86C201.988 63.522 201.988 69.15 200.434 76.878L206.02 77.508C207.574 69.192 207.574 63.732 207.574 58.86V55.122H201.988ZM225.817 54.66V59.154H242.449V54.66H225.817ZM230.605 63.732V73.476H236.149V63.732H230.605ZM240.265 54.66V57.096C240.265 59.784 240.265 63.144 239.425 67.932L244.843 68.52C245.767 63.69 245.767 59.826 245.767 57.096V54.66H240.265ZM249.547 51.846V80.952H255.175V51.846H249.547ZM252.949 63.69V68.268H259.795V63.69H252.949ZM229.219 85.614V90.066H256.393V85.614H229.219ZM229.219 78.348V87H234.805V78.348H229.219ZM224.053 75.744C230.731 75.744 239.761 75.576 247.783 74.064L247.447 70.116C239.635 71.208 230.269 71.334 223.549 71.334L224.053 75.744ZM289.528 51.804V90.822H295.114V51.804H289.528ZM264.832 77.214V81.75H268.276C275.374 81.75 281.086 81.54 287.386 80.406L286.84 75.912C280.666 76.962 275.164 77.214 268.276 77.214H264.832ZM264.79 55.122V59.574H277.432V65.748H264.832V78.894H270.502V70.158H283.144V55.122H264.79ZM301.326 57.684V62.136H319.932V57.684H301.326ZM310.692 63.858C305.778 63.858 302.166 67.68 302.166 73.14C302.166 78.558 305.778 82.38 310.692 82.38C315.648 82.38 319.218 78.558 319.218 73.14C319.218 67.68 315.648 63.858 310.692 63.858ZM310.692 68.52C312.792 68.52 314.304 70.2 314.304 73.14C314.304 76.08 312.792 77.718 310.692 77.718C308.592 77.718 307.122 76.08 307.122 73.14C307.122 70.2 308.592 68.52 310.692 68.52ZM329.466 51.846V90.738H334.8V51.846H329.466ZM324.804 67.638V72.132H331.23V67.638H324.804ZM321.318 52.56V89.1H326.526V52.56H321.318ZM307.962 52.896V60.498H313.464V52.896H307.962ZM340.047 81.708V86.244H375.243V81.708H340.047ZM354.789 73.392V82.8H360.375V73.392H354.789ZM343.743 54.324V74.568H371.421V54.324H365.877V60.288H349.287V54.324H343.743ZM349.287 64.656H365.877V70.116H349.287V64.656ZM393.972 64.908V69.444H400.398V64.908H393.972ZM385.656 55.206V61.758C385.656 68.352 383.64 75.282 377.928 78.81L381.288 83.01C387.504 79.188 389.94 70.578 389.94 61.758V55.206H385.656ZM386.874 55.206V61.506C386.874 69.906 388.806 78.306 394.98 82.128L398.004 77.76C392.712 74.316 391.074 67.848 391.074 61.506V55.206H386.874ZM406.74 51.846V90.738H412.074V51.846H406.74ZM398.844 52.434V88.974H404.052V52.434H398.844ZM425.049 71.586V82.506H430.593V71.586H425.049ZM439.161 71.586V82.506H444.747V71.586H439.161ZM417.321 81.708V86.244H452.517V81.708H417.321ZM434.877 53.736C426.477 53.736 420.345 57.852 420.345 64.194C420.345 70.536 426.477 74.61 434.877 74.61C443.235 74.61 449.409 70.536 449.409 64.194C449.409 57.852 443.235 53.736 434.877 53.736ZM434.877 58.104C440.295 58.104 443.907 60.33 443.907 64.194C443.907 68.016 440.295 70.284 434.877 70.284C429.459 70.284 425.847 68.016 425.847 64.194C425.847 60.33 429.459 58.104 434.877 58.104ZM464.362 56.4545L463.781 77.8423H458.322L457.725 56.4545H464.362ZM461.051 87.3878C460.067 87.3878 459.222 87.0398 458.516 86.3438C457.81 85.6378 457.462 84.7926 457.472 83.8082C457.462 82.8338 457.81 81.9986 458.516 81.3026C459.222 80.6065 460.067 80.2585 461.051 80.2585C461.996 80.2585 462.826 80.6065 463.542 81.3026C464.258 81.9986 464.621 82.8338 464.631 83.8082C464.621 84.4645 464.447 85.0661 464.109 85.6129C463.781 86.1499 463.348 86.5824 462.811 86.9105C462.274 87.2287 461.688 87.3878 461.051 87.3878Z" fill="#FA897B"/>
</svg>
