<svg width="385" height="94" viewBox="0 0 385 94" fill="none" xmlns="http://www.w3.org/2000/svg">
<path d="M28.568 0.171877V40.9159H34.332V0.171877H28.568ZM31.164 15.2199V20.0159H38.336V15.2199H31.164ZM0.98 3.86788V31.4999H12.904V3.86788H8.196V13.2399H5.776V3.86788H0.98ZM5.776 17.8159H8.196V26.7919H5.776V17.8159ZM14.488 3.86788V31.4999H26.456V3.86788H21.66V13.2399H19.196V3.86788H14.488ZM19.196 17.8159H21.66V26.7919H19.196V17.8159ZM41.2806 31.5439V36.3399H78.1526V31.5439H41.2806ZM45.4166 2.89988V7.56388H68.2086V11.9199H45.5046V23.3159H51.3126V16.4959H74.0166V2.89988H45.4166ZM45.5046 21.0279V25.6919H74.9406V21.0279H45.5046ZM85.4971 3.60388V8.31188H111.325V3.60388H85.4971ZM81.7571 31.2799V36.0319H118.585V31.2799H81.7571ZM94.7811 17.2879V33.6119H100.633V17.2879H94.7811ZM109.213 3.60388V7.51988C109.213 12.4039 109.213 18.2999 107.585 26.3959L113.437 27.0559C115.065 18.3439 115.065 12.6239 115.065 7.51988V3.60388H109.213ZM130.32 32.6249L130.148 34.3436C130.013 35.7186 129.753 37.0884 129.367 38.453C128.992 39.828 128.596 41.0728 128.18 42.1874C127.773 43.302 127.445 44.177 127.195 44.8124H122.883C123.039 44.1978 123.253 43.3384 123.523 42.2343C123.794 41.1405 124.049 39.9113 124.289 38.5468C124.529 37.1822 124.68 35.7915 124.742 34.3749L124.82 32.6249H130.32ZM172.438 0.171877V30.1799H178.29V0.171877H172.438ZM145.202 3.07588V7.73988H166.718V3.07588H145.202ZM144.762 25.3399C151.23 25.3399 159.986 25.1639 167.554 23.8879L167.246 19.6199C159.898 20.4559 150.746 20.5439 144.19 20.5439L144.762 25.3399ZM148.414 7.16788V21.1159H154.046V7.16788H148.414ZM157.874 7.16788V21.1159H163.462V7.16788H157.874ZM167.51 7.29988V11.9639H175.606V7.29988H167.51ZM167.51 15.4839V20.1919H175.606V15.4839H167.51ZM151.362 35.5479V40.2119H179.214V35.5479H151.362ZM151.362 27.9799V39.0679H157.258V27.9799H151.362ZM212.738 0.127875V41.0039H218.59V0.127875H212.738ZM186.866 26.7479V31.4999H190.474C197.91 31.4999 203.894 31.2799 210.494 30.0919L209.922 25.3839C203.454 26.4839 197.69 26.7479 190.474 26.7479H186.866ZM186.822 3.60388V8.26788H200.066V14.7359H186.866V28.5079H192.806V19.3559H206.05V3.60388H186.822ZM251.367 0.215877V30.6639H257.219V0.215877H251.367ZM255.547 12.6239V17.4199H262.631V12.6239H255.547ZM225.143 4.43988V9.01588H249.123V4.43988H225.143ZM237.155 10.4679C231.259 10.4679 227.123 13.6799 227.123 18.3439C227.123 23.0079 231.259 26.1759 237.155 26.1759C243.007 26.1759 247.143 23.0079 247.143 18.3439C247.143 13.6799 243.007 10.4679 237.155 10.4679ZM237.155 14.9119C239.751 14.9119 241.555 16.1439 241.555 18.3439C241.555 20.5439 239.751 21.7319 237.155 21.7319C234.559 21.7319 232.755 20.5439 232.755 18.3439C232.755 16.1439 234.559 14.9119 237.155 14.9119ZM234.207 0.127875V6.68388H240.059V0.127875H234.207ZM230.951 35.5479V40.2119H258.671V35.5479H230.951ZM230.951 28.3759V37.5719H236.803V28.3759H230.951ZM100.149 53.7439C90.8211 53.7439 85.4091 56.2079 85.4091 60.6959C85.4091 65.1839 90.8211 67.6479 100.149 67.6479C109.433 67.6479 114.889 65.1839 114.889 60.6959C114.889 56.2079 109.433 53.7439 100.149 53.7439ZM100.149 58.0119C106.045 58.0119 108.817 58.8919 108.817 60.6959C108.817 62.5879 106.045 63.3799 100.149 63.3799C94.2531 63.3799 91.4811 62.5879 91.4811 60.6959C91.4811 58.8919 94.2531 58.0119 100.149 58.0119ZM81.7131 69.5399V74.1599H118.541V69.5399H81.7131ZM85.9371 76.4479V80.8039H108.333V82.8719H85.9811V90.5279H91.7451V86.9199H114.097V76.4479H85.9371ZM85.9811 89.2519V93.6519H115.153V89.2519H85.9811ZM160.357 53.1719V73.7639H166.253V53.1719H160.357ZM139.061 75.5679V80.0119H160.445V82.3879H139.149V90.7039H144.869V86.6119H166.253V75.5679H139.061ZM139.149 89.1199V93.6519H167.265V89.1199H139.149ZM141.921 54.0959V57.1759C141.921 62.1479 139.017 67.2519 132.197 69.3199L135.013 73.9399C142.977 71.5199 146.761 64.6999 146.761 57.1759V54.0959H141.921ZM143.109 54.0959V57.1759C143.109 64.5239 146.761 70.9039 154.593 73.1919L157.409 68.6599C150.765 66.7679 147.905 62.0159 147.905 57.1759V54.0959H143.109ZM202.022 53.1719V78.6919H207.566V53.1719H202.022ZM197.05 63.2039V67.9559H203.562V63.2039H197.05ZM193.574 53.9639V77.3719H199.03V53.9639H193.574ZM172.674 57.3519V61.8399H192.43V57.3519H172.674ZM182.618 63.1599C177.514 63.1599 173.818 66.0639 173.818 70.2879C173.818 74.5119 177.514 77.3719 182.618 77.3719C187.722 77.3719 191.418 74.5119 191.418 70.2879C191.418 66.0639 187.722 63.1599 182.618 63.1599ZM182.618 67.3399C184.73 67.3399 186.182 68.3959 186.182 70.2879C186.182 72.1799 184.73 73.2359 182.618 73.2359C180.462 73.2359 179.01 72.1799 179.01 70.2879C179.01 68.3959 180.462 67.3399 182.618 67.3399ZM179.67 53.5679V60.4319H185.434V53.5679H179.67ZM193.794 79.1319C185.038 79.1319 179.758 81.7719 179.758 86.5239C179.758 91.2319 185.038 93.9159 193.794 93.9159C202.506 93.9159 207.786 91.2319 207.786 86.5239C207.786 81.7719 202.506 79.1319 193.794 79.1319ZM193.794 83.4879C199.206 83.4879 201.934 84.4119 201.934 86.5239C201.934 88.5919 199.206 89.5599 193.794 89.5599C188.338 89.5599 185.61 88.5919 185.61 86.5239C185.61 84.4119 188.338 83.4879 193.794 83.4879ZM213.282 59.2879V63.9519H232.774V59.2879H213.282ZM223.094 65.7559C217.946 65.7559 214.162 69.7599 214.162 75.4799C214.162 81.1559 217.946 85.1599 223.094 85.1599C228.286 85.1599 232.026 81.1559 232.026 75.4799C232.026 69.7599 228.286 65.7559 223.094 65.7559ZM223.094 70.6399C225.294 70.6399 226.878 72.3999 226.878 75.4799C226.878 78.5599 225.294 80.2759 223.094 80.2759C220.894 80.2759 219.354 78.5599 219.354 75.4799C219.354 72.3999 220.894 70.6399 223.094 70.6399ZM242.762 53.1719V93.9159H248.35V53.1719H242.762ZM237.878 69.7159V74.4239H244.61V69.7159H237.878ZM234.226 53.9199V92.1999H239.682V53.9199H234.226ZM220.234 54.2719V62.2359H225.998V54.2719H220.234ZM253.847 84.4559V89.2079H290.719V84.4559H253.847ZM269.291 75.7439V85.5999H275.143V75.7439H269.291ZM257.719 55.7679V76.9759H286.715V55.7679H280.907V62.0159H263.527V55.7679H257.719ZM263.527 66.5919H280.907V72.3119H263.527V66.5919ZM310.34 66.8559V71.6079H317.072V66.8559H310.34ZM301.628 56.6919V63.5559C301.628 70.4639 299.516 77.7239 293.532 81.4199L297.052 85.8199C303.564 81.8159 306.116 72.7959 306.116 63.5559V56.6919H301.628ZM302.904 56.6919V63.2919C302.904 72.0919 304.928 80.8919 311.396 84.8959L314.564 80.3199C309.02 76.7119 307.304 69.9359 307.304 63.2919V56.6919H302.904ZM323.716 53.1719V93.9159H329.304V53.1719H323.716ZM315.444 53.7879V92.0679H320.9V53.7879H315.444ZM342.896 73.8519V85.2919H348.704V73.8519H342.896ZM357.68 73.8519V85.2919H363.532V73.8519H357.68ZM334.8 84.4559V89.2079H371.672V84.4559H334.8ZM353.192 55.1519C344.392 55.1519 337.968 59.4639 337.968 66.1079C337.968 72.7519 344.392 77.0199 353.192 77.0199C361.948 77.0199 368.416 72.7519 368.416 66.1079C368.416 59.4639 361.948 55.1519 353.192 55.1519ZM353.192 59.7279C358.868 59.7279 362.652 62.0599 362.652 66.1079C362.652 70.1119 358.868 72.4879 353.192 72.4879C347.516 72.4879 343.732 70.1119 343.732 66.1079C343.732 62.0599 347.516 59.7279 353.192 59.7279ZM384.082 57.9999L383.473 80.4061H377.754L377.129 57.9999H384.082ZM380.613 90.4061C379.582 90.4061 378.697 90.0415 377.957 89.3124C377.217 88.5728 376.853 87.6874 376.863 86.6561C376.853 85.6353 377.217 84.7603 377.957 84.0311C378.697 83.302 379.582 82.9374 380.613 82.9374C381.603 82.9374 382.473 83.302 383.223 84.0311C383.973 84.7603 384.353 85.6353 384.363 86.6561C384.353 87.3436 384.171 87.9738 383.816 88.5468C383.473 89.1093 383.02 89.5624 382.457 89.9061C381.895 90.2395 381.28 90.4061 380.613 90.4061Z" fill="#1C1C1C"/>
<path d="M23.772 61.8399V66.5039H31.252V61.8399H23.772ZM23.684 69.8919V74.5119H31.12V69.8919H23.684ZM0.892 56.6039V61.2239H23.244V56.6039H0.892ZM12.332 62.4119C6.744 62.4119 2.784 65.4479 2.784 69.8039C2.784 74.2039 6.744 77.1959 12.332 77.1959C17.92 77.1959 21.88 74.2039 21.88 69.8039C21.88 65.4479 17.92 62.4119 12.332 62.4119ZM12.332 66.7239C14.752 66.7239 16.468 67.8239 16.468 69.8039C16.468 71.8279 14.752 72.9279 12.332 72.9279C9.868 72.9279 8.24 71.8279 8.24 69.8039C8.24 67.8239 9.868 66.7239 12.332 66.7239ZM9.428 52.8199V59.8159H15.28V52.8199H9.428ZM29.008 53.1719V77.4159H34.86V53.1719H29.008ZM7.58 78.9999V93.4759H34.86V78.9999H29.052V81.9039H13.344V78.9999H7.58ZM13.344 86.2599H29.052V88.9879H13.344V86.2599ZM61.8286 62.1479V66.8559H72.0366V62.1479H61.8286ZM52.5006 54.8439C46.3406 54.8439 41.7206 58.9359 41.7206 64.5679C41.7206 70.2439 46.3406 74.2919 52.5006 74.2919C58.6166 74.2919 63.2366 70.2439 63.2366 64.5679C63.2366 58.9359 58.6166 54.8439 52.5006 54.8439ZM52.5006 59.7279C55.4926 59.7279 57.6486 61.5319 57.6486 64.5679C57.6486 67.6039 55.4926 69.4519 52.5006 69.4519C49.5086 69.4519 47.3086 67.6039 47.3086 64.5679C47.3086 61.5319 49.5086 59.7279 52.5006 59.7279ZM69.4846 53.1719V75.0839H75.3366V53.1719H69.4846ZM48.2766 76.8439V93.4759H75.3366V76.8439H69.5286V80.7159H54.0846V76.8439H48.2766ZM54.0846 85.2039H69.5286V88.8119H54.0846V85.2039Z" fill="#4295F5"/>
</svg>
