<svg width="593" height="46" viewBox="0 0 593 46" fill="none" xmlns="http://www.w3.org/2000/svg">
<path d="M16.125 40.8744L21.8523 5.9653H27.3068L21.5795 40.8744H16.125ZM0.494318 32.2153L1.39773 26.7608H28.6705L27.767 32.2153H0.494318ZM3.85227 40.8744L9.57955 5.9653H15.0341L9.30682 40.8744H3.85227ZM2.48864 20.0789L3.40909 14.6244H30.6818L29.7614 20.0789H2.48864ZM68.2973 11.4504V16.6344H76.7453V11.4504H68.2973ZM75.0173 0.698389V27.0984H81.4013V0.698389H75.0173ZM66.3293 28.0584C56.9213 28.0584 51.1133 31.2744 51.1133 36.6504C51.1133 42.0744 56.9213 45.1944 66.3293 45.1944C75.7373 45.1944 81.5453 42.0744 81.5453 36.6504C81.5453 31.2744 75.7373 28.0584 66.3293 28.0584ZM66.3293 32.9064C72.1373 32.9064 75.2093 34.1064 75.2093 36.6504C75.2093 39.1464 72.1373 40.3464 66.3293 40.3464C60.5693 40.3464 57.4973 39.1464 57.4973 36.6504C57.4973 34.1064 60.5693 32.9064 66.3293 32.9064ZM54.4733 5.16239V7.94639C54.4733 13.6584 51.3053 19.5624 43.9613 22.0584L47.2253 27.0984C55.7213 24.2184 59.6573 16.4424 59.6573 7.94639V5.16239H54.4733ZM55.8173 5.16239V7.94639C55.8173 15.8664 59.6093 23.2584 67.8653 25.9944L70.9853 20.9544C63.9773 18.6024 60.9533 13.1784 60.9533 7.94639V5.16239H55.8173ZM45.6893 3.38639V8.47439H69.5933V3.38639H45.6893ZM98.4375 21.0024V27.3864H104.822V21.0024H98.4375ZM117.254 0.746388V30.9864H123.638V0.746388H117.254ZM121.382 13.4184V18.6504H129.206V13.4184H121.382ZM88.5495 30.1224C96.3255 30.0744 106.502 29.9784 115.766 28.3944L115.286 24.0264C106.31 25.1304 95.7975 25.1784 87.8295 25.1784L88.5495 30.1224ZM93.4935 32.7624V37.6584H117.254V45.1464H123.638V32.7624H93.4935ZM88.9815 3.96239V8.52239H114.182V3.96239H88.9815ZM101.606 9.57839C95.0295 9.57839 90.7575 12.1224 90.7575 16.2024C90.7575 20.2824 95.0295 22.8264 101.606 22.8264C108.134 22.8264 112.406 20.2824 112.406 16.2024C112.406 12.1224 108.134 9.57839 101.606 9.57839ZM101.606 13.7544C104.582 13.7544 106.358 14.5224 106.358 16.2024C106.358 17.7864 104.582 18.6504 101.606 18.6504C98.5815 18.6504 96.8055 17.7864 96.8055 16.2024C96.8055 14.5224 98.5815 13.7544 101.606 13.7544ZM98.4375 0.362388V6.02639H104.822V0.362388H98.4375ZM161.026 0.698389V45.1464H167.362V0.698389H161.026ZM165.922 18.0264V23.3544H173.794V18.0264H165.922ZM132.322 7.27439V12.3624H158.194V7.27439H132.322ZM145.33 14.8584C138.85 14.8584 134.05 19.2744 134.05 25.4664C134.05 31.6584 138.85 36.0744 145.33 36.0744C151.81 36.0744 156.61 31.6584 156.61 25.4664C156.61 19.2744 151.81 14.8584 145.33 14.8584ZM145.33 20.0424C148.354 20.0424 150.514 22.0584 150.514 25.4664C150.514 28.8744 148.354 30.8904 145.33 30.8904C142.306 30.8904 140.146 28.8744 140.146 25.4664C140.146 22.0584 142.306 20.0424 145.33 20.0424ZM142.114 1.41839V9.19439H148.498V1.41839H142.114ZM180.798 4.44239V9.57839H208.974V4.44239H180.798ZM176.718 34.6344V39.8184H216.894V34.6344H176.718ZM190.926 19.3704V37.1784H197.31V19.3704H190.926ZM206.67 4.44239V8.71439C206.67 14.0424 206.67 20.4744 204.894 29.3064L211.278 30.0264C213.054 20.5224 213.054 14.2824 213.054 8.71439V4.44239H206.67ZM260.496 0.698389V32.5224H266.928V0.698389H260.496ZM265.104 13.0824V18.3144H272.832V13.0824H265.104ZM248.112 4.01039V7.17839C248.112 14.2344 242.496 20.1864 231.6 23.1624L234.288 28.2504C247.536 24.4104 254.928 16.1064 254.928 4.01039H248.112ZM233.52 4.01039V9.14639H251.568V4.01039H233.52ZM238.176 39.2904V44.3784H268.416V39.2904H238.176ZM238.176 29.3064V41.5464H244.608V29.3064H238.176ZM306.908 0.698389V33.4344H313.292V0.698389H306.908ZM277.196 3.86639V8.95439H300.668V3.86639H277.196ZM276.716 28.1544C283.772 28.1544 293.324 27.9624 301.58 26.5704L301.244 21.9144C293.228 22.8264 283.244 22.9224 276.092 22.9224L276.716 28.1544ZM280.7 8.33039V23.5464H286.844V8.33039H280.7ZM291.02 8.33039V23.5464H297.116V8.33039H291.02ZM301.532 8.47439V13.5624H310.364V8.47439H301.532ZM301.532 17.4024V22.5384H310.364V17.4024H301.532ZM283.916 39.2904V44.3784H314.3V39.2904H283.916ZM283.916 31.0344V43.1304H290.348V31.0344H283.916ZM348.856 0.746388V33.9624H355.24V0.746388H348.856ZM353.416 14.2824V19.5144H361.144V14.2824H353.416ZM320.248 5.35439V10.3464H346.408V5.35439H320.248ZM333.352 11.9304C326.92 11.9304 322.408 15.4344 322.408 20.5224C322.408 25.6104 326.92 29.0664 333.352 29.0664C339.736 29.0664 344.248 25.6104 344.248 20.5224C344.248 15.4344 339.736 11.9304 333.352 11.9304ZM333.352 16.7784C336.184 16.7784 338.152 18.1224 338.152 20.5224C338.152 22.9224 336.184 24.2184 333.352 24.2184C330.52 24.2184 328.552 22.9224 328.552 20.5224C328.552 18.1224 330.52 16.7784 333.352 16.7784ZM330.136 0.650387V7.80239H336.52V0.650387H330.136ZM326.584 39.2904V44.3784H356.824V39.2904H326.584ZM326.584 31.4664V41.4984H332.968V31.4664H326.584ZM393.61 17.5464V22.6824H400.666V17.5464H393.61ZM383.29 13.0344V14.1864C383.29 21.0024 381.034 28.2984 374.698 31.9944L378.298 36.7944C385.402 32.7144 388.09 23.4504 388.09 14.1864V13.0344H383.29ZM384.538 13.0344V14.1864C384.538 23.3064 387.274 31.9944 394.474 35.7384L397.93 31.0344C391.642 27.6744 389.338 20.9064 389.338 14.1864V13.0344H384.538ZM376.378 8.13839V13.2744H396.202V8.13839H376.378ZM383.29 2.18639V12.3144H389.338V2.18639H383.29ZM407.626 0.698389V45.1464H413.674V0.698389H407.626ZM398.65 1.41839V43.1304H404.602V1.41839H398.65ZM424.23 4.58639V9.67439H452.214V4.58639H424.23ZM419.718 34.6824V39.9144H459.894V34.6824H419.718ZM449.526 4.58639V9.72239C449.526 16.0104 449.526 22.4904 447.462 31.4664L453.75 32.0424C455.814 22.3464 455.814 16.2024 455.814 9.72239V4.58639H449.526ZM450.87 16.7784L422.934 17.6904L423.702 22.8264L450.87 21.4824V16.7784ZM494.45 0.650387V45.2424H500.834V0.650387H494.45ZM466.226 29.6904V34.8744H470.162C478.274 34.8744 484.802 34.6344 492.002 33.3384L491.378 28.2024C484.322 29.4024 478.034 29.6904 470.162 29.6904H466.226ZM466.178 4.44239V9.53039H480.626V16.5864H466.226V31.6104H472.706V21.6264H487.154V4.44239H466.178ZM524.495 3.24239V6.45839C524.495 12.8424 518.975 19.8984 508.943 21.6264L511.679 26.9064C523.199 24.6504 530.062 16.1064 530.062 6.45839V3.24239H524.495ZM525.791 3.24239V6.45839C525.791 16.2504 532.607 24.6504 544.127 26.9064L546.863 21.6264C536.783 19.8984 531.311 12.9864 531.311 6.45839V3.24239H525.791ZM508.031 34.5384V39.7224H548.255V34.5384H508.031ZM556.891 23.5944V28.5864H588.139V23.5944H556.891ZM552.187 34.8744V40.0584H592.411V34.8744H552.187ZM556.891 3.91439V24.9864H563.371V9.05039H587.755V3.91439H556.891ZM561.403 13.7064V18.6504H586.747V13.7064H561.403Z" fill="#400FCD"/>
</svg>
