<svg width="644" height="45" viewBox="0 0 644 45" fill="none" xmlns="http://www.w3.org/2000/svg">
<path d="M16.1251 40.2593L21.8523 5.35019H27.3069L21.5796 40.2593H16.1251ZM0.494379 31.6002L1.39779 26.1456H28.6705L27.7671 31.6002H0.494379ZM3.85233 40.2593L9.57961 5.35019H15.0342L9.30688 40.2593H3.85233ZM2.4887 19.4638L3.40915 14.0093H30.6819L29.7614 19.4638H2.4887ZM77.3949 22.8047C77.3949 26.6115 76.6734 29.8502 75.2302 32.5206C73.7984 35.1911 71.8438 37.2309 69.3665 38.64C66.9006 40.0377 64.1279 40.7366 61.0484 40.7366C57.9461 40.7366 55.162 40.032 52.6961 38.6229C50.2302 37.2138 48.2813 35.1741 46.8495 32.5036C45.4177 29.8331 44.7018 26.6002 44.7018 22.8047C44.7018 18.9979 45.4177 15.7593 46.8495 13.0888C48.2813 10.4184 50.2302 8.38428 52.6961 6.98655C55.162 5.57746 57.9461 4.87291 61.0484 4.87291C64.1279 4.87291 66.9006 5.57746 69.3665 6.98655C71.8438 8.38428 73.7984 10.4184 75.2302 13.0888C76.6734 15.7593 77.3949 18.9979 77.3949 22.8047ZM69.912 22.8047C69.912 20.3388 69.5427 18.2593 68.804 16.5661C68.0768 14.8729 67.0484 13.5888 65.7188 12.7138C64.3893 11.8388 62.8324 11.4013 61.0484 11.4013C59.2643 11.4013 57.7074 11.8388 56.3779 12.7138C55.0484 13.5888 54.0143 14.8729 53.2756 16.5661C52.5484 18.2593 52.1847 20.3388 52.1847 22.8047C52.1847 25.2706 52.5484 27.3502 53.2756 29.0434C54.0143 30.7365 55.0484 32.0206 56.3779 32.8956C57.7074 33.7706 59.2643 34.2081 61.0484 34.2081C62.8324 34.2081 64.3893 33.7706 65.7188 32.8956C67.0484 32.0206 68.0768 30.7365 68.804 29.0434C69.5427 27.3502 69.912 25.2706 69.912 22.8047ZM86.9106 40.2593H79.0015L91.0526 5.35019H100.564L112.598 40.2593H104.689L95.9447 13.3275H95.6719L86.9106 40.2593ZM86.4163 26.5377H105.098V32.299H86.4163V26.5377ZM138.362 5.35019H145.743V28.0206C145.743 30.5661 145.135 32.7934 143.919 34.7025C142.715 36.6115 141.027 38.1002 138.857 39.1684C136.686 40.2252 134.158 40.7536 131.271 40.7536C128.374 40.7536 125.84 40.2252 123.669 39.1684C121.499 38.1002 119.811 36.6115 118.607 34.7025C117.402 32.7934 116.8 30.5661 116.8 28.0206V5.35019H124.18V27.39C124.18 28.7195 124.47 29.9013 125.05 30.9354C125.641 31.9695 126.47 32.782 127.538 33.3729C128.607 33.9638 129.851 34.2593 131.271 34.2593C132.703 34.2593 133.948 33.9638 135.004 33.3729C136.073 32.782 136.896 31.9695 137.476 30.9354C138.067 29.9013 138.362 28.7195 138.362 27.39V5.35019ZM150.486 11.4354V5.35019H179.156V11.4354H168.469V40.2593H161.173V11.4354H150.486ZM183.878 40.2593V5.35019H191.259V19.7536H206.242V5.35019H213.605V40.2593H206.242V25.8388H191.259V40.2593H183.878ZM218.576 20.0033V24.6593H258.848V20.0033H218.576ZM223.088 26.8673V31.1873H247.76V33.3953H223.184V41.2193H229.52V37.4273H254.048V26.8673H223.088ZM223.184 39.8753V44.1953H255.296V39.8753H223.184ZM223.52 0.851275V5.12327H247.664V7.33127H223.568V14.9633H229.904V11.3153H253.952V0.851275H223.52ZM223.568 13.6193V17.9393H254.768V13.6193H223.568ZM273.794 22.9793V27.9713H314.018V22.9793H273.794ZM290.69 18.2273V24.8033H297.074V18.2273H290.69ZM278.786 15.4433V20.2913H309.746V15.4433H278.786ZM278.786 1.18728V18.1793H285.122V6.03527H309.41V1.18728H278.786ZM283.346 8.38728V13.0433H308.402V8.38728H283.346ZM293.858 29.9393C284.066 29.9393 278.402 32.5313 278.402 37.2353C278.402 41.9873 284.066 44.5313 293.858 44.5313C303.602 44.5313 309.266 41.9873 309.266 37.2353C309.266 32.5313 303.602 29.9393 293.858 29.9393ZM293.858 34.6433C300.002 34.6433 302.834 35.4113 302.834 37.2353C302.834 39.1073 300.002 39.8753 293.858 39.8753C287.666 39.8753 284.834 39.1073 284.834 37.2353C284.834 35.4113 287.666 34.6433 293.858 34.6433ZM346.606 0.131276V33.3473H352.99V0.131276H346.606ZM351.166 13.6673V18.8993H358.894V13.6673H351.166ZM317.998 4.73928V9.73128H344.158V4.73928H317.998ZM331.102 11.3153C324.67 11.3153 320.158 14.8193 320.158 19.9073C320.158 24.9953 324.67 28.4513 331.102 28.4513C337.486 28.4513 341.998 24.9953 341.998 19.9073C341.998 14.8193 337.486 11.3153 331.102 11.3153ZM331.102 16.1633C333.934 16.1633 335.902 17.5073 335.902 19.9073C335.902 22.3073 333.934 23.6033 331.102 23.6033C328.27 23.6033 326.302 22.3073 326.302 19.9073C326.302 17.5073 328.27 16.1633 331.102 16.1633ZM327.886 0.0352745V7.18728H334.27V0.0352745H327.886ZM324.334 38.6753V43.7633H354.574V38.6753H324.334ZM324.334 30.8513V40.8833H330.718V30.8513H324.334ZM401.824 0.0832767V31.9073H408.256V0.0832767H401.824ZM406.432 12.4673V17.6993H414.16V12.4673H406.432ZM389.44 3.39528V6.56328C389.44 13.6193 383.824 19.5713 372.928 22.5473L375.616 27.6353C388.864 23.7953 396.256 15.4913 396.256 3.39528H389.44ZM374.848 3.39528V8.53128H392.896V3.39528H374.848ZM379.504 38.6753V43.7633H409.744V38.6753H379.504ZM379.504 28.6913V40.9313H385.936V28.6913H379.504ZM448.236 0.0832767V32.8193H454.62V0.0832767H448.236ZM418.524 3.25128V8.33928H441.996V3.25128H418.524ZM418.044 27.5393C425.1 27.5393 434.652 27.3473 442.908 25.9553L442.572 21.2993C434.556 22.2113 424.572 22.3073 417.42 22.3073L418.044 27.5393ZM422.028 7.71528V22.9313H428.172V7.71528H422.028ZM432.348 7.71528V22.9313H438.444V7.71528H432.348ZM442.86 7.85928V12.9473H451.692V7.85928H442.86ZM442.86 16.7873V21.9233H451.692V16.7873H442.86ZM425.244 38.6753V43.7633H455.628V38.6753H425.244ZM425.244 30.4193V42.5153H431.676V30.4193H425.244ZM490.184 0.131276V33.3473H496.568V0.131276H490.184ZM494.744 13.6673V18.8993H502.472V13.6673H494.744ZM461.576 4.73928V9.73128H487.736V4.73928H461.576ZM474.68 11.3153C468.248 11.3153 463.736 14.8193 463.736 19.9073C463.736 24.9953 468.248 28.4513 474.68 28.4513C481.064 28.4513 485.576 24.9953 485.576 19.9073C485.576 14.8193 481.064 11.3153 474.68 11.3153ZM474.68 16.1633C477.512 16.1633 479.48 17.5073 479.48 19.9073C479.48 22.3073 477.512 23.6033 474.68 23.6033C471.848 23.6033 469.88 22.3073 469.88 19.9073C469.88 17.5073 471.848 16.1633 474.68 16.1633ZM471.464 0.0352745V7.18728H477.848V0.0352745H471.464ZM467.912 38.6753V43.7633H498.152V38.6753H467.912ZM467.912 30.8513V40.8833H474.296V30.8513H467.912ZM516.89 34.4513V39.6353H557.114V34.4513H516.89ZM533.738 26.0513V36.5633H540.122V26.0513H533.738ZM521.402 2.96328V8.00327H546.266V12.7553H521.498V25.2353H527.834V17.7473H552.602V2.96328H521.402ZM521.498 22.6913V27.8273H553.61V22.6913H521.498ZM565.126 4.16328V9.20328H593.302V4.16328H565.126ZM561.046 33.5393V38.7233H601.222V33.5393H561.046ZM589.942 4.16328V9.44328C589.942 15.4433 589.942 21.7793 588.31 30.3233L594.694 30.8513C596.278 21.7313 596.278 15.6833 596.278 9.44328V4.16328H589.942ZM635.682 0.131276V32.0513H642.114V0.131276H635.682ZM612.498 38.6753V43.7633H643.218V38.6753H612.498ZM612.498 28.8353V40.7393H618.882V28.8353H612.498ZM617.922 2.91527C611.106 2.91527 605.826 7.61928 605.826 14.1953C605.826 20.7233 611.106 25.4753 617.922 25.4753C624.738 25.4753 629.97 20.7233 629.97 14.1953C629.97 7.61928 624.738 2.91527 617.922 2.91527ZM617.922 8.43528C621.186 8.43528 623.73 10.5473 623.73 14.1953C623.73 17.7953 621.186 19.9073 617.922 19.9073C614.61 19.9073 612.066 17.7953 612.066 14.1953C612.066 10.5473 614.61 8.43528 617.922 8.43528Z" fill="#0F66CD"/>
</svg>
