<svg width="168" height="168" viewBox="0 0 168 168" fill="none" xmlns="http://www.w3.org/2000/svg">
<path d="M84 0.666504C38 0.666504 0.666672 37.9998 0.666672 83.9998C0.666672 130 38 167.333 84 167.333C130 167.333 167.333 130 167.333 83.9998C167.333 37.9998 130 0.666504 84 0.666504ZM84 25.6665C97.8333 25.6665 109 36.8332 109 50.6665C109 64.4998 97.8333 75.6665 84 75.6665C70.1667 75.6665 59 64.4998 59 50.6665C59 36.8332 70.1667 25.6665 84 25.6665ZM84 144C63.1667 144 44.75 133.333 34 117.167C34.25 100.583 67.3333 91.4998 84 91.4998C100.583 91.4998 133.75 100.583 134 117.167C123.25 133.333 104.833 144 84 144Z" fill="#4295F5"/>
</svg>
