<svg width="70" height="70" viewBox="0 0 70 70" fill="none" xmlns="http://www.w3.org/2000/svg">
<path d="M35 5.83331C18.9 5.83331 5.83337 18.9 5.83337 35C5.83337 51.1 18.9 64.1666 35 64.1666C51.1 64.1666 64.1667 51.1 64.1667 35C64.1667 18.9 51.1 5.83331 35 5.83331ZM35 14.5833C39.8417 14.5833 43.75 18.4916 43.75 23.3333C43.75 28.175 39.8417 32.0833 35 32.0833C30.1584 32.0833 26.25 28.175 26.25 23.3333C26.25 18.4916 30.1584 14.5833 35 14.5833ZM35 56C27.7084 56 21.2625 52.2666 17.5 46.6083C17.5875 40.8041 29.1667 37.625 35 37.625C40.8042 37.625 52.4125 40.8041 52.5 46.6083C48.7375 52.2666 42.2917 56 35 56Z" fill="#4295F5"/>
</svg>
