<svg width="30" height="30" viewBox="0 0 30 30" fill="none" xmlns="http://www.w3.org/2000/svg">
<path d="M14.9875 2.5C8.08755 2.5 2.48755 8.1 2.48755 15C2.48755 21.9 8.08755 27.5 14.9875 27.5C21.8875 27.5 27.4875 21.9 27.4875 15C27.4875 8.1 21.8875 2.5 14.9875 2.5ZM19.5 10.425C20.8375 10.425 21.9125 11.5 21.9125 12.8375C21.9125 14.175 20.8375 15.25 19.5 15.25C18.1625 15.25 17.0875 14.175 17.0875 12.8375C17.075 11.5 18.1625 10.425 19.5 10.425ZM12 8.45C13.625 8.45 14.95 9.775 14.95 11.4C14.95 13.025 13.625 14.35 12 14.35C10.375 14.35 9.05005 13.025 9.05005 11.4C9.05005 9.7625 10.3625 8.45 12 8.45ZM12 19.8625V24.55C9.00005 23.6125 6.62505 21.3 5.57505 18.35C6.88755 16.95 10.1625 16.2375 12 16.2375C12.6625 16.2375 13.5 16.3375 14.375 16.5125C12.325 17.6 12 19.0375 12 19.8625ZM14.9875 25C14.65 25 14.325 24.9875 14 24.95V19.8625C14 18.0875 17.675 17.2 19.5 17.2C20.8375 17.2 23.15 17.6875 24.3 18.6375C22.8375 22.35 19.225 25 14.9875 25Z" fill="#4295F5"/>
</svg>
