<svg width="208" height="79" viewBox="0 0 208 79" fill="none" xmlns="http://www.w3.org/2000/svg">
<rect y="0.10376" width="208" height="78.618" rx="20" fill="#78B3F9"/>
<path d="M62.916 29.0717V32.5817C62.916 37.2617 60.94 41.8897 56.754 43.7097L58.808 46.5697C63.592 44.3597 65.724 38.7697 65.724 32.5817V29.0717H62.916ZM63.592 29.0717V32.5817C63.592 38.5097 65.724 43.8657 70.378 45.9977L72.406 43.2157C68.298 41.4477 66.4 37.0277 66.4 32.5817V29.0717H63.592ZM73.55 27.1997V51.3537H77.034V27.1997H73.55ZM86.314 29.6957V31.2037C86.314 34.2197 84.624 37.3397 80.594 38.6397L82.388 41.3177C86.99 39.8357 89.148 35.7537 89.148 31.2037V29.6957H86.314ZM87.016 29.6957V31.2037C87.016 35.5197 89.096 39.4457 93.594 40.9017L95.362 38.2237C91.462 36.9757 89.824 34.0377 89.824 31.2037V29.6957H87.016ZM81.53 28.6297V31.3857H94.53V28.6297H81.53ZM96.454 27.2257V41.7337H99.912V27.2257H96.454ZM98.95 33.0497V35.8837H103.11V33.0497H98.95ZM83.844 42.7737V45.5557H96.454V51.3017H99.912V42.7737H83.844ZM120.32 27.2257V51.3017H123.752V27.2257H120.32ZM122.972 36.6117V39.4977H127.236V36.6117H122.972ZM104.772 30.7877V33.5437H118.786V30.7877H104.772ZM111.818 34.8957C108.308 34.8957 105.708 37.2877 105.708 40.6417C105.708 43.9957 108.308 46.3877 111.818 46.3877C115.328 46.3877 117.928 43.9957 117.928 40.6417C117.928 37.2877 115.328 34.8957 111.818 34.8957ZM111.818 37.7037C113.456 37.7037 114.626 38.7957 114.626 40.6417C114.626 42.4877 113.456 43.5797 111.818 43.5797C110.18 43.5797 109.01 42.4877 109.01 40.6417C109.01 38.7957 110.18 37.7037 111.818 37.7037ZM110.076 27.6157V31.8277H113.534V27.6157H110.076ZM145.382 27.2257V51.3017H148.866V27.2257H145.382ZM138.284 29.7217V30.3457C138.284 36.7937 135.788 41.1617 128.872 44.4897L130.666 47.2457C139.22 43.1117 141.716 37.0797 141.716 29.7217H138.284ZM130.146 29.7217V32.4517H139.922V29.7217H130.146Z" fill="#0F66CD"/>
</svg>
