<svg width="209" height="78" viewBox="0 0 209 78" fill="none" xmlns="http://www.w3.org/2000/svg">
<g filter="url(#filter0_i_272_46)">
<rect y="0.997803" width="209" height="77" rx="20" fill="#4295F5"/>
<path d="M63.916 29.0818V32.5918C63.916 37.2718 61.94 41.8998 57.754 43.7198L59.808 46.5798C64.592 44.3698 66.724 38.7798 66.724 32.5918V29.0818H63.916ZM64.592 29.0818V32.5918C64.592 38.5198 66.724 43.8758 71.378 46.0078L73.406 43.2258C69.298 41.4578 67.4 37.0378 67.4 32.5918V29.0818H64.592ZM74.55 27.2098V51.3638H78.034V27.2098H74.55ZM87.314 29.7058V31.2138C87.314 34.2298 85.624 37.3498 81.594 38.6498L83.388 41.3278C87.99 39.8458 90.148 35.7638 90.148 31.2138V29.7058H87.314ZM88.016 29.7058V31.2138C88.016 35.5298 90.096 39.4558 94.594 40.9118L96.362 38.2338C92.462 36.9858 90.824 34.0478 90.824 31.2138V29.7058H88.016ZM82.53 28.6398V31.3958H95.53V28.6398H82.53ZM97.454 27.2358V41.7438H100.912V27.2358H97.454ZM99.95 33.0598V35.8938H104.11V33.0598H99.95ZM84.844 42.7838V45.5658H97.454V51.3118H100.912V42.7838H84.844ZM121.32 27.2358V51.3118H124.752V27.2358H121.32ZM123.972 36.6218V39.5078H128.236V36.6218H123.972ZM105.772 30.7978V33.5538H119.786V30.7978H105.772ZM112.818 34.9058C109.308 34.9058 106.708 37.2978 106.708 40.6518C106.708 44.0058 109.308 46.3978 112.818 46.3978C116.328 46.3978 118.928 44.0058 118.928 40.6518C118.928 37.2978 116.328 34.9058 112.818 34.9058ZM112.818 37.7138C114.456 37.7138 115.626 38.8058 115.626 40.6518C115.626 42.4978 114.456 43.5898 112.818 43.5898C111.18 43.5898 110.01 42.4978 110.01 40.6518C110.01 38.8058 111.18 37.7138 112.818 37.7138ZM111.076 27.6258V31.8378H114.534V27.6258H111.076ZM146.382 27.2358V51.3118H149.866V27.2358H146.382ZM139.284 29.7318V30.3558C139.284 36.8038 136.788 41.1718 129.872 44.4998L131.666 47.2558C140.22 43.1218 142.716 37.0898 142.716 29.7318H139.284ZM131.146 29.7318V32.4618H140.922V29.7318H131.146Z" fill="white"/>
</g>
<defs>
<filter id="filter0_i_272_46" x="0" y="0.997803" width="209" height="77" filterUnits="userSpaceOnUse" color-interpolation-filters="sRGB">
<feFlood flood-opacity="0" result="BackgroundImageFix"/>
<feBlend mode="normal" in="SourceGraphic" in2="BackgroundImageFix" result="shape"/>
<feColorMatrix in="SourceAlpha" type="matrix" values="0 0 0 0 0 0 0 0 0 0 0 0 0 0 0 0 0 0 127 0" result="hardAlpha"/>
<feOffset/>
<feGaussianBlur stdDeviation="5"/>
<feComposite in2="hardAlpha" operator="arithmetic" k2="-1" k3="1"/>
<feColorMatrix type="matrix" values="0 0 0 0 0 0 0 0 0 0 0 0 0 0 0 0 0 0 0.3 0"/>
<feBlend mode="normal" in2="shape" result="effect1_innerShadow_272_46"/>
</filter>
</defs>
</svg>
