<svg width="349" height="373" viewBox="0 0 349 373" fill="none" xmlns="http://www.w3.org/2000/svg">
<rect width="349" height="373" rx="20" fill="white"/>
<rect x="21" y="207" width="308" height="155" rx="20" fill="#FFF4F4"/>
<path d="M45.352 283.343V289.727H46.514V283.343H45.352ZM46.192 285.961V286.927H48.39V285.961H46.192ZM37.302 283.889V288.747H38.464V283.889H37.302ZM37.302 288.131V289.111H38.296C40.172 289.111 42.062 288.985 44.19 288.551L44.05 287.585C41.992 288.005 40.102 288.131 38.296 288.131H37.302ZM38.478 290.329V291.267H45.366V292.555H38.506V295.369H39.654V293.451H46.514V290.329H38.478ZM38.506 294.893V295.831H46.976V294.893H38.506ZM58.4409 283.343V295.999H59.6029V283.343H58.4409ZM59.0149 288.369V289.349H61.3529V288.369H59.0149ZM51.3569 285.219V287.095C51.3569 288.901 50.9369 291.323 49.3969 292.499L50.1389 293.339C51.7629 292.065 52.2109 289.307 52.2109 287.095V285.219H51.3569ZM51.5949 285.219V287.095C51.5949 289.097 51.9309 292.107 53.6669 293.465L54.3109 292.583C52.7289 291.295 52.4489 288.733 52.4489 287.095V285.219H51.5949ZM54.8709 285.219V287.095C54.8709 288.831 54.5909 291.337 53.0089 292.583L53.6669 293.465C55.3749 292.135 55.7249 289.209 55.7249 287.095V285.219H54.8709ZM55.1089 285.219V287.095C55.1089 289.377 55.5709 292.079 57.2089 293.339L57.9509 292.499C56.3969 291.351 55.9909 288.985 55.9909 287.095V285.219H55.1089ZM49.8029 284.617V285.583H53.4009V284.617H49.8029ZM53.9329 284.617V285.583H57.4329V284.617H53.9329Z" fill="#FA897B"/>
<rect x="36" y="300" width="115" height="25" rx="10" fill="white"/>
<path d="M169.648 316.414C169.634 315.628 169.761 314.996 170.031 314.517C170.301 314.039 170.652 313.691 171.082 313.473C171.518 313.256 171.977 313.147 172.46 313.147C172.943 313.147 173.384 313.253 173.781 313.466C174.184 313.675 174.643 314.004 175.159 314.454C175.509 314.757 175.789 314.97 175.997 315.093C176.21 315.216 176.442 315.277 176.693 315.277C177.1 315.277 177.422 315.131 177.659 314.837C177.896 314.539 178.009 314.108 178 313.544H179.534C179.548 314.33 179.42 314.963 179.151 315.441C178.885 315.919 178.535 316.267 178.099 316.485C177.664 316.703 177.205 316.811 176.722 316.811C176.239 316.811 175.798 316.707 175.401 316.499C175.003 316.286 174.544 315.954 174.023 315.505C173.677 315.202 173.398 314.989 173.185 314.865C172.972 314.742 172.74 314.681 172.489 314.681C172.105 314.681 171.788 314.816 171.537 315.086C171.291 315.351 171.172 315.793 171.182 316.414H169.648Z" fill="#828282"/>
<rect x="199" y="300" width="115" height="25" rx="10" fill="white"/>
<path d="M37.456 228.818V230.482H38.72C41.84 230.482 43.712 230.45 45.792 230.098L45.584 228.45C43.552 228.786 41.776 228.818 38.72 228.818H37.456ZM37.456 223.202V229.506H39.568V224.882H44.576V223.202H37.456ZM38.912 226.002V227.65H44.144V226.002H38.912ZM46.816 222.37V231.154H48.96V222.37H46.816ZM39.104 231.762V237.01H48.96V231.762H39.104ZM46.864 233.426V235.33H41.184V233.426H46.864ZM55.2148 229.954V233.202H57.3428V229.954H55.2148ZM61.7108 222.354V233.57H63.8388V222.354H61.7108ZM53.1668 235.218V236.914H64.1588V235.218H53.1668ZM53.1668 232.514V235.666H55.2948V232.514H53.1668ZM51.5668 230.594C54.2388 230.594 57.7108 230.514 60.8628 229.986L60.7348 228.466C57.6308 228.866 54.0148 228.898 51.3108 228.898L51.5668 230.594ZM58.9108 230.962V232.418H62.1748V230.962H58.9108ZM56.0788 222.866C53.9028 222.866 52.3828 223.938 52.3828 225.506C52.3828 227.09 53.9028 228.146 56.0788 228.146C58.2388 228.146 59.7587 227.09 59.7587 225.506C59.7587 223.938 58.2388 222.866 56.0788 222.866ZM56.0788 224.418C57.0548 224.418 57.7428 224.786 57.7428 225.506C57.7428 226.226 57.0548 226.594 56.0788 226.594C55.0868 226.594 54.3988 226.226 54.3988 225.506C54.3988 224.786 55.0868 224.418 56.0788 224.418ZM76.9486 224.498V226.178H80.7246V224.498H76.9486ZM76.9486 227.458V229.154H80.7886V227.458H76.9486ZM80.0526 222.354V231.026H82.1806V222.354H80.0526ZM70.3886 223.426V230.226H77.3966V223.426H70.3886ZM75.3006 225.106V228.562H72.4846V225.106H75.3006ZM77.1566 231.41C74.0206 231.41 72.0846 232.482 72.0846 234.29C72.0846 236.114 74.0206 237.17 77.1566 237.17C80.2926 237.17 82.2286 236.114 82.2286 234.29C82.2286 232.482 80.2926 231.41 77.1566 231.41ZM77.1566 233.042C79.0926 233.042 80.1166 233.442 80.1166 234.29C80.1166 235.138 79.0926 235.554 77.1566 235.554C75.2366 235.554 74.2126 235.138 74.2126 234.29C74.2126 233.442 75.2366 233.042 77.1566 233.042Z" fill="#E96161"/>
<rect x="21" y="14.3462" width="308" height="50.9057" rx="20" fill="#FFF4F4"/>
<rect x="22.5" y="15.8462" width="305" height="47.9057" rx="18.5" stroke="#FA897B" stroke-opacity="0.5" stroke-width="3"/>
<circle cx="45" cy="40" r="10" fill="#E96161"/>
<rect x="21" y="74.9702" width="308" height="50.9057" rx="20" fill="#FFF4F4"/>
<circle cx="45" cy="100" r="10" fill="#C4AFFF"/>
<rect x="21" y="135.594" width="308" height="50.9057" rx="20" fill="#FFF4F4"/>
<circle cx="45" cy="161" r="10" fill="#FFCE85"/>
<rect x="36" y="242" width="278" height="27" rx="10" fill="url(#paint0_linear_767_3)"/>
<path d="M49.2045 318V316.977L53.0455 312.773C53.4962 312.28 53.8674 311.852 54.1591 311.489C54.4508 311.121 54.6667 310.777 54.8068 310.455C54.9508 310.129 55.0227 309.788 55.0227 309.432C55.0227 309.023 54.9242 308.669 54.7273 308.369C54.5341 308.07 54.2689 307.839 53.9318 307.676C53.5947 307.513 53.2159 307.432 52.7955 307.432C52.3485 307.432 51.9583 307.525 51.625 307.71C51.2955 307.892 51.0398 308.148 50.858 308.477C50.6799 308.807 50.5909 309.193 50.5909 309.636H49.25C49.25 308.955 49.4072 308.356 49.7216 307.841C50.036 307.326 50.464 306.924 51.0057 306.636C51.5511 306.348 52.1629 306.205 52.8409 306.205C53.5227 306.205 54.1269 306.348 54.6534 306.636C55.1799 306.924 55.5928 307.312 55.892 307.801C56.1913 308.29 56.3409 308.833 56.3409 309.432C56.3409 309.86 56.2633 310.278 56.108 310.688C55.9564 311.093 55.6913 311.545 55.3125 312.045C54.9375 312.542 54.4167 313.148 53.75 313.864L51.1364 316.659V316.75H56.5455V318H49.2045ZM62.6875 318.159C61.8314 318.159 61.1023 317.926 60.5 317.46C59.8977 316.991 59.4375 316.311 59.1193 315.42C58.8011 314.527 58.642 313.447 58.642 312.182C58.642 310.924 58.8011 309.85 59.1193 308.96C59.4413 308.066 59.9034 307.384 60.5057 306.915C61.1117 306.441 61.839 306.205 62.6875 306.205C63.536 306.205 64.2614 306.441 64.8636 306.915C65.4697 307.384 65.9318 308.066 66.25 308.96C66.572 309.85 66.733 310.924 66.733 312.182C66.733 313.447 66.5739 314.527 66.2557 315.42C65.9375 316.311 65.4773 316.991 64.875 317.46C64.2727 317.926 63.5436 318.159 62.6875 318.159ZM62.6875 316.909C63.536 316.909 64.1951 316.5 64.6648 315.682C65.1345 314.864 65.3693 313.697 65.3693 312.182C65.3693 311.174 65.2614 310.316 65.0455 309.608C64.8333 308.9 64.5265 308.36 64.125 307.989C63.7273 307.617 63.2481 307.432 62.6875 307.432C61.8466 307.432 61.1894 307.847 60.7159 308.676C60.2424 309.502 60.0057 310.67 60.0057 312.182C60.0057 313.189 60.1117 314.045 60.3239 314.75C60.536 315.455 60.8409 315.991 61.2386 316.358C61.6402 316.725 62.1231 316.909 62.6875 316.909ZM68.892 318V316.977L72.733 312.773C73.1837 312.28 73.5549 311.852 73.8466 311.489C74.1383 311.121 74.3542 310.777 74.4943 310.455C74.6383 310.129 74.7102 309.788 74.7102 309.432C74.7102 309.023 74.6117 308.669 74.4148 308.369C74.2216 308.07 73.9564 307.839 73.6193 307.676C73.2822 307.513 72.9034 307.432 72.483 307.432C72.036 307.432 71.6458 307.525 71.3125 307.71C70.983 307.892 70.7273 308.148 70.5455 308.477C70.3674 308.807 70.2784 309.193 70.2784 309.636H68.9375C68.9375 308.955 69.0947 308.356 69.4091 307.841C69.7235 307.326 70.1515 306.924 70.6932 306.636C71.2386 306.348 71.8504 306.205 72.5284 306.205C73.2102 306.205 73.8144 306.348 74.3409 306.636C74.8674 306.924 75.2803 307.312 75.5795 307.801C75.8788 308.29 76.0284 308.833 76.0284 309.432C76.0284 309.86 75.9508 310.278 75.7955 310.688C75.6439 311.093 75.3788 311.545 75 312.045C74.625 312.542 74.1042 313.148 73.4375 313.864L70.8239 316.659V316.75H76.233V318H68.892ZM78.5795 318V316.977L82.4205 312.773C82.8712 312.28 83.2424 311.852 83.5341 311.489C83.8258 311.121 84.0417 310.777 84.1818 310.455C84.3258 310.129 84.3977 309.788 84.3977 309.432C84.3977 309.023 84.2992 308.669 84.1023 308.369C83.9091 308.07 83.6439 307.839 83.3068 307.676C82.9697 307.513 82.5909 307.432 82.1705 307.432C81.7235 307.432 81.3333 307.525 81 307.71C80.6705 307.892 80.4148 308.148 80.233 308.477C80.0549 308.807 79.9659 309.193 79.9659 309.636H78.625C78.625 308.955 78.7822 308.356 79.0966 307.841C79.411 307.326 79.839 306.924 80.3807 306.636C80.9261 306.348 81.5379 306.205 82.2159 306.205C82.8977 306.205 83.5019 306.348 84.0284 306.636C84.5549 306.924 84.9678 307.312 85.267 307.801C85.5663 308.29 85.7159 308.833 85.7159 309.432C85.7159 309.86 85.6383 310.278 85.483 310.688C85.3314 311.093 85.0663 311.545 84.6875 312.045C84.3125 312.542 83.7917 313.148 83.125 313.864L80.5114 316.659V316.75H85.9205V318H78.5795ZM92.4034 305.818L88.6534 319.75H87.4261L91.1761 305.818H92.4034ZM97.7656 318.159C96.9096 318.159 96.1804 317.926 95.5781 317.46C94.9759 316.991 94.5156 316.311 94.1974 315.42C93.8793 314.527 93.7202 313.447 93.7202 312.182C93.7202 310.924 93.8793 309.85 94.1974 308.96C94.5194 308.066 94.9815 307.384 95.5838 306.915C96.1899 306.441 96.9171 306.205 97.7656 306.205C98.6141 306.205 99.3395 306.441 99.9418 306.915C100.548 307.384 101.01 308.066 101.328 308.96C101.65 309.85 101.811 310.924 101.811 312.182C101.811 313.447 101.652 314.527 101.334 315.42C101.016 316.311 100.555 316.991 99.9531 317.46C99.3509 317.926 98.6217 318.159 97.7656 318.159ZM97.7656 316.909C98.6141 316.909 99.2732 316.5 99.7429 315.682C100.213 314.864 100.447 313.697 100.447 312.182C100.447 311.174 100.339 310.316 100.124 309.608C99.9115 308.9 99.6046 308.36 99.2031 307.989C98.8054 307.617 98.3262 307.432 97.7656 307.432C96.9247 307.432 96.2675 307.847 95.794 308.676C95.3205 309.502 95.0838 310.67 95.0838 312.182C95.0838 313.189 95.1899 314.045 95.402 314.75C95.6141 315.455 95.919 315.991 96.3168 316.358C96.7183 316.725 97.2012 316.909 97.7656 316.909ZM107.607 318.159C106.94 318.159 106.339 318.027 105.805 317.761C105.271 317.496 104.843 317.133 104.521 316.67C104.199 316.208 104.023 315.682 103.993 315.091H105.357C105.41 315.617 105.648 316.053 106.072 316.398C106.5 316.739 107.012 316.909 107.607 316.909C108.084 316.909 108.508 316.797 108.879 316.574C109.254 316.35 109.548 316.044 109.76 315.653C109.976 315.259 110.084 314.814 110.084 314.318C110.084 313.811 109.972 313.358 109.749 312.96C109.529 312.559 109.226 312.242 108.839 312.011C108.453 311.78 108.012 311.663 107.516 311.659C107.16 311.655 106.794 311.71 106.419 311.824C106.044 311.934 105.735 312.076 105.493 312.25L104.175 312.091L104.879 306.364H110.925V307.614H106.061L105.652 311.045H105.72C105.959 310.856 106.258 310.699 106.618 310.574C106.978 310.449 107.353 310.386 107.743 310.386C108.455 310.386 109.089 310.557 109.646 310.898C110.207 311.235 110.646 311.697 110.964 312.284C111.286 312.871 111.447 313.542 111.447 314.295C111.447 315.038 111.281 315.701 110.947 316.284C110.618 316.864 110.163 317.322 109.584 317.659C109.004 317.992 108.345 318.159 107.607 318.159ZM117.841 305.818L114.091 319.75H112.864L116.614 305.818H117.841ZM123.203 318.159C122.347 318.159 121.618 317.926 121.016 317.46C120.413 316.991 119.953 316.311 119.635 315.42C119.317 314.527 119.158 313.447 119.158 312.182C119.158 310.924 119.317 309.85 119.635 308.96C119.957 308.066 120.419 307.384 121.021 306.915C121.627 306.441 122.355 306.205 123.203 306.205C124.052 306.205 124.777 306.441 125.379 306.915C125.985 307.384 126.447 308.066 126.766 308.96C127.088 309.85 127.249 310.924 127.249 312.182C127.249 313.447 127.089 314.527 126.771 315.42C126.453 316.311 125.993 316.991 125.391 317.46C124.788 317.926 124.059 318.159 123.203 318.159ZM123.203 316.909C124.052 316.909 124.711 316.5 125.18 315.682C125.65 314.864 125.885 313.697 125.885 312.182C125.885 311.174 125.777 310.316 125.561 309.608C125.349 308.9 125.042 308.36 124.641 307.989C124.243 307.617 123.764 307.432 123.203 307.432C122.362 307.432 121.705 307.847 121.232 308.676C120.758 309.502 120.521 310.67 120.521 312.182C120.521 313.189 120.627 314.045 120.839 314.75C121.052 315.455 121.357 315.991 121.754 316.358C122.156 316.725 122.639 316.909 123.203 316.909ZM129.135 315.614V314.455L134.249 306.364H135.089V308.159H134.521L130.658 314.273V314.364H137.544V315.614H129.135ZM134.612 318V315.261V314.722V306.364H135.953V318H134.612Z" fill="#828282"/>
<path d="M212.205 318V316.977L216.045 312.773C216.496 312.28 216.867 311.852 217.159 311.489C217.451 311.121 217.667 310.777 217.807 310.455C217.951 310.129 218.023 309.788 218.023 309.432C218.023 309.023 217.924 308.669 217.727 308.369C217.534 308.07 217.269 307.839 216.932 307.676C216.595 307.513 216.216 307.432 215.795 307.432C215.348 307.432 214.958 307.525 214.625 307.71C214.295 307.892 214.04 308.148 213.858 308.477C213.68 308.807 213.591 309.193 213.591 309.636H212.25C212.25 308.955 212.407 308.356 212.722 307.841C213.036 307.326 213.464 306.924 214.006 306.636C214.551 306.348 215.163 306.205 215.841 306.205C216.523 306.205 217.127 306.348 217.653 306.636C218.18 306.924 218.593 307.312 218.892 307.801C219.191 308.29 219.341 308.833 219.341 309.432C219.341 309.86 219.263 310.278 219.108 310.688C218.956 311.093 218.691 311.545 218.312 312.045C217.938 312.542 217.417 313.148 216.75 313.864L214.136 316.659V316.75H219.545V318H212.205ZM225.688 318.159C224.831 318.159 224.102 317.926 223.5 317.46C222.898 316.991 222.438 316.311 222.119 315.42C221.801 314.527 221.642 313.447 221.642 312.182C221.642 310.924 221.801 309.85 222.119 308.96C222.441 308.066 222.903 307.384 223.506 306.915C224.112 306.441 224.839 306.205 225.688 306.205C226.536 306.205 227.261 306.441 227.864 306.915C228.47 307.384 228.932 308.066 229.25 308.96C229.572 309.85 229.733 310.924 229.733 312.182C229.733 313.447 229.574 314.527 229.256 315.42C228.938 316.311 228.477 316.991 227.875 317.46C227.273 317.926 226.544 318.159 225.688 318.159ZM225.688 316.909C226.536 316.909 227.195 316.5 227.665 315.682C228.134 314.864 228.369 313.697 228.369 312.182C228.369 311.174 228.261 310.316 228.045 309.608C227.833 308.9 227.527 308.36 227.125 307.989C226.727 307.617 226.248 307.432 225.688 307.432C224.847 307.432 224.189 307.847 223.716 308.676C223.242 309.502 223.006 310.67 223.006 312.182C223.006 313.189 223.112 314.045 223.324 314.75C223.536 315.455 223.841 315.991 224.239 316.358C224.64 316.725 225.123 316.909 225.688 316.909ZM231.892 318V316.977L235.733 312.773C236.184 312.28 236.555 311.852 236.847 311.489C237.138 311.121 237.354 310.777 237.494 310.455C237.638 310.129 237.71 309.788 237.71 309.432C237.71 309.023 237.612 308.669 237.415 308.369C237.222 308.07 236.956 307.839 236.619 307.676C236.282 307.513 235.903 307.432 235.483 307.432C235.036 307.432 234.646 307.525 234.312 307.71C233.983 307.892 233.727 308.148 233.545 308.477C233.367 308.807 233.278 309.193 233.278 309.636H231.938C231.938 308.955 232.095 308.356 232.409 307.841C232.723 307.326 233.152 306.924 233.693 306.636C234.239 306.348 234.85 306.205 235.528 306.205C236.21 306.205 236.814 306.348 237.341 306.636C237.867 306.924 238.28 307.312 238.58 307.801C238.879 308.29 239.028 308.833 239.028 309.432C239.028 309.86 238.951 310.278 238.795 310.688C238.644 311.093 238.379 311.545 238 312.045C237.625 312.542 237.104 313.148 236.438 313.864L233.824 316.659V316.75H239.233V318H231.892ZM241.58 318V316.977L245.42 312.773C245.871 312.28 246.242 311.852 246.534 311.489C246.826 311.121 247.042 310.777 247.182 310.455C247.326 310.129 247.398 309.788 247.398 309.432C247.398 309.023 247.299 308.669 247.102 308.369C246.909 308.07 246.644 307.839 246.307 307.676C245.97 307.513 245.591 307.432 245.17 307.432C244.723 307.432 244.333 307.525 244 307.71C243.67 307.892 243.415 308.148 243.233 308.477C243.055 308.807 242.966 309.193 242.966 309.636H241.625C241.625 308.955 241.782 308.356 242.097 307.841C242.411 307.326 242.839 306.924 243.381 306.636C243.926 306.348 244.538 306.205 245.216 306.205C245.898 306.205 246.502 306.348 247.028 306.636C247.555 306.924 247.968 307.312 248.267 307.801C248.566 308.29 248.716 308.833 248.716 309.432C248.716 309.86 248.638 310.278 248.483 310.688C248.331 311.093 248.066 311.545 247.688 312.045C247.312 312.542 246.792 313.148 246.125 313.864L243.511 316.659V316.75H248.92V318H241.58ZM255.403 305.818L251.653 319.75H250.426L254.176 305.818H255.403ZM260.766 318.159C259.91 318.159 259.18 317.926 258.578 317.46C257.976 316.991 257.516 316.311 257.197 315.42C256.879 314.527 256.72 313.447 256.72 312.182C256.72 310.924 256.879 309.85 257.197 308.96C257.519 308.066 257.982 307.384 258.584 306.915C259.19 306.441 259.917 306.205 260.766 306.205C261.614 306.205 262.339 306.441 262.942 306.915C263.548 307.384 264.01 308.066 264.328 308.96C264.65 309.85 264.811 310.924 264.811 312.182C264.811 313.447 264.652 314.527 264.334 315.42C264.016 316.311 263.555 316.991 262.953 317.46C262.351 317.926 261.622 318.159 260.766 318.159ZM260.766 316.909C261.614 316.909 262.273 316.5 262.743 315.682C263.213 314.864 263.447 313.697 263.447 312.182C263.447 311.174 263.339 310.316 263.124 309.608C262.911 308.9 262.605 308.36 262.203 307.989C261.805 307.617 261.326 307.432 260.766 307.432C259.925 307.432 259.268 307.847 258.794 308.676C258.321 309.502 258.084 310.67 258.084 312.182C258.084 313.189 258.19 314.045 258.402 314.75C258.614 315.455 258.919 315.991 259.317 316.358C259.718 316.725 260.201 316.909 260.766 316.909ZM270.607 318.159C269.94 318.159 269.339 318.027 268.805 317.761C268.271 317.496 267.843 317.133 267.521 316.67C267.199 316.208 267.023 315.682 266.993 315.091H268.357C268.41 315.617 268.648 316.053 269.072 316.398C269.5 316.739 270.012 316.909 270.607 316.909C271.084 316.909 271.508 316.797 271.879 316.574C272.254 316.35 272.548 316.044 272.76 315.653C272.976 315.259 273.084 314.814 273.084 314.318C273.084 313.811 272.972 313.358 272.749 312.96C272.529 312.559 272.226 312.242 271.839 312.011C271.453 311.78 271.012 311.663 270.516 311.659C270.16 311.655 269.794 311.71 269.419 311.824C269.044 311.934 268.735 312.076 268.493 312.25L267.175 312.091L267.879 306.364H273.925V307.614H269.061L268.652 311.045H268.72C268.959 310.856 269.258 310.699 269.618 310.574C269.978 310.449 270.353 310.386 270.743 310.386C271.455 310.386 272.089 310.557 272.646 310.898C273.207 311.235 273.646 311.697 273.964 312.284C274.286 312.871 274.447 313.542 274.447 314.295C274.447 315.038 274.281 315.701 273.947 316.284C273.618 316.864 273.163 317.322 272.584 317.659C272.004 317.992 271.345 318.159 270.607 318.159ZM280.841 305.818L277.091 319.75H275.864L279.614 305.818H280.841ZM286.203 318.159C285.347 318.159 284.618 317.926 284.016 317.46C283.413 316.991 282.953 316.311 282.635 315.42C282.317 314.527 282.158 313.447 282.158 312.182C282.158 310.924 282.317 309.85 282.635 308.96C282.957 308.066 283.419 307.384 284.021 306.915C284.627 306.441 285.355 306.205 286.203 306.205C287.052 306.205 287.777 306.441 288.379 306.915C288.985 307.384 289.447 308.066 289.766 308.96C290.088 309.85 290.249 310.924 290.249 312.182C290.249 313.447 290.089 314.527 289.771 315.42C289.453 316.311 288.993 316.991 288.391 317.46C287.788 317.926 287.059 318.159 286.203 318.159ZM286.203 316.909C287.052 316.909 287.711 316.5 288.18 315.682C288.65 314.864 288.885 313.697 288.885 312.182C288.885 311.174 288.777 310.316 288.561 309.608C288.349 308.9 288.042 308.36 287.641 307.989C287.243 307.617 286.764 307.432 286.203 307.432C285.362 307.432 284.705 307.847 284.232 308.676C283.758 309.502 283.521 310.67 283.521 312.182C283.521 313.189 283.627 314.045 283.839 314.75C284.052 315.455 284.357 315.991 284.754 316.358C285.156 316.725 285.639 316.909 286.203 316.909ZM296.271 318.159C295.794 318.152 295.317 318.061 294.839 317.886C294.362 317.712 293.927 317.419 293.533 317.006C293.139 316.589 292.822 316.027 292.584 315.318C292.345 314.606 292.226 313.712 292.226 312.636C292.226 311.606 292.322 310.693 292.516 309.898C292.709 309.098 292.989 308.426 293.357 307.881C293.724 307.331 294.167 306.915 294.686 306.631C295.209 306.347 295.798 306.205 296.453 306.205C297.105 306.205 297.684 306.335 298.192 306.597C298.703 306.854 299.12 307.214 299.442 307.676C299.764 308.138 299.972 308.67 300.067 309.273H298.68C298.552 308.75 298.302 308.316 297.93 307.972C297.559 307.627 297.067 307.455 296.453 307.455C295.552 307.455 294.841 307.847 294.322 308.631C293.807 309.415 293.548 310.515 293.544 311.932H293.635C293.847 311.61 294.099 311.335 294.391 311.108C294.686 310.877 295.012 310.699 295.368 310.574C295.724 310.449 296.101 310.386 296.499 310.386C297.165 310.386 297.775 310.553 298.328 310.886C298.881 311.216 299.324 311.672 299.658 312.256C299.991 312.835 300.158 313.5 300.158 314.25C300.158 314.97 299.997 315.629 299.675 316.227C299.353 316.822 298.9 317.295 298.317 317.648C297.737 317.996 297.055 318.167 296.271 318.159ZM296.271 316.909C296.749 316.909 297.177 316.79 297.555 316.551C297.938 316.312 298.239 315.992 298.459 315.591C298.682 315.189 298.794 314.742 298.794 314.25C298.794 313.769 298.686 313.331 298.47 312.938C298.258 312.54 297.964 312.223 297.589 311.989C297.218 311.754 296.794 311.636 296.317 311.636C295.957 311.636 295.622 311.708 295.311 311.852C295 311.992 294.728 312.186 294.493 312.432C294.262 312.678 294.08 312.96 293.947 313.278C293.815 313.593 293.749 313.924 293.749 314.273C293.749 314.735 293.857 315.167 294.072 315.568C294.292 315.97 294.591 316.294 294.97 316.54C295.353 316.786 295.786 316.909 296.271 316.909Z" fill="#828282"/>
<rect x="254" y="332" width="60" height="20" rx="10" fill="#4295F5"/>
<path d="M276.51 341.38V342.78H277.84V341.38H276.51ZM277.16 338C275.82 338 274.85 338.77 274.85 339.89C274.85 340.99 275.82 341.76 277.16 341.76C278.5 341.76 279.47 340.99 279.47 339.89C279.47 338.77 278.5 338 277.16 338ZM277.16 339C277.8 339 278.23 339.32 278.23 339.89C278.23 340.45 277.8 340.77 277.16 340.77C276.53 340.77 276.09 340.45 276.09 339.89C276.09 339.32 276.53 339 277.16 339ZM280.42 337.64V344.7H281.75V337.64H280.42ZM281.28 340.54V341.63H282.91V340.54H281.28ZM275.57 345.66V346.73H282.06V345.66H275.57ZM275.57 344.09V346.12H276.91V344.09H275.57ZM274.52 343.5C276.05 343.5 278.15 343.47 280.02 343.12L279.93 342.17C278.11 342.43 275.94 342.44 274.37 342.44L274.52 343.5ZM285.729 343.03V345.21H287.029V343.03H285.729ZM288.659 343.02V345.21H289.959V343.02H288.659ZM283.609 344.79V345.87H291.989V344.79H283.609ZM284.549 338.23V339.28H289.729V340.26H284.569V342.87H285.889V341.3H291.049V338.23H284.549ZM284.569 342.31V343.38H291.259V342.31H284.569Z" fill="white"/>
<defs>
<linearGradient id="paint0_linear_767_3" x1="43" y1="242" x2="279.371" y2="352.615" gradientUnits="userSpaceOnUse">
<stop stop-color="#FDD1CB"/>
<stop offset="1" stop-color="#E96161"/>
</linearGradient>
</defs>
</svg>
