<svg width="60" height="60" viewBox="0 0 60 60" fill="none" xmlns="http://www.w3.org/2000/svg">
<path d="M29.9999 0.833252C13.8999 0.833252 0.833252 13.8999 0.833252 29.9999C0.833252 46.0999 13.8999 59.1666 29.9999 59.1666C46.0999 59.1666 59.1666 46.0999 59.1666 29.9999C59.1666 13.8999 46.0999 0.833252 29.9999 0.833252ZM29.9999 9.58325C34.8416 9.58325 38.7499 13.4916 38.7499 18.3333C38.7499 23.1749 34.8416 27.0833 29.9999 27.0833C25.1582 27.0833 21.2499 23.1749 21.2499 18.3333C21.2499 13.4916 25.1582 9.58325 29.9999 9.58325ZM29.9999 50.9999C22.7083 50.9999 16.2624 47.2666 12.4999 41.6082C12.5874 35.8041 24.1666 32.6249 29.9999 32.6249C35.8041 32.6249 47.4124 35.8041 47.4999 41.6082C43.7374 47.2666 37.2916 50.9999 29.9999 50.9999Z" fill="#4295F5"/>
</svg>
